<svg xmlns="http://www.w3.org/2000/svg" viewBox="0 0 119 132.3"><path fill="#FFF" d="M112.4 86.8l3.5 2.7-1.3 1-1.7.2-1.1-1-.1-2.1zm-21.5-5h8.6v6.7h-8.6zM77.4.9H10.2C5.1.9 1 5 .9 10v.1l.3 110c0 5 4 9 9 9h67.2c5.1 0 9.2-4.1 9.3-9.1v-.2L86.4 9.9c0-5-4-9-9-9z"/><path fill="#1D6876" d="M7.8 129.7c-4.4-1.1-7.5-5-7.5-9.6L0 10.2C0 7.5 1.1 4.9 3 3c1.9-1.9 4.5-3 7.2-3h67.2c5.5 0 9.8 4.4 9.9 9.9l.3 109.9c0 5.5-4.5 10.1-10 10.2H10.2c-.8 0-1.6-.1-2.4-.3zM77.4.9v.9H10.2c-2.2 0-4.4.9-6 2.5C2.6 5.9 1.7 8 1.8 10.2l.3 109.9c0 4.5 3.7 8.1 8.2 8.1h67.2c4.6 0 8.3-3.7 8.4-8.3v-.1L85.5 9.9c0-4.5-3.7-8.1-8.2-8.1l.1-.9z"/><path fill="#1D6876" d="M7.2 118c-.3-.1-.5-.3-.5-.6.1-1.1-.2-109.2-.2-109.4 0-.2.1-.3.2-.4.1-.1.3-.2.4-.2H80c.3 0 .6.2.6.6 0 1.1.3 109.3.3 109.4 0 .3-.2.6-.6.6H7.2zM7.7 8.6c0 8.3.3 99.1.3 108.2h71.8c0-8.3-.3-99.1-.3-108.2H7.7zm28.9-3.4c-.3-.1-.4-.3-.4-.6s.3-.6.6-.6h12.8c.3 0 .6.3.6.6s-.3.6-.6.6h-13z"/><path fill="#EA7726" d="M14.6 54.8c0 .2-.1.4-.3.5-.2.1-.4.2-.6.2-.2 0-.3 0-.4-.1l-.3-.3c-.1-.2-.1-.3-.1-.5v-.2c0-.2 0-.4.1-.5.1-.1.2-.3.3-.4.1-.1.3-.1.5-.1s.4.1.6.2c.1.1.2.3.2.5h-.4c0-.1-.1-.2-.1-.3-.1-.1-.2-.1-.3-.1-.1 0-.3.1-.4.2-.1.2-.1.3-.1.5v.2c0 .2 0 .4.1.5.1.1.2.2.4.2.1 0 .2 0 .3-.1.1-.1.1-.2.1-.3l.4-.1zm1.9-.3c0 .2 0 .4-.1.5-.1.1-.2.3-.3.4-.1.1-.3.1-.5.1s-.3 0-.5-.1c-.1-.1-.2-.2-.3-.4-.1-.2-.1-.4-.1-.5v-.1c0-.2 0-.4.1-.5.1-.3.4-.5.8-.5.2 0 .3 0 .5.1.1.1.2.2.3.4.1.2.1.4.1.5v.1zm-.4-.1c0-.2 0-.4-.1-.5-.1-.1-.2-.2-.4-.2-.1 0-.3.1-.4.2-.1.2-.1.3-.1.5v.1c0 .2 0 .4.1.5.2.2.5.3.7.1l.1-.1c.1-.2.1-.4.1-.5v-.1zm2.3 1.1H18l-.9-1.5v1.5h-.4v-2.1h.4l.9 1.5v-1.5h.4v2.1z"/><path fill="#EA7726" d="M20.1 53.7h-.7v1.8H19v-1.8h-.7v-.3H20l.1.3zm1.2 1.3h-.8l-.2.5h-.4l.8-2.1h.3l.8 2.1h-.4l-.1-.5zm-.7-.3h.6l-.3-.9-.3.9zm2.9.1c0 .2-.1.4-.3.5-.2.1-.4.2-.6.2-.2 0-.3 0-.4-.1l-.3-.3c-.1-.2-.1-.3-.1-.5v-.2c0-.2 0-.4.1-.5.1-.1.2-.3.3-.4.1-.1.3-.1.5-.1s.4.1.6.2c.1.1.2.3.2.5h-.4c0-.1-.1-.2-.1-.3-.1-.1-.2-.1-.3-.1-.1 0-.3.1-.4.2-.1.2-.1.3-.1.5v.2c0 .2 0 .4.1.5.1.1.2.2.4.2.1 0 .2 0 .3-.1.1-.1.1-.2.1-.3l.4-.1z"/><path fill="#EA7726" d="M25.2 53.7h-.7v1.8h-.4v-1.8h-.7v-.3h1.7l.1.3zm-8.4 5.7h-.4v-2.1h.4v2.1zm2 0h-.4l-.9-1.5v1.5h-.4v-2.1h.4l1 1.5v-1.5h.4l-.1 2.1zm1.5-.9h-.8v.9h-.4v-2.1h1.3v.3h-1v.6h.8l.1.3zm1.9-.1c0 .2 0 .4-.1.5-.1.1-.2.3-.3.4-.1.1-.3.1-.5.1s-.3 0-.5-.1c-.1-.1-.2-.2-.3-.4-.1-.2-.1-.4-.1-.5v-.1c0-.2 0-.4.1-.5.1-.1.2-.3.3-.4.1-.1.3-.1.5-.1s.3 0 .5.1c.1.1.2.2.3.4.1.2.1.4.1.5v.1zm-.3-.1c0-.2 0-.4-.1-.5-.1-.1-.2-.2-.4-.2-.1 0-.3.1-.4.2-.1.2-.1.3-.1.5v.1c0 .2 0 .4.1.5.1.1.2.2.4.2.1 0 .3-.1.4-.2.1-.2.1-.4.1-.5v-.1z"/><path fill="#1D6876" d="M35 55.1h-.8l-.2.5h-.4l.8-2.1h.3l.8 2.1h-.4l-.1-.5zm-.7-.3h.6l-.3-.9-.3.9zm1.4.8v-2.1h.7c.2 0 .4 0 .5.1.1.1.2.3.2.4 0 .1 0 .2-.1.3l-.2.2c.1 0 .2.1.3.2.1.1.1.2.1.3 0 .2-.1.3-.2.5-.2.1-.4.2-.5.2l-.8-.1zm.4-1.2h.4c.1 0 .2 0 .3-.1.1-.1.1-.1.1-.2s0-.2-.1-.2c-.1-.1-.2-.1-.3-.1h-.4v.6zm0 .2v.7h.4c.1 0 .2 0 .3-.1.1-.1.1-.1.1-.2 0-.2-.1-.3-.2-.3h-.1l-.5-.1zm3 0c0 .2 0 .4-.1.5-.1.1-.2.3-.3.4-.1.1-.3.1-.5.1s-.3 0-.5-.1c-.1-.1-.2-.2-.3-.4-.1-.2-.1-.4-.1-.5v-.1c0-.2 0-.4.1-.5.1-.1.2-.3.3-.4.3-.2.6-.2.9 0 .1.1.2.2.3.4.1.2.1.4.1.5l.1.1zm-.4-.1c0-.2 0-.4-.1-.5-.1-.1-.2-.2-.4-.2-.1 0-.3.1-.4.2-.1.2-.1.3-.1.5v.1c0 .2 0 .4.1.5.2.2.5.3.7.1l.1-.1c.1-.2.1-.4.1-.5v-.1zm2.2-1v1.4c0 .2-.1.4-.2.5-.3.3-.8.3-1.2 0-.1-.1-.2-.3-.2-.5v-1.4h.4v1.4c0 .1 0 .2.1.3.1.1.2.1.3.1.2 0 .4-.1.4-.3v-1.5h.4z"/><path fill="#1D6876" d="M42.6 53.8h-.7v1.8h-.4v-1.8h-.7v-.3h1.7l.1.3zm1.3.7l.5-1h.4l-.7 1.3v.8h-.4v-.8l-.7-1.3h.4l.5 1zm2.7.1c0 .2 0 .4-.1.5-.1.1-.2.3-.3.4-.3.2-.6.2-.9 0-.1-.1-.2-.2-.3-.4-.1-.2-.1-.4-.1-.5v-.1c0-.2 0-.4.1-.5.1-.1.2-.3.3-.4.1-.1.3-.1.5-.1s.3 0 .5.1c.1.1.2.2.3.4.1.2.1.4.1.5l-.1.1zm-.4-.1c0-.2 0-.4-.1-.5-.2-.2-.4-.3-.6-.1l-.1.1c-.1.2-.1.3-.1.5v.1c0 .2 0 .4.1.5.2.2.4.3.7.1l.1-.1c.1-.2.1-.4.1-.5l-.1-.1z"/><path fill="#1D6876" d="M48.3 53.5v1.4c0 .2-.1.4-.2.5-.2.1-.4.2-.6.2-.2 0-.4-.1-.6-.2-.1-.1-.2-.3-.2-.5v-1.4h.4v1.4c0 .1 0 .2.1.3.1.1.2.1.3.1.2 0 .4-.1.4-.3v-1.5h.4zm1 1.3h-.4v.8h-.4v-2.1h.7c.2 0 .4 0 .6.2.2.2.3.6.1.8-.1.1-.2.2-.3.2l.5.9h-.4l-.4-.8zm-.4-.3h.4c.1 0 .2 0 .3-.1.1-.1.1-.2.1-.3 0-.1 0-.2-.1-.3-.1-.1-.2-.1-.3-.1h-.4v.8zm-8.8 4.9h-.4v-.9h-.9v.9h-.4v-2.1h.4v.9h.9v-.9h.4v2.1zm2-1c0 .2 0 .4-.1.5-.1.1-.2.3-.3.4-.3.2-.6.2-.9 0-.1-.1-.2-.2-.3-.4-.1-.2-.1-.4-.1-.5v-.1c0-.2 0-.4.1-.5.1-.1.2-.3.3-.4.3-.2.6-.2.9 0 .1.1.2.2.3.4.1.2.1.4.1.5v.1zm-.4-.1c0-.2 0-.4-.1-.5-.2-.2-.4-.2-.7-.1l-.1.1c-.1.2-.1.3-.1.5v.1c0 .2 0 .4.1.5.2.2.5.3.7.1l.1-.1c.1-.2.1-.4.1-.5v-.1zm1.1-1l.6 1.6.6-1.6h.5v2.1h-.4v-1.6l-.6 1.6h-.3l-.6-1.6v1.6h-.4v-2.1h.6zm3.2 1.2h-.9v.6h1v.3h-1.4v-2.1h1.4v.3h-1v.6h.9v.3zm15.4-3H61v-.9h-.9v.9h-.4v-2.1h.4v.9h.9v-.9h.4v2.1zm2-1c0 .2 0 .4-.1.5-.1.1-.2.3-.3.4-.3.2-.6.2-.9 0-.1-.1-.2-.2-.3-.4-.1-.2-.1-.4-.1-.5v-.1c0-.2 0-.4.1-.5.1-.1.2-.3.3-.4.4-.3.9-.1 1.2.2 0 0 0 .1.1.1.1.2.1.4.1.5l-.1.2zm-.4-.1c0-.2 0-.4-.1-.5-.2-.2-.5-.2-.7-.1l-.1.1c-.1.1-.1.3-.1.5v.1c0 .2 0 .4.1.5.1.1.2.2.4.2.1 0 .3-.1.4-.2.1-.1.1-.3.1-.6z"/><path fill="#1D6876" d="M64.1 53.4l.6 1.6.6-1.6h.5v2.1h-.4v-1.6l-.6 1.6h-.3l-.6-1.6v1.6h-.4v-2.1h.6zm3.2 1.1h-.9v.6h1v.3H66v-2.1h1.4v.3h-1v.6h.9v.3zm-8.9 4.9H58v-2.1h.4v2.1zm2 0H60l-.9-1.5v1.5h-.4v-2.1h.4l.9 1.5v-1.5h.4v2.1zm1.8-1.9h-.7v1.8h-.4v-1.8h-.7v-.3h1.7l.1.3zm1.3.9h-.9v.6h1v.3h-1.4v-2.1h1.4v.3h-1v.6h.9v.3zm1.1.1h-.4v.8h-.4v-2.1h.7c.2 0 .4 0 .6.2.1.1.2.3.2.5 0 .1 0 .3-.1.4-.1.1-.2.2-.3.2l.5.9H65l-.4-.9zm-.4-.3h.4c.1 0 .2 0 .3-.1.1-.1.1-.2.1-.3 0-.1 0-.2-.1-.3-.1-.1-.2-.1-.3-.1h-.4v.8zm1.7 1.1h-.4v-2.1h.4v2.1zm2-1c0 .2 0 .4-.1.5-.1.1-.2.3-.3.4-.1.1-.3.1-.5.1-.3 0-.6-.2-.8-.5-.1-.2-.1-.4-.1-.5v-.1c0-.2 0-.4.1-.5.1-.1.2-.3.3-.4.1-.1.3-.1.5-.1s.3 0 .5.1c.1.1.2.2.3.4.1.2.1.4.1.5v.1zm-.4-.1c0-.2 0-.4-.1-.5-.2-.2-.4-.2-.7-.1l-.1.1c-.1.2-.1.3-.1.5v.1c0 .2 0 .4.1.5.2.2.4.3.7.1l.1-.1c.1-.2.1-.4.1-.5v-.1zm1.4.3h-.4v.8h-.4v-2.1h.7c.2 0 .4 0 .6.2.2.2.3.6.1.8-.1.1-.2.2-.3.2l.5.9h-.4l-.4-.8zm-.4-.3h.4c.1 0 .2 0 .3-.1.1-.1.1-.2.1-.3 0-.1 0-.2-.1-.3-.1-.1-.2-.1-.3-.1h-.4v.8z"/><path fill="#EA7726" d="M28.6 57.4l1.6-1.6-1.6-1.6.5-.5 2.1 2.1-2.1 2.1-.5-.5zm24.7-.1l1.6-1.6-1.6-1.6.5-.5 2.1 2.1-2.1 2.1-.5-.5zm18.9 0l1.6-1.6-1.6-1.6.5-.5 2.1 2.1-2.1 2.1-.5-.5zm-59.7-8h12.9v2.3H12.5z"/><path fill="#1D6876" d="M17.8 109.2V67h52.6v42.2H17.8zm.5-41.7v41.1h51.4V67.5H18.3z"/><path fill="#FFF" d="M21.2 74.6h42.4v5H21.2z"/><path fill="#1D6876" d="M20.7 80.1v-5.9h43.2v5.9H20.7zm.9-5.1v4.2h41.5V75H21.6z"/><path fill="#EA7726" d="M20.7 91.7v-5.9h28.6v5.9H20.7zm.9-5.1v4.2h26.9v-4.2H21.6z"/><path fill="#FFF" d="M21.2 98.4h16.6v5H21.2z"/><path fill="#1D6876" d="M20.8 103.9V98h17.4v5.9H20.8zm.9-5v4.2h15.7v-4.2H21.7zm5.2-25.5c-.2-.1-.3-.3-.3-.4 0-.2.2-.3.3-.3H28c.2 0 .4.2.4.4s-.2.4-.4.4l-1.1-.1c.1 0 .1 0 0 0zm-5.1 0c-.2-.1-.3-.2-.3-.4s.2-.3.3-.3H25c.2 0 .4.2.4.4s-.2.4-.4.4l-3.2-.1zm0 11.8c-.2-.1-.3-.2-.3-.4s.2-.3.3-.3H25c.2 0 .4.2.4.4s-.2.4-.4.4l-3.2-.1zm0 11.6c-.2 0-.3-.2-.3-.4s.2-.3.4-.3h3.2c.2 0 .4.2.4.4s-.2.4-.4.4l-3.3-.1zM32.4 65c-.2 0-.3-.2-.3-.4s.2-.3.4-.3l5.1.1c.2 0 .4.2.4.4s-.2.4-.4.4l-5.2-.2zm-11 0c-.2 0-.3-.2-.3-.4s.2-.3.4-.3h8.9c.2 0 .4.2.4.4s-.2.4-.4.4l-9-.1c.1 0 .1 0 0 0z"/><path fill="#FFF" d="M49.5 124.8c-1.1 1.2-3 1.3-4.2.3-1.2-1.1-1.3-3-.3-4.2 1.1-1.2 3-1.3 4.2-.3 1.2 1 1.3 2.9.3 4.2z"/><path fill="#1D6876" d="M49.9 125.1c-1.3 1.4-3.4 1.5-4.8.2-.6-.6-1-1.4-1.1-2.3-.1-1.8 1.2-3.4 3.1-3.6.9-.1 1.8.2 2.5.8.7.6 1.2 1.5 1.2 2.4 0 .9-.3 1.8-.9 2.5zm-.8-.7c.4-.5.6-1.1.6-1.8 0-.6-.3-1.2-.8-1.7s-1.1-.7-1.8-.7-1.3.3-1.8.8c-.2.3-.4.6-.5.9-.1.3-.2.7-.2 1 .1 1.4 1.3 2.5 2.7 2.4.7 0 1.3-.4 1.8-.9zM15.2 19.8h-2.1c-.3 0-.5-.2-.5-.4v-.3c0-.3.2-.5.5-.5h5.5c.3 0 .4.2.4.5v.3c0 .3-.2.4-.4.4h-2.1v6.1c0 .3-.2.5-.5.5h-.5c-.3 0-.4-.2-.4-.5l.1-6.1zm6 .8c1.6 0 2.5 1.1 2.5 2.6 0 .2-.2.5-.5.5h-3.4c.1 1 .8 1.5 1.7 1.5.5 0 .9-.2 1.2-.4.3-.1.5-.1.6.1l.1.2c.1.3.1.5-.1.6-.4.2-1 .6-1.9.6-1.8 0-3-1.3-3-2.9 0-1.6 1.1-2.8 2.8-2.8zm1.1 2.3c0-.8-.5-1.2-1.1-1.2-.7 0-1.2.5-1.3 1.2h2.4zm2.1-3.9c0-.3.2-.5.4-.5h.5c.3 0 .4.2.4.5v5.4c0 .5.2.6.4.7.2 0 .3.1.3.4v.4c0 .3-.1.5-.5.5-.7 0-1.7-.2-1.7-1.8l.2-5.6zm2.8 0c0-.3.2-.5.4-.5h.5c.3 0 .4.2.4.5v5.4c0 .5.2.6.4.7.2 0 .3.1.3.4v.4c0 .3-.1.5-.5.5-.7 0-1.7-.2-1.7-1.8l.2-5.6zm5.3 2.2c0-.3.2-.5.5-.5h.5c.3 0 .5.2.5.5V24c0 .7.2 1.1.9 1.1 1 0 1.6-.9 1.6-1.9v-2.1c0-.3.2-.5.5-.5h.5c.3 0 .5.2.5.5v4.6c0 .3-.2.5-.5.5h-.4c-.3 0-.4-.2-.4-.5v-.6c-.3.6-1 1.2-1.9 1.2-1.2 0-1.9-.6-1.9-2.1l-.4-3zm6.1 4l.1-.2c.2-.2.3-.3.6-.1.3.1.7.4 1.2.4s.8-.2.8-.6c0-.9-2.8-.6-2.8-2.5 0-1.1 1-1.7 2.1-1.7.7 0 1.3.2 1.5.4.3.1.3.4.2.6l-.1.2c-.1.3-.3.3-.6.2-.2-.1-.6-.3-1.1-.3-.5 0-.7.2-.7.5 0 .9 2.8.5 2.8 2.4 0 1-.8 1.7-2.1 1.7-.9 0-1.5-.3-1.9-.6-.2.1-.2-.2 0-.4zm10.2-2.4h.2v-.1c0-.7-.5-1-1-1s-.9.2-1.2.3c-.3.1-.5.1-.6-.2l-.1-.2c-.1-.3-.1-.5.2-.6.4-.2 1-.5 1.8-.5 1.4 0 2.3.8 2.3 2.2v3c0 .3-.2.5-.5.5h-.4c-.3 0-.4-.2-.4-.5v-.4s-.5 1-1.7 1c-1 0-1.8-.6-1.8-1.7-.1-1.5 1.9-1.8 3.2-1.8zm-1.1 2.5c.8 0 1.3-.8 1.3-1.5v-.2h-.2c-.7 0-1.9.1-1.9.9 0 .5.3.8.8.8zm3.7-6.3c0-.3.2-.5.5-.5h.5c.3 0 .5.2.5.5v2.5s.5-.9 1.7-.9c1.5 0 2.5 1.2 2.5 2.9 0 1.8-1.1 2.9-2.5 2.9-1.3 0-1.7-.9-1.7-.9v.4c0 .2-.2.4-.5.4H52c-.3 0-.5-.2-.5-.5l-.1-6.8zm2.7 6.2c.8 0 1.4-.6 1.4-1.7 0-1-.6-1.7-1.4-1.7-.7 0-1.4.5-1.4 1.7.1.8.5 1.7 1.4 1.7zm6.3-4.7c1.7 0 3.1 1.2 3.1 2.9s-1.4 2.9-3 2.9c-1.7 0-3-1.2-3.1-2.9 0-1.7 1.4-2.9 3-2.9zm.1 4.7c.9 0 1.7-.7 1.6-1.7 0-1-.8-1.7-1.7-1.7-.9 0-1.6.7-1.6 1.7s.8 1.7 1.7 1.7zm3.7-4.1c0-.3.2-.5.5-.5h.5c.3 0 .5.2.5.5v2.8c0 .7.2 1.1.9 1.1 1 0 1.6-.9 1.5-1.9V21c0-.3.2-.5.5-.5h.5c.3 0 .5.2.5.5v4.6c0 .3-.2.5-.5.5h-.4c-.3 0-.4-.2-.4-.5V25c-.3.6-1 1.2-1.9 1.2-1.2 0-1.9-.6-1.9-2.1l-.3-3zm6.6.7h-.3c-.3 0-.4-.2-.4-.5v-.2c0-.3.2-.5.5-.5h.3v-1.1c0-.3.2-.5.5-.5h.4c.3 0 .5.2.5.5v1.1h.8c.3 0 .5.2.5.5v.2c0 .3-.2.5-.4.5h-.8V24c0 .8.5 1 .9 1 .3 0 .5.1.5.4v.3c0 .3-.2.5-.6.5-1 0-2.2-.5-2.2-2l-.2-2.4zM17.6 38.2c.1 0 .2.1.4.1.4 0 .7-.4.9-.7l.2-.5-2.1-4.9c-.1-.3 0-.5.3-.5h.6c.3 0 .4.1.5.4l1.1 2.8c.1.3.2.7.2.7s.1-.4.2-.7l1-2.8c.1-.3.2-.4.5-.4h.5c.3 0 .5.2.4.5L20 38c-.4 1-1.2 1.5-2 1.5-.3 0-.6-.1-.8-.2-.2-.1-.3-.3-.2-.6l.1-.2c.1-.3.3-.3.5-.3zm7.9-6.7c1.7 0 3.1 1.2 3.1 2.9s-1.4 2.9-3 2.9-3-1.2-3.1-2.9c0-1.7 1.3-2.9 3-2.9zm0 4.6c.9 0 1.7-.7 1.6-1.7 0-1-.8-1.7-1.7-1.7-.9 0-1.6.7-1.6 1.7.1 1 .8 1.7 1.7 1.7zm3.8-4c0-.3.2-.5.5-.5h.5c.3 0 .5.2.5.5v2.8c0 .7.2 1.1.9 1.1 1 0 1.6-.9 1.6-1.9V32c0-.3.2-.5.5-.5h.5c.3 0 .5.2.5.5v4.6c0 .3-.2.5-.5.5h-.4c-.3 0-.4-.2-.4-.5V36c-.3.6-1 1.2-1.9 1.2-1.2 0-1.9-.6-1.9-2.1l-.4-3zm6.3-.1c0-.3.2-.5.4-.5h.4c.3 0 .5.2.5.5v.9c.2-.7.8-1.4 1.6-1.4.3 0 .4.2.4.5v.4c0 .3-.2.5-.5.5-1 0-1.5 1-1.5 2v1.8c0 .3-.2.5-.4.5H36c-.3 0-.4-.2-.4-.5V32zm6.4-2.1c0-.3.2-.5.5-.5h.5c.3 0 .5.2.5.5v2.7c.3-.5 1-1.1 1.9-1.1 1.2 0 1.9.6 1.9 2.1v3.1c0 .3-.2.5-.5.5h-.5c-.3 0-.5-.2-.5-.5v-2.8c0-.7-.2-1.1-.9-1.1-1 0-1.6.8-1.6 1.8v2.1c0 .3-.2.5-.5.5h-.5c-.3 0-.5-.2-.5-.5l.2-6.8zm9 1.5c1.7 0 3.1 1.2 3.1 2.9s-1.4 2.9-3 2.9c-1.7 0-3-1.2-3.1-2.9-.1-1.7 1.3-2.9 3-2.9zm0 4.6c.9 0 1.7-.7 1.6-1.7 0-1-.8-1.7-1.7-1.7-.9 0-1.6.7-1.6 1.7 0 1.1.8 1.8 1.7 1.7zm3.8-4c0-.3.2-.5.4-.5h.4c.3 0 .4.2.4.5v.6c.3-.5.9-1.2 1.8-1.2.8 0 1.4.4 1.6 1.1.3-.6 1-1.1 1.9-1.1 1.2 0 1.8.6 1.8 2.1v3.1c0 .3-.2.5-.5.5h-.5c-.3 0-.5-.2-.5-.5v-2.9c0-.6-.1-1.1-.8-1.1-.9 0-1.4 1-1.4 1.9v2c0 .3-.2.5-.4.5h-.5c-.3 0-.5-.2-.5-.5v-2.9c0-.6-.1-1.1-.7-1.1-1 0-1.4 1-1.4 1.9v2c0 .3-.2.5-.4.5H55c-.3 0-.4-.2-.4-.5l.2-4.4zm12-.6c1.6 0 2.5 1.1 2.5 2.6 0 .2-.2.5-.5.5h-3.4c.1 1 .8 1.5 1.7 1.5.5 0 .9-.2 1.2-.4.3-.1.5-.1.6.1l.1.3c.1.3.1.5-.1.6-.4.2-1 .6-1.9.6-1.8 0-3-1.3-3-2.9 0-1.7 1.2-2.9 2.8-2.9zm1.1 2.2c0-.8-.5-1.2-1.1-1.2-.7 0-1.2.5-1.3 1.2h2.4z"/><circle fill="#FFF" cx="95.7" cy="108.5" r="22.8"/><path fill="#1C6775" d="M95.5 128.2c-10.6 0-19.2-8.6-19.2-19.2s8.6-19.2 19.2-19.2 19.2 8.6 19.2 19.2c.1 10.5-8.5 19.1-19.2 19.2zm0-37.7c-10.2 0-18.4 8.2-18.4 18.4s8.2 18.4 18.4 18.4 18.4-8.2 18.4-18.4c0-10.1-8.2-18.4-18.4-18.4z"/><path fill="none" d="M96.9 107.5l6.7-6.7"/><path fill="#1C6775" d="M96.9 107.9c-.2 0-.4-.2-.4-.4 0-.1 0-.2.1-.3l6.7-6.7c.2-.2.4-.2.6 0 .2.2.2.4 0 .6l-6.7 6.7c-.1.1-.2.1-.3.1z"/><path fill="#1C6775" d="M95.5 111.2c-1.2 0-2.3-1-2.3-2.3 0-1.2 1-2.3 2.3-2.3 1.2 0 2.3 1 2.3 2.3 0 1.3-1 2.3-2.3 2.3zm0-3.7c-.8 0-1.4.6-1.4 1.4s.6 1.4 1.4 1.4c.8 0 1.4-.6 1.4-1.4.1-.8-.6-1.4-1.4-1.4zm0-15.5c-.9 0-1.6.7-1.6 1.5 0 .9.7 1.6 1.5 1.6.9 0 1.6-.7 1.6-1.5.1-.9-.6-1.6-1.5-1.6z"/><path fill="#EA7626" d="M107.3 97.2c-.5-.5-1.3-.5-1.8 0s-.4 1.3.1 1.8c.5.4 1.2.4 1.6 0 .5-.5.5-1.3.1-1.8z"/><path fill="#1C6775" d="M110.9 107.4c-.9 0-1.5.7-1.5 1.5s.7 1.5 1.5 1.5 1.5-.7 1.5-1.5-.7-1.5-1.5-1.5zm-3.6 11.5c-.5-.5-1.3-.5-1.8 0s-.5 1.3 0 1.8c.5.4 1.3.4 1.8-.1.4-.5.4-1.2 0-1.7zm-11.8 3.8c-.9 0-1.6.7-1.6 1.5s.7 1.6 1.5 1.6 1.6-.7 1.6-1.5c.1-.9-.6-1.6-1.5-1.6zm-10.8-4.2c-.3 0-.6.1-.9.4-.5.5-.5 1.3 0 1.8s1.3.5 1.8 0 .5-1.3 0-1.8c-.3-.2-.6-.4-.9-.4z"/><circle fill="#1C6775" cx="80.2" cy="108.9" r="1.5"/><path fill="#1C6775" d="M85.6 97.2c-.5-.5-1.3-.4-1.8.1-.4.5-.4 1.2 0 1.6.5.5 1.3.5 1.8 0 .4-.4.4-1.2 0-1.7zm27.9-6c-1.2 0-2.2-1-2.2-2.2 0-.5.2-1 .5-1.3l.7-.8c.1-.2.4-.2.6-.1L116 89c.2.1.2.4.1.6l-.6.8c-.7.5-1.3.8-2 .8zm-.7-3.6l-.4.5c-.2.2-.3.5-.3.8 0 .5.2.9.5 1.2.6.5 1.5.4 2-.3l.4-.5-2.2-1.7z"/><path fill="#1C6775" d="M112.4 90.4c-.2-.2-.4-.4-.5-.7l-1.5 2 1.2.9 1.5-1.9c-.4-.1-.6-.2-.7-.3z"/><path fill="#1C6775" d="M99.7 85.9c.1-.4.2-.8.2-1.1v-2.9c0-.4-.3-.7-.7-.7h-8.3c-.4 0-.7.3-.7.7v2.9c0 .5.1.9.2 1.3-3.9.9-7.6 2.8-10.6 5.5l-1.1-1.4c.5-.8.4-1.8-.2-2.5l-.6-.8c-.1-.2-.4-.2-.6-.1L74.4 89c-.2.1-.2.4-.1.6l.6.8c.6.8 1.7 1.1 2.6.7l1.2 1.5c-9 9.3-8.8 24.1.4 33.1s24.1 8.8 33.1-.4 8.8-24.1-.4-33.1c-3.2-3.3-7.5-5.5-12.1-6.3zm-8.1-3.3h6.8v2.2c0 1.6-1.3 3-3 3h-.9c-1.6 0-3-1.3-3-3v-2.2zm-15.4 7.6c-.2-.1-.4-.2-.5-.4l-.4-.5 2.2-1.7.4.5c.2.2.3.5.3.8 0 .8-.6 1.4-1.3 1.5-.2 0-.5-.1-.7-.2zm19.3 40.7c-12.1 0-22-9.9-22-22 0-10.4 7.3-19.4 17.5-21.5.8 1.1 2.1 1.7 3.5 1.7h.9c1.5 0 2.8-.7 3.6-1.9 12 2 20.1 13.3 18.1 25.3-1.6 10.6-10.8 18.4-21.6 18.4z"/></svg>