<svg xmlns="http://www.w3.org/2000/svg" xmlns:xlink="http://www.w3.org/1999/xlink" width="714.481" height="619.853"><defs><linearGradient id="x" x1="-25.328" y1="6.346" x2="-24.005" y2="6.346" xlink:href="#t"/><linearGradient id="a" x1="1.492" y1="13.409" x2="1.492" y2="16.095" gradientUnits="objectBoundingBox"><stop offset="0" stop-color="#1b6775"/><stop offset="1" stop-color="#d3e1ed"/></linearGradient><linearGradient id="b" x1="1.492" y1="13.339" x2="1.492" y2="16.025" xlink:href="#a"/><linearGradient id="w" x1=".962" y1=".02" x2="-.393" y2="1.246" xlink:href="#t"/><linearGradient id="v" x1=".814" y1=".197" x2="-.419" y2="1.447" xlink:href="#t"/><linearGradient id="u" x1="0" y1=".5" x2="1" y2=".5" xlink:href="#t"/><linearGradient id="g" x1="-.268" y1="1.492" x2=".672" y2=".082" gradientUnits="objectBoundingBox"><stop offset="0" stop-color="#1b6775"/><stop offset="1" stop-color="#fff"/></linearGradient><linearGradient id="h" x1="-.362" y1="1.722" x2=".665" y2=".266" xlink:href="#g"/><linearGradient id="t" x1="1.133" y1=".057" x2=".068" y2=".8" gradientUnits="objectBoundingBox"><stop offset="0" stop-color="#2a425e"/><stop offset="1" stop-color="#895b3d"/></linearGradient><linearGradient id="s" x1=".634" y1=".812" x2=".102" y2=".49" gradientUnits="objectBoundingBox"><stop offset="0" stop-color="#a17c64"/><stop offset="1" stop-color="#895b3d"/></linearGradient><linearGradient id="r" x1=".5" y1=".1" x2=".5" y2="1.172" gradientUnits="objectBoundingBox"><stop offset="0" stop-color="#d16720"/><stop offset="1" stop-color="#2a425e"/></linearGradient><linearGradient id="m" x1="-.268" y1="1.492" x2=".672" y2=".08" xlink:href="#g"/><linearGradient id="q" x1="2.057" y1="1.599" x2="2.74" y2=".423" xlink:href="#a"/><linearGradient id="p" x1=".5" y1=".1" x2=".5" y2="1.172" gradientUnits="objectBoundingBox"><stop offset="0" stop-color="#1b6775"/><stop offset="1" stop-color="#adc2da"/></linearGradient><clipPath id="o"><path class="a" d="M172.19 280.54s3.12-154.88 10.81-167.78C213.72 61.49 453.28 6.29 722.84 202.1c49 35.63-45.36 160.81-10.36 189.94q12.4 10.32 23.67 20.13c179.68 156.27 149 216.81 10.77 241.09C578.46 682.85 20.71 794.6 172.19 280.54z"/></clipPath><clipPath id="l"><path class="d" transform="rotate(180 444.045 390.09)" d="M0 0h473.75v161.5H0z"/></clipPath><clipPath id="j"><path class="b" transform="translate(482.74 147)" d="M0 0h387.51v482.98H0z"/></clipPath><clipPath id="i"><path class="a" d="M834.92 325.37s-32.22 96.39-173.28-6.08-137.4-137.36-67-149.73 303.6-59.08 240.28 155.81z"/></clipPath><clipPath id="f"><path class="c" transform="rotate(180 444.045 387.24)" d="M0 0h473.75v161.5H0z"/></clipPath><clipPath id="d"><path class="b" transform="translate(482.74 158.25)" d="M0 0h387.51v466.04H0z"/></clipPath><clipPath id="c"><path class="a" d="M172.19 280.54S249.28 50 586.7 295.07s328.68 328.59 160.22 358.19S20.71 794.6 172.19 280.54z"/></clipPath><style>.a,.ad,.g,.k,.m{fill:none}.b{fill:#f9d780}.c{fill:url(#a)}.d{fill:url(#b)}.f{fill:#ffecb8}.g{stroke:#f9d780}.ad,.g,.k,.m{stroke-miterlimit:10}.i{fill:#ffc709}.j{fill:#fff}.k{stroke:#ffecb8}.m{stroke:#2a425e}.n{fill:#2a425e}.p{fill:url(#h)}.aa{fill:#895b3d}.ad{stroke:#66412c}.af{fill:#1b6775}.aj{fill:#adc2da}.al{fill:#2bb281}</style></defs><g clip-path="url(#c)" transform="translate(-146.386 -64.322)"><path class="f" d="M135.23 92.01h752.86v560.3H135.23z"/><path class="g" d="M753.26 101.63s-131.51 67.3-344 40.15-306.09 156.78-306.09 156.78"/><path class="g" d="M778.49 108.9s-243 83.88-379.17 46.52-295 99.09-289.19 175.38"/><path class="g" d="M803.13 141.76S542.3 204.6 379.86 168.67 136.2 291.74 136.2 291.74"/><path class="g" d="M823.61 167.2s-402.22 98.3-546.18 92.62S72.16 431.36 72.16 431.36"/><path class="g" d="M149.89 341.85s345.36 69.86 526.67-46.23c83-53.12 153.65-42.08 205.94-14.48"/><path class="g" d="M900.84 334.3S782 217.24 545.9 386.1s-407.75 27.83-407.75 27.83"/><path class="g" d="M880.09 360.25S766.74 254.8 643.89 380.4 355.93 563 355.93 563"/><path class="g" d="M880.88 410s-121.08-88.67-180.05 21.91S501 653.44 501 653.44"/><path class="b" d="M164.37 362.72h387.51v289.59H164.37z"/><path class="b" d="M482.74 158.25h387.51v466.04H482.74z"/><g clip-path="url(#d)"><path class="f" d="M457.14 311.9s13-110.39 75.25-48.89 10.95 171.13 113.56 171.13 23.34 80.32 73.88 117c22.77 16.53 13.79 71.09 13.79 71.09l-270 .22z"/><path class="i" d="M693.95 605.32s-19.93-61.68 22.92-70.6 41-54.35 57.78-73.19 40.49-14.14 40.49 58.67-121.19 85.12-121.19 85.12z"/><path class="f" d="M895.25 457.2s-103.64 4.75-122.57 70.8S690 575.08 680 599.72s-26 27.82-26 27.82h225.82z"/><path class="i" d="M527.78 379s11.57-86.55 67-38.33-31.53 133.6 59.82 133.6-43.89 72.94 6.05 92.11 42.63 55.91 42.63 55.91l-169.7.2z"/><path class="j" d="M921.7 224.66s-300.4 16.49-277 24.58 190.75-5.93 211.72 7.55-153.29 10.66-114.63 23.74 185.46 7.7 185.46 7.7z"/><path class="k" d="M939.41 232l-260.72 12.65s167.9-6.2 191.94 3.51-3.56 29.78-69.63 32.37h134.68"/><path class="j" d="M426.37 227.51s330.39-8.65 245.65 4.14-141.81 22.08-56.84 40.81-11.4 3.8-87 16.89-74.85 31.93-13.74 43.94-100.44 13-100.44 13z"/><path class="k" d="M414 339.41s88.76 5 79.44 0-51.28-13.72-39.44-32.26 139.26-29.25 139.26-29.25-42.42-16.8-44.33-27.59S623.81 232 623.81 232H417.45"/></g><path class="c" d="M888.09 774.48H414.34v-161.5h473.75z"/><g clip-path="url(#f)"><path class="m" d="M867.66 599.76S755.42 629.28 576 615.45s-261.3 68.76-261.3 68.76"/><path class="m" d="M888.92 603.24S682 639.45 567.32 621.55s-251.07 42.73-247.17 77.31"/><path class="m" d="M909.33 618.29s-221.64 26.56-358.66 9.11-207.92 54-207.92 54"/><path class="m" d="M926.31 630s-341.8 41.59-463.58 38-176.08 76.18-176.08 76.18"/><path class="m" d="M353.66 704.15S645 738.29 800.09 687c70.91-23.41 130.64-17.9 174.52-5"/><path class="m" d="M989.42 706.19s-99-53.87-301.15 20.88-345.52 9.64-345.52 9.64"/><path class="m" d="M971.5 717.79s-94.5-48.57-200.2 7.41-246.23 80.6-246.23 80.6"/><path class="m" d="M971.5 740.3s-101.29-41-152.71 8.62S646.6 847.8 646.6 847.8"/></g><path class="n" d="M414.33 708.58h473.76l-1.76-48.91-472 39.59z"/><path d="M769.15 601.84h-22.23v-10.3h22.22a10.31 10.31 0 0010.3-10.3V577a10.31 10.31 0 00-10.3-10.3h-22.22v-10.3h22.22a20.63 20.63 0 0120.6 20.6v4.19a20.63 20.63 0 01-20.59 20.65z" fill="url(#g)"/><path class="j" d="M702.84 537.12h59.4v75.86h-59.4z"/><path class="p" d="M724.47 612.98h-21.63v-75.86h21.63z"/></g><g clip-path="url(#i)" transform="translate(-146.386 -64.322)"><path class="f" d="M135.23 97.71h752.86v560.3H135.23z"/><path class="g" d="M753.26 107.33s-131.51 67.3-344 40.15-306.09 156.78-306.09 156.78"/><path class="g" d="M778.49 114.6s-243 83.88-379.17 46.52-295 99.09-289.19 175.38"/><path class="g" d="M803.13 147.46S542.3 210.3 379.86 174.37 136.2 297.44 136.2 297.44"/><path class="g" d="M823.61 172.9s-402.22 98.3-546.18 92.62S72.16 437.06 72.16 437.06"/><path class="g" d="M149.89 347.54s345.36 69.86 526.67-46.23c83-53.12 153.65-42.08 205.94-14.48"/><path class="g" d="M900.84 340S782 222.94 545.9 391.8s-407.75 27.83-407.75 27.83"/><path class="g" d="M880.09 365.95S766.74 260.5 643.89 386.1s-288 182.63-288 182.63"/><path class="g" d="M880.88 415.65S759.81 327 700.83 437.56 501 659.14 501 659.14"/><path class="b" d="M164.37 368.42h387.51v289.59H164.37z"/><path class="b" d="M482.74 147h387.51v482.98H482.74z"/><g clip-path="url(#j)"><path class="f" d="M457.14 317.6s13-110.39 75.25-48.89 10.95 171.13 113.56 171.13 23.34 80.32 73.88 117c22.77 16.53 13.79 71.09 13.79 71.09l-270 .22z"/><path class="i" d="M693.95 611s-19.93-61.68 22.92-70.6 41-54.35 57.78-73.19 40.49-14.14 40.49 58.67S693.95 611 693.95 611z"/><path class="f" d="M895.25 462.9s-103.64 4.74-122.57 70.83S690 580.78 680 605.42s-26 27.82-26 27.82h225.82z"/><path class="i" d="M527.78 384.67s11.57-86.55 67-38.33-31.53 133.6 59.82 133.6-43.9 72.93 6.04 92.06 42.63 55.91 42.63 55.91l-169.7.2z"/><path class="j" d="M921.7 230.35s-300.4 16.49-277 24.58 190.75-5.93 211.72 7.55-153.29 10.66-114.63 23.74 185.46 7.7 185.46 7.7z"/><path class="k" d="M939.41 237.67l-260.72 12.67s167.9-6.2 191.94 3.51-3.56 29.78-69.63 32.37h134.68"/><path class="j" d="M426.37 233.21s330.39-8.65 245.65 4.14-141.81 22.08-56.84 40.81-11.4 3.8-87 16.89S453.31 327 514.42 339 414 352 414 352z"/><path class="k" d="M414 345.1s88.76 5 79.44 0-51.28-13.72-39.44-32.26 139.26-29.24 139.26-29.24-42.42-16.8-44.33-27.6 74.89-18.34 74.89-18.34H417.45"/></g><path class="d" d="M888.09 780.18H414.34v-161.5h473.75z"/><g clip-path="url(#l)"><path class="m" d="M867.66 605.46S755.42 635 576 621.14s-261.3 68.77-261.3 68.77"/><path class="m" d="M888.92 608.94S682 645.15 567.32 627.25 316.26 670 320.15 704.56"/><path class="m" d="M909.33 624s-221.64 26.56-358.66 9.11-207.92 54-207.92 54"/><path class="m" d="M926.31 635.66s-341.8 41.59-463.58 38-176.08 76.18-176.08 76.18"/><path class="m" d="M353.66 709.85S645 744 800.09 692.74c70.95-23.45 130.64-17.94 174.52-5.06"/><path class="m" d="M989.42 711.88s-99-53.87-301.15 20.88-345.52 9.64-345.52 9.64"/><path class="m" d="M971.5 723.48s-94.5-48.57-200.2 7.41-246.23 80.6-246.23 80.6"/><path class="m" d="M971.5 746s-101.29-41-152.71 8.62S646.6 853.5 646.6 853.5"/></g><path class="n" d="M888.09 780.18H414.33v-56.05l473.76 37.27z"/><path d="M769.15 607.54h-22.23v-10.3h22.22a10.31 10.31 0 0010.3-10.3v-4.19a10.31 10.31 0 00-10.3-10.3h-22.22v-10.3h22.22a20.63 20.63 0 0120.6 20.6v4.19a20.63 20.63 0 01-20.59 20.6z" fill="url(#m)"/><path class="j" d="M702.84 542.82h59.4v75.86h-59.4z"/><path class="p" d="M724.47 618.68h-21.63v-75.86h21.63z"/></g><g clip-path="url(#o)" transform="translate(-146.386 -64.322)"><path d="M234.08 464.65s-51.48-124.1-39.88-135.7 35.8 11.76 35.8 11.76-16.29-127.28 1.7-145.27S250.93 264 250.93 264s-7.93-96.78 17.54-105.75 0 191.91 0 191.91z" fill="url(#p)"/><path d="M231.64 522s-34.42-51.77-28.58-109.51 34 13.75 34 13.75-65.85-194.15-34.4-211.74 49.46 130.77 49.46 130.77 45.66-117 59.53-16.31c15.09 109.56-37 230.25-37 230.25z" fill="url(#q)"/><path d="M207.75 235.49s54.78 177.5 56.9 258.6m31.85-175.31c-1.24 1.24-34.35 16.57-43.08 93.39m-35.69 24.47S242 472.88 261.6 459.7m-47.06-150.98s7.41 23.66 17.68 13.39m-5.79-67.05s3.84 29.49-6.24 22.91m22.2 84.52s-21 1.92-24.66-21.78m54.44 5.45s-7-24.56 7.63-34.5m6.34 15.34s4.94 7.09 21 3.54m-67.48 128s-7.29-19.65-16-30.69m4.91 21.77s1.26 23.37-12.33 19.27" stroke="#fff" stroke-miterlimit="10" fill="none"/><path fill="#ec7625" d="M201.38 504.85h112.68v147.46H201.38z"/><path transform="rotate(180 117.04 326.155)" fill="url(#r)" d="M0 0h32.7v147.46H0z"/><path class="n" d="M543.08 217.27l-5.38.82-3.9 32.32 8.14 4.65z"/><path class="aa" d="M511 384.39l12.95-14.18s29.11-23 23.06-42.58-13.65-46.94-13.65-46.94-30.09 24.89-36.76 34.16-13.83 56.57-13.83 56.57z"/><path class="j" d="M474.21 362.72l9.9-9.9s31.49.9 36.8 23.31l-10.78 10.78z"/><path class="n" d="M361.62 466.31L474.19 359s37.14 4.37 43.69 24.16l-94.49 131.2zm51.29-298.95s28.29 40.53 1.42 49.82-36-54.82-36-54.82z"/><path d="M418.48 221.8s16.68 17 21.89 33.61-27.45 10.41-27.45 10.41z" fill="url(#s)"/><path class="aa" d="M346.49 171.28c31.68-12.75 67.18 6.9 74.42 40.27 5.14 23.69 11.77 60.51 8.1 78.89-5.68 28.4-47 14.2-47 14.2l4 50.17s-20.35 6.63-57.27 0c0 0-26.51-120.7-13.25-154.78 4.89-12.78 16.78-23.03 31-28.75z"/><path d="M382 304.64l-25.38-9.47s.88 29.71 27.66 38.29z" fill="url(#t)"/><path class="ad" d="M430.07 276.88s-.14 18.13-20.23-1.48"/><path d="M414.33 270.32s-14.2-6.63-7.34 14.2" fill="url(#u)"/><path class="j" d="M322.2 316.5l55.19 1.38a7.94 7.94 0 016.78 4.14l9.37 17.24-79.48 2.13v-17a7.94 7.94 0 018.14-7.89z"/><path class="n" d="M313.3 284s21.14 6.82 39.79-4.7-9.31-51.48 5.16-62.87 18.68 24.21 18.68 24.21 5.91 5.12 10.08-.17-6.58-55.71-6.58-55.71 16.93 7.13 21.22 1.69 3.29-12.33 3.29-12.33 8.32 8.38 17.34 1.18 11-17.76-1.81-27.87-29.93 3.54-29.93 3.54-12-25.37-31.6-7.89c0 0-35.39-23.58-38.45 5.19 0 0-56 17.6-34.53 38.3 0 0-28.65 59.39 5.34 45.21 0 0-18.11 7.95.45 39.33.01-.05 2.25 32.53 21.55 12.89z"/><path class="ad" d="M367.06 226s-20.09-7.69 0 24.36m-3.26-20.58s8 9.38-1.38 12.63"/><path class="af" d="M393.54 339.27l73.51 25.62a31.59 31.59 0 0121 26.37c-8.71 72.67-1.56 108.17 7.13 127.17a128.788 128.788 0 0110.37 31.13c4.58 23.63.93 41.65-.38 51.86-2.51 19.44-1.46 48.32 15.75 88H268.55L251 393.32a31.59 31.59 0 0117.93-30.38l45.15-21.54z"/><path class="n" d="M562.74 192.34L670 188.1a12.9 12.9 0 0113 14.6l-15.24 145.42a16.61 16.61 0 01-16.13 14.6l-106-2.91c-8.06 0-15.12-3.63-14.28-11.69L546.6 202.7c.85-8.07 8.07-10.36 16.14-10.36z"/><path d="M556.94 188.1h107.24a12.9 12.9 0 0113.06 14.6L662 348.12a16.61 16.61 0 01-16.13 14.6H538.58a12.9 12.9 0 01-13.06-14.6L540.8 202.7a16.61 16.61 0 0116.14-14.6z" fill="#d3e1ed"/><path class="j" d="M559.67 192.22h100.41a12.08 12.08 0 0112.23 13.67L660.1 322.11a15.56 15.56 0 01-15.1 13.67H544.58a12.08 12.08 0 01-12.23-13.67l12.21-116.21a15.56 15.56 0 0115.11-13.68z"/><path class="m" d="M566.64 291.92s-14.66 53.3.08 31.5 17.13-24 17.13-24l2.23 24S608.34 284 601.3 295s-16.5 13.25 7.3 11.52 6-21.62 6-21.62l13.22 12.31 13.61-16.3"/><path class="aa" d="M523.92 370.22l31.7-47.47s-14.26-3.6-24.2 6.34-20.17 21.32-20.17 21.32z"/><path d="M633.53 293.67L625 308.14s2.23 5 8.56 3.06 9.43-9.66 9.43-9.66z" fill="url(#v)"/><path d="M635.09 302.38l-5.6 15.86s3.16 4.5 9 1.34 7.37-11.31 7.37-11.31z" fill="url(#w)"/><path class="aa" d="M683.13 291.9l-5.18 16.82-34.85-10.93L654.86 285z"/><path class="aa" d="M678.42 376.13l18-64-7.16-28.2-46.59-6s2.47 9.06 9.78 12.28 24.45 5.24 24.45 5.24l-2.19 17.1L652 300z"/><path class="aj" d="M628.48 271.58l10 2.7a1.48 1.48 0 01.47.22l68.17 48.5a1.47 1.47 0 01.61 1c.36 2.58.93 12.16-10.21 14.45a1.49 1.49 0 01-1.26-.33l-63.78-54.51a1.481 1.481 0 01-.33-.4l-5.33-9.45a1.48 1.48 0 011.66-2.18z"/><ellipse class="n" cx="3.32" cy="1.71" rx="3.32" ry="1.71" transform="rotate(-54.6 672.267 -511.226)"/><path class="aa" d="M667.88 319l10.54 57.1s-31.53-4.27-38.2-22.63 1.64-35.5 1.64-35.5-8.08-22.93-9.68-28.9 7.9-11.75 7.9-11.75z"/><path class="aa" d="M639.16 350.16s2 30.83-1.75 41.79l35.07 8.55 9.18-35.89z"/><path d="M655.25 365.24c-6.33-6.2-11.74-9.13-15.85-10.47.34 7.88.74 24-1.06 33.5l12.73 7 21.41 5.22 6.4-25c-8.11-1.15-17.16-3.92-23.63-10.25z" fill="url(#x)"/><path class="j" d="M632 379l5.67-14.23s28.39 1.88 42.65 16.14l-4.4 13.38-42-14.76z"/><path class="af" d="M482.57 376.66L564 524.57l69.44-155.93s33.46 7 46.9 20.47l-53.61 171.63c-9 50.36-70.9 69.82-107.08 33.64l-61.73-61.73z"/><path class="n" d="M457.92 532.65s-10 31.59 3.84 80.33-90.65 7.25-118.31 76.39h177.47s-22.3-40-13.45-107.18m-80.29-375.24s-16.09 2.3-12.44 7.87 13.7.39 13.7-3.26-1.26-4.61-1.26-4.61z"/><path class="af" d="M600.85 347.76a8 8 0 01-7.79 7.05 6.23 6.23 0 01-6.31-7.05 8 8 0 017.79-7.05 6.23 6.23 0 016.31 7.05z"/><path class="i" d="M567.75 209.15a8 8 0 01-7.79 7.05 6.23 6.23 0 01-6.31-7.05 8 8 0 017.79-7.05 6.23 6.23 0 016.31 7.05z"/><path class="al" d="M578.7 210.59a2.92 2.92 0 01-1-1.23 4 4 0 01-.23-2.09 4.31 4.31 0 011-2.31 3.85 3.85 0 012.16-1.34l.2-1.89h2.66l-.19 1.81q1 .08 2.22.3l-.74 3.22a14 14 0 00-2.69-.46c-.63 0-1 .25-1 .76a.7.7 0 00.39.58 10.183 10.183 0 001 .59 9.341 9.341 0 011.21.75 3 3 0 011 1.24 4 4 0 01.23 2.08 4.46 4.46 0 01-.89 2.28 3.58 3.58 0 01-2 1.32l-.17 1.57h-2.66l.15-1.45a10.3 10.3 0 01-2.34-.52l.54-3a12.239 12.239 0 002.94.62c.56 0 .87-.25.92-.75a.79.79 0 00-.38-.7 7.369 7.369 0 00-1-.64 11.755 11.755 0 01-1.33-.74z"/><path class="aj" d="M606.29 236.65h-54.67l.9-8.5h54.66z"/><path class="al" d="M602.38 217.27H591l1.34-12.75h11.38zm15.87 0h-11.38l1.34-12.75h11.38zm15.36 0h-11.38l1.34-12.75h11.38zm15.35 0h-11.38l1.34-12.75h11.38z"/><path class="aj" d="M645.85 252.88h-95.71l.9-8.51h96.93zm-43.37 18.32h-54.67l.89-8.51h54.67z"/><path class="m" d="M548.58 288.74l1.53-8.47h8.97"/><path class="n" d="M678.42 218.09l7.34 1.68-3.67 31.99-4.77 1.12z"/><path class="m" d="M453.62 372.16s-37.37 77.2-6.79 132.69m-12.03-60.72S552 586.95 575.59 581.85s83.94-184.51 83.94-184.51m-35.4-7.85s34-1.61 49.8 20.07"/></g></svg>