<svg xmlns="http://www.w3.org/2000/svg" xmlns:xlink="http://www.w3.org/1999/xlink" width="563.538" height="455.64"><defs><linearGradient id="r" x1=".28" y1=".107" x2=".904" y2=".871" xlink:href="#j"/><linearGradient id="n" x1="1.001" y1=".5" x2="0" y2=".5" gradientUnits="objectBoundingBox"><stop offset="0" stop-color="#ec7625"/><stop offset="1" stop-color="#fcb07c"/></linearGradient><linearGradient id="b" x1="13.628" y1=".1" x2="13.628" y2="1.172" gradientUnits="objectBoundingBox"><stop offset="0" stop-color="#1b6775"/><stop offset="1" stop-color="#adc2da"/></linearGradient><linearGradient id="c" x1="13.111" y1="1.155" x2="12.428" y2="-.021" gradientUnits="objectBoundingBox"><stop offset="0" stop-color="#1b6775"/><stop offset="1" stop-color="#d3e1ed"/></linearGradient><linearGradient id="d" x1="36.678" y1=".1" x2="36.678" y2="1.172" gradientUnits="objectBoundingBox"><stop offset="0" stop-color="#d16720"/><stop offset="1" stop-color="#2a425e"/></linearGradient><linearGradient id="p" x1="-.252" y1="-.503" x2=".356" y2=".525" xlink:href="#n"/><linearGradient id="o" x1="-.134" y1=".057" x2=".931" y2=".801" xlink:href="#n"/><linearGradient id="j" x1=".177" y1="1.389" x2=".402" y2=".752" gradientUnits="objectBoundingBox"><stop offset="0" stop-color="#5e3417"/><stop offset="1"/></linearGradient><linearGradient id="k" x1="1" y1=".5" x2="0" y2=".5" xlink:href="#b"/><linearGradient id="m" x1=".138" y1=".053" x2=".834" y2="1.468" xlink:href="#b"/><clipPath id="l"><path class="b" d="M312.5 432.262l-38.425 10.895c-11.621 3.3-20.651 13.1-23.6 25.592-10.028 28.345-9.544 49.753-6.952 64.524 2.65 15.013 7.613 23.735 3.575 37.522-3.766 12.884-11.475 16.8-13.45 32.559-1.233 9.8 1.189 12.723-1.248 19.484-3.759 10.41-14.132 16.313-22.8 19.741h156.678A419.407 419.407 0 01386.1 467.464a23.081 23.081 0 00-2.43-13.317 21.1 21.1 0 00-9.265-9.243L349 432.24z" transform="translate(-209.605 -432.24)"/></clipPath><clipPath id="a"><path class="a" d="M641.411 239.09s118.33 201.222-95.011 267.045-404.4 24.029-432.837-20.079 156.5-125.825 189.483-264.8S558.453 97.114 641.411 239.09z" transform="translate(-110.601 -124.462)"/></clipPath><clipPath id="i"><path class="a" d="M641.411 224.69S759.74 425.912 546.4 491.736 142 515.765 113.563 471.657C95.3 443.333 165.046 399.5 226.024 334.944c33.976-35.973-71.351-238.12 61.059-264.13 38.572-7.576 48.454 71.212 79.376 55.692 81.424-40.833 214.825-4.713 274.952 98.184z" transform="translate(-110.601 -70.299)"/></clipPath><clipPath id="e"><path class="a" d="M745.122 200.591c31.451 2.349 52.278 33.7 43.175 63.871-9.6 31.818-31.612 73.884-82.121 101.312-78.694 42.719-61.36-172.674 38.946-165.183z" transform="translate(-656.871 -200.399)"/></clipPath><clipPath id="q"><path class="b" d="M483.087 460L425.9 537.577l-51.647-58.313s-20.395 2.254-23.838 14.764c0 0 49.768 93.8 75.727 93.8s80.864-63.228 80.864-63.228z" transform="translate(-350.42 -460)"/></clipPath><style>.a,.e,.k{fill:none}.b{fill:#adc2da}.d{fill:#ffecb8}.e{stroke:#f9d780}.e,.k{stroke-miterlimit:10}.f{fill:#ec7625}.g{fill:#ffc709}.h{fill:#f9d780}.i{fill:url(#b)}.j{fill:url(#c)}.k{stroke:#fff}.l{fill:url(#d)}.p{fill:#2a425e}.r{fill:#fff}.s{fill:#91b3ce}.u{fill:#fcb07c}</style></defs><g transform="translate(0 39.764)" clip-path="url(#a)"><path class="d" d="M-68.311-60.202h656.296v496.627H-68.311z"/><path class="e" d="M481.314 399.578s-122.088-53.49-317.29-28.441c-118.932 15.278-198.476-34.35-242.444-75.44"/><path class="e" d="M504.44 393.28s-225.03-65.625-349.813-33.154C70.567 381.981-24.167 339.26-75.755 289.89"/><path class="e" d="M526.64 365.999s-241.086-48.131-390.132-16.511C20.396 374.118-52.064 301.034-78.42 267.535m623.539 77.321s-371.801-75.37-504.262-68.812c-49.922 2.474-89.434-16.533-119.277-41.178m.632-24.447s316.96-61.859 485.615 31c77.173 42.5 142.1 32.508 189.828 9.169"/><path class="e" d="M613.768 206.734s-107.67 97.641-327.575-37.83-375.845-17.466-375.845-17.466"/><path class="e" d="M594.277 185.715s-102.78 88.009-217.777-13.428S108.655 26.229 108.655 26.229"/><path class="e" d="M594.277 144.926s-110.18 74.34-166.115-15.615S240.867-49.857 240.867-49.857"/><path class="f" d="M501.437 152.135v99.044H365.473v-99.044z"/><path class="g" d="M503.698 152.135v99.044H367.734v-99.044z"/><path class="d" d="M498.75 156.401v90.505H372.69v-90.505z"/><path class="h" d="M279.33 412.756s36.032-67.042-41.435-76.747-74.149-59.077-104.454-79.559-98.779-28.323-98.779 50.818S279.33 412.756 279.33 412.756z"/><path class="g" d="M-84.594 251.759s187.368 5.139 221.594 76.99 149.536 51.133 167.554 77.92 46.912 30.239 46.912 30.239H-56.718z"/><path class="f" d="M365.437 58.59h61.448v84.353h-61.448z"/><path class="g" d="M367.61 58.59h61.448v84.353H367.61z"/><path class="d" d="M371.464 62.863h53.754v75.808h-53.754z"/><path class="i" d="M108.75 299.346s-37.794-91.107-29.278-99.623 26.268 8.634 26.268 8.634-11.959-93.435 1.248-106.649 14.14 50.333 14.14 50.333-5.829-71.051 12.877-77.636 0 140.89 0 140.89z"/><path class="j" d="M106.959 341.438s-25.262-38.007-20.982-80.418 24.961 10.094 24.961 10.094S62.595 128.58 85.683 115.666s36.34 96.034 36.34 96.034 33.521-85.895 43.7-11.974c11.078 80.433-27.163 169.037-27.163 169.037z"/><path class="k" d="M89.421 131.073s40.216 130.311 41.773 189.85m23.389-128.667c-.91.91-25.218 12.165-31.627 68.562m-26.209 17.965s17.81 26.605 32.207 16.929M94.413 184.871s5.44 17.37 12.98 9.83m-4.251-49.224s2.817 21.65-4.583 16.819m16.292 62.013s-15.417 1.41-18.1-15.99m39.957 4.038s-5.139-18.031 5.6-25.328m4.677 11.299s3.627 5.205 15.417 2.6m-49.548 93.932s-5.352-14.426-11.746-22.531m3.603 15.975s.925 17.157-9.052 14.147"/><path class="f" d="M84.744 328.859h82.723v108.257H84.744z"/><path class="l" d="M84.744 328.859h24.007v108.257H84.744z"/></g><g transform="translate(28.921 95.513)" clip-path="url(#e)"><path class="d" d="M-97.231-115.95h656.296v496.627H-97.231z"/><path class="e" d="M452.394 343.829s-122.088-53.49-317.29-28.441c-118.932 15.278-198.476-34.35-242.444-75.44"/><path class="e" d="M475.519 337.531s-225.03-65.625-349.813-33.154c-84.06 21.855-178.794-20.866-230.382-70.236"/><path class="e" d="M497.72 310.251S256.634 262.12 107.588 293.74C-8.524 318.37-80.984 245.286-107.34 211.787m623.539 77.32s-371.801-75.37-504.262-68.812c-49.922 2.474-89.434-16.533-119.277-41.178m.631-24.447s316.96-61.859 485.615 31c77.173 42.5 142.1 32.508 189.828 9.169"/><path class="e" d="M584.847 150.985s-107.67 97.641-327.575-37.83-375.845-17.466-375.845-17.466"/><path class="e" d="M565.356 129.967s-102.78 88.009-217.777-13.428S79.734-29.519 79.734-29.519"/><path class="e" d="M565.356 89.177s-110.18 74.34-166.115-15.615-187.295-179.168-187.295-179.168"/><path class="f" d="M472.517 96.386v99.044H336.553V96.386z"/><path class="g" d="M474.778 96.386v99.044H338.814V96.386z"/><path class="d" d="M469.83 100.652v90.505H343.77v-90.505z"/><path class="f" d="M336.516 2.842h61.448v84.353h-61.448z"/><path class="g" d="M338.689 2.842h61.448v84.353h-61.448z"/><path class="h" d="M342.544 7.114h53.754v75.808h-53.754z"/><path class="i" d="M79.83 243.597s-37.794-91.107-29.278-99.623 26.268 8.634 26.268 8.634-11.959-93.435 1.248-106.649 14.14 50.333 14.14 50.333-5.829-71.051 12.877-77.636 0 140.89 0 140.89z"/><path class="j" d="M78.039 285.689s-25.262-38.007-20.982-80.418 24.961 10.094 24.961 10.094S33.675 72.831 56.763 59.917s36.34 96.034 36.34 96.034 33.521-85.895 43.7-11.974c11.078 80.433-27.163 169.037-27.163 169.037z"/><path class="k" d="M60.5 75.324s40.216 130.311 41.773 189.85m23.389-128.667c-.91.91-25.218 12.165-31.627 68.562m-26.208 17.965s17.81 26.605 32.207 16.929M65.492 129.122s5.44 17.37 12.98 9.83m-4.251-49.224s2.817 21.65-4.583 16.819m16.293 62.013s-15.417 1.41-18.1-15.99m39.956 4.038s-5.139-18.031 5.6-25.328m4.677 11.299s3.627 5.205 15.417 2.6m-49.548 93.933s-5.352-14.426-11.746-22.531m3.604 15.975s.925 17.157-9.052 14.147"/><path class="f" d="M55.823 273.11h82.723v108.257H55.823z"/><path class="l" d="M55.823 273.11H79.83v108.257H55.823z"/></g><g transform="translate(.001)" clip-path="url(#i)"><path d="M284.223 281s-30.555 25.974-5.594 50.957c0 0-9.8 52.3 11.24 44.9 0 0-20.806 21.18 17.737 24.513s20.556-86.754 20.556-86.754z" transform="translate(115.028 -126.315)" fill="url(#j)"/><path class="p" d="M245.224 295.414H351.98a6.027 6.027 0 006.093-6.681l-6.079-69.48a7.437 7.437 0 00-7.268-6.681H237.974a6.027 6.027 0 00-6.093 6.681l6.079 69.479a7.437 7.437 0 007.268 6.681z"/><path d="M248.744 295.414h106.737a6.027 6.027 0 006.093-6.681l-6.093-69.479a7.437 7.437 0 00-7.268-6.681H241.49a6.027 6.027 0 00-6.093 6.681l6.079 69.479a7.437 7.437 0 007.268 6.681z" fill="#d3e1ed"/><path class="r" d="M264.447 293.438h88.031a6.027 6.027 0 006.093-6.681l-5.733-65.559a7.437 7.437 0 00-7.268-6.681h-88a6.027 6.027 0 00-6.093 6.681l5.734 65.559a7.437 7.437 0 007.236 6.681z"/><path class="s" d="M242.071 253.993a5.139 5.139 0 005.007 4.61 4.155 4.155 0 004.207-4.61 5.139 5.139 0 00-5.007-4.61 4.155 4.155 0 00-4.207 4.61z"/><path class="r" d="M316.684 278.565h10.924l-.22-2.144h-10.934zm3.434 4.39h7.951l-.22-2.144h-7.959zm-6.27-31.333h10.931l-.228-2.151h-10.923zm3.443 4.39h7.943l-.22-2.151h-7.951zm-59.032-17.509h10.922l-.228-2.151h-10.922zm3.436 4.39h7.952l-.228-2.151h-7.952zm80.33 22.326h10.922l-.22-2.144h-10.93zm3.435 4.39h7.951l-.228-2.144h-7.943z"/><path d="M340.842 244.868a2.3 2.3 0 002.2 2.019 1.784 1.784 0 001.813-2.019 2.3 2.3 0 00-2.2-2.019 1.784 1.784 0 00-1.813 2.019z" fill="#1b6775"/><path class="u" d="M369.65 267.743s-10.88-18.992-15.079-22.582-39.247-9.1-39.247-9.1-2.158 2.1 1.189 4.956 16.628 5.315 16.628 5.315-6.673 11.291-2.878 18.963 18.941 4.339 18.941 4.339l7.562 8.164zm-114.124 43.55s-8.846-15.5-8.846-19.866 5.873-20.461 1.336-32.178-4.559-10.924-4.559-10.924-4.765.2-2.386 14.1-4.522 10.322-4.522 10.322l-2.767-27.321s-8.81.514-14.169 23.955 20.263 52.245 20.263 52.245z"/><path d="M387.56 477.668l-31.679-50.458s-16.687 0-23.441 13.1l27.545 69.538z" transform="translate(13.116 -165.185)" fill="url(#k)"/><path class="b" d="M417.096 265.739l-38.425 10.895c-11.621 3.3-20.651 13.1-23.6 25.592-10.028 28.345-9.544 49.753-6.952 64.524 2.65 15.013 7.613 23.735 3.575 37.522-3.766 12.884-11.475 16.8-13.45 32.559-1.233 9.8 1.189 12.723-1.248 19.484-3.759 10.41-14.132 16.313-22.8 19.741h156.678a419.407 419.407 0 0119.822-175.115 23.081 23.081 0 00-2.43-13.317 21.1 21.1 0 00-9.265-9.243l-25.405-12.664z"/><g transform="translate(314.2 265.717)" clip-path="url(#l)"><circle class="s" cx="9.867" cy="9.867" transform="rotate(-104.12 36.584 -99.216)" r="9.867"/><circle class="s" cx="9.867" cy="9.867" transform="rotate(-104.12 21.193 -79.476)" r="9.867"/><circle class="s" cx="9.867" cy="9.867" transform="rotate(-104.12 5.804 -59.732)" r="9.867"/><circle class="s" cx="9.867" cy="9.867" transform="rotate(-104.12 -9.585 -39.994)" r="9.867"/><circle class="s" cx="9.867" cy="9.867" transform="rotate(-104.12 -24.976 -20.255)" r="9.867"/><circle class="s" cx="9.867" cy="9.867" transform="rotate(-104.12 -40.364 -.51)" r="9.867"/><circle class="s" cx="9.867" cy="9.867" transform="rotate(-104.12 -55.753 19.227)" r="9.867"/><circle class="s" cx="9.867" cy="9.867" transform="rotate(-104.12 -71.144 38.967)" r="9.867"/><circle class="s" cx="9.867" cy="9.867" transform="rotate(-104.12 56.812 -83.448)" r="9.867"/><circle class="s" cx="9.867" cy="9.867" transform="rotate(-104.12 41.424 -63.71)" r="9.867"/><circle class="s" cx="9.867" cy="9.867" transform="rotate(-104.12 26.032 -43.97)" r="9.867"/><circle class="s" cx="9.867" cy="9.867" transform="rotate(-104.12 10.643 -24.226)" r="9.867"/><circle class="s" cx="9.867" cy="9.867" transform="rotate(-104.12 -4.745 -4.488)" r="9.867"/><circle class="s" cx="9.867" cy="9.867" transform="rotate(-104.12 -20.137 15.252)" r="9.867"/><circle class="s" cx="9.867" cy="9.867" transform="rotate(-104.12 -35.522 34.992)" r="9.867"/><circle class="s" cx="9.867" cy="9.867" transform="rotate(-104.12 -50.914 54.733)" r="9.867"/><circle class="s" cx="9.867" cy="9.867" transform="rotate(-104.12 76.798 -67.868)" r="9.867"/><circle class="s" cx="9.867" cy="9.867" transform="rotate(-104.12 61.41 -48.125)" r="9.867"/><circle class="s" cx="9.867" cy="9.867" transform="rotate(-104.12 46.018 -28.39)" r="9.867"/><circle class="s" cx="9.867" cy="9.867" transform="rotate(-104.12 30.63 -8.647)" r="9.867"/><circle class="s" cx="9.867" cy="9.867" transform="rotate(-104.12 15.238 11.093)" r="9.867"/><circle class="s" cx="9.867" cy="9.867" transform="rotate(-104.12 -.15 30.83)" r="9.867"/><circle class="s" cx="9.867" cy="9.867" transform="rotate(-104.12 -15.54 50.575)" r="9.867"/><circle class="s" cx="9.867" cy="9.867" transform="rotate(-104.12 -30.927 70.312)" r="9.867"/><circle class="s" cx="9.867" cy="9.867" transform="rotate(-104.12 97.02 -52.1)" r="9.867"/><circle class="s" cx="9.867" cy="9.867" transform="rotate(-104.12 81.634 -32.359)" r="9.867"/><circle class="s" cx="9.867" cy="9.867" transform="rotate(-104.12 66.246 -12.615)" r="9.867"/><circle class="s" cx="9.867" cy="9.867" transform="rotate(-104.12 50.854 7.12)" r="9.867"/><circle class="s" cx="9.867" cy="9.867" transform="rotate(-104.12 35.466 26.862)" r="9.867"/><circle class="s" cx="9.867" cy="9.867" transform="rotate(-104.12 20.077 46.606)" r="9.867"/><circle class="s" cx="9.867" cy="9.867" transform="rotate(-104.12 4.686 66.34)" r="9.867"/><circle class="s" cx="9.867" cy="9.867" transform="rotate(-104.12 -10.703 86.084)" r="9.867"/><circle class="s" cx="9.867" cy="9.867" transform="rotate(-104.12 116.994 -36.527)" r="9.867"/><circle class="s" cx="9.867" cy="9.867" transform="rotate(-104.12 101.604 -16.789)" r="9.867"/><circle class="s" cx="9.867" cy="9.867" transform="rotate(-104.12 86.216 2.955)" r="9.867"/><circle class="s" cx="9.867" cy="9.867" transform="rotate(-104.12 70.828 22.692)" r="9.867"/><circle class="s" cx="9.867" cy="9.867" transform="rotate(-104.12 55.436 42.432)" r="9.867"/><circle class="s" cx="9.867" cy="9.867" transform="rotate(-104.12 40.048 62.176)" r="9.867"/><circle class="s" cx="9.867" cy="9.867" transform="rotate(-104.12 24.66 81.913)" r="9.867"/><circle class="s" cx="9.867" cy="9.867" transform="rotate(-104.12 9.268 101.654)" r="9.867"/><circle class="s" cx="9.867" cy="9.867" transform="rotate(-104.12 137.221 -20.757)" r="9.867"/><circle class="s" cx="9.867" cy="9.867" transform="rotate(-104.12 121.83 -1.017)" r="9.867"/><circle class="s" cx="9.867" cy="9.867" transform="rotate(-104.12 106.441 18.72)" r="9.867"/><circle class="s" cx="9.867" cy="9.867" transform="rotate(-104.12 91.052 38.464)" r="9.867"/><circle class="s" cx="9.867" cy="9.867" transform="rotate(-104.12 75.665 58.2)" r="9.867"/><circle class="s" cx="9.867" cy="9.867" transform="rotate(-104.12 60.273 77.942)" r="9.867"/><circle class="s" cx="9.867" cy="9.867" transform="rotate(-104.12 44.884 97.686)" r="9.867"/><circle class="s" cx="9.867" cy="9.867" transform="rotate(-104.12 29.496 117.422)" r="9.867"/><circle class="s" cx="9.867" cy="9.867" transform="rotate(-104.12 157.204 -5.182)" r="9.867"/><circle class="s" cx="9.867" cy="9.867" transform="rotate(-104.12 141.816 14.562)" r="9.867"/><circle class="s" cx="9.867" cy="9.867" transform="rotate(-104.12 126.427 34.306)" r="9.867"/><circle class="s" cx="9.867" cy="9.867" transform="rotate(-104.12 111.036 54.04)" r="9.867"/><circle class="s" cx="9.867" cy="9.867" transform="rotate(-104.12 95.647 73.784)" r="9.867"/><circle class="s" cx="9.867" cy="9.867" transform="rotate(-104.12 80.262 93.524)" r="9.867"/><circle class="s" cx="9.867" cy="9.867" transform="rotate(-104.12 64.867 113.261)" r="9.867"/><circle class="s" cx="9.867" cy="9.867" transform="rotate(-104.12 49.478 133.005)" r="9.867"/><circle class="s" cx="9.867" cy="9.867" transform="rotate(-104.12 177.435 10.59)" r="9.867"/><circle class="s" cx="9.867" cy="9.867" transform="rotate(-104.12 162.043 30.325)" r="9.867"/><circle class="s" cx="9.867" cy="9.867" transform="rotate(-104.12 146.655 50.068)" r="9.867"/><circle class="s" cx="9.867" cy="9.867" transform="rotate(-104.12 131.267 69.812)" r="9.867"/><circle class="s" cx="9.867" cy="9.867" transform="rotate(-104.12 115.875 89.546)" r="9.867"/><circle class="s" cx="9.867" cy="9.867" transform="rotate(-104.12 100.486 109.29)" r="9.867"/><circle class="s" cx="9.867" cy="9.867" transform="rotate(-104.12 85.101 129.03)" r="9.867"/><circle class="s" cx="9.867" cy="9.867" transform="rotate(-104.12 69.706 148.767)" r="9.867"/></g><path d="M398.147 647.288c10.351 6.982 20.24 11.93 23.7 22.524H341.97c8.663-3.428 19.044-9.331 22.8-19.741 2.437-6.754 0-9.683 1.248-19.484 1.982-15.763 9.682-19.687 13.452-32.56 4.03-13.787-.925-22.509-3.575-37.522a105.648 105.648 0 01-1.593-17.84l23.838-7.995s16.291 35.143 5.961 58.981-23.038 42.118-5.954 53.637z" transform="translate(-28.166 -193.754)" fill="url(#m)"/><path d="M348.472 329.67s-4.588 15.2-9.632 20.248c0 0 5.873 5.55 12.128 3.362s-2.496-23.61-2.496-23.61z" transform="translate(42.754 -139.254)" fill="url(#n)"/><path class="u" d="M445.127 147.623c-21.657-8.714-45.935 4.721-50.884 27.538-3.517 16.2-8.076 41.369-5.535 53.938 3.884 19.418 32.163 9.705 32.163 9.705l-2.716 34.309s13.949 4.53 39.159 0c0 0 18.126-82.525 9.059-105.827-3.393-8.739-11.525-15.75-21.246-19.663z"/><path d="M282.864 393.235l17.348-6.475s-.6 20.314-18.912 26.18z" transform="translate(138.008 -154.431)" fill="url(#o)"/><path class="f" d="M398.619 216.53s9.705-4.53 5.014 9.705"/><path d="M388.099 224.51s7.562 1.806 11.152-4.06" stroke="#ec7625" stroke-miterlimit="10" fill="none"/><ellipse class="p" cx="1.901" cy="3.964" rx="1.901" ry="3.964" transform="translate(392.996 187.715)"/><path d="M319.28 360.39s3.568-35.467 19.323-8.626" transform="translate(71.734 -142.458)" fill="url(#p)"/><path class="b" d="M363.557 286.097l-57.187 77.577-51.647-58.313s-20.395 2.254-23.838 14.764c0 0 49.768 93.8 75.727 93.8s80.864-63.228 80.864-63.228z"/><g transform="translate(230.89 286.097)" clip-path="url(#q)"><circle class="s" cx="9.867" cy="9.867" transform="rotate(-104.12 70.295 -141.88)" r="9.867"/><circle class="s" cx="9.867" cy="9.867" transform="rotate(-104.12 54.904 -122.14)" r="9.867"/><circle class="s" cx="9.867" cy="9.867" transform="rotate(-104.12 39.515 -102.396)" r="9.867"/><circle class="s" cx="9.867" cy="9.867" transform="rotate(-104.12 24.127 -82.659)" r="9.867"/><circle class="s" cx="9.867" cy="9.867" transform="rotate(-104.12 8.735 -62.919)" r="9.867"/><circle class="s" cx="9.867" cy="9.867" transform="rotate(-104.12 -6.653 -43.175)" r="9.867"/><circle class="s" cx="9.867" cy="9.867" transform="rotate(-104.12 -22.042 -23.437)" r="9.867"/><circle class="s" cx="9.867" cy="9.867" transform="rotate(-104.12 -37.433 -3.698)" r="9.867"/><circle class="s" cx="9.867" cy="9.867" transform="rotate(-104.12 90.524 -126.112)" r="9.867"/><circle class="s" cx="9.867" cy="9.867" transform="rotate(-104.12 75.135 -106.374)" r="9.867"/><circle class="s" cx="9.867" cy="9.867" transform="rotate(-104.12 59.743 -86.635)" r="9.867"/><circle class="s" cx="9.867" cy="9.867" transform="rotate(-104.12 44.354 -66.891)" r="9.867"/><circle class="s" cx="9.867" cy="9.867" transform="rotate(-104.12 28.966 -47.153)" r="9.867"/><circle class="s" cx="9.867" cy="9.867" transform="rotate(-104.12 13.575 -27.413)" r="9.867"/><circle class="s" cx="9.867" cy="9.867" transform="rotate(-104.12 -1.81 -7.672)" r="9.867"/><circle class="s" cx="9.867" cy="9.867" transform="rotate(-104.12 -17.202 12.069)" r="9.867"/><circle class="s" cx="9.867" cy="9.867" transform="rotate(-104.12 110.51 -110.533)" r="9.867"/><circle class="s" cx="9.867" cy="9.867" transform="rotate(-104.12 95.12 -90.79)" r="9.867"/><circle class="s" cx="9.867" cy="9.867" transform="rotate(-104.12 79.73 -71.055)" r="9.867"/><circle class="s" cx="9.867" cy="9.867" transform="rotate(-104.12 64.34 -51.311)" r="9.867"/><circle class="s" cx="9.867" cy="9.867" transform="rotate(-104.12 48.95 -31.571)" r="9.867"/><circle class="s" cx="9.867" cy="9.867" transform="rotate(-104.12 33.56 -11.834)" r="9.867"/><circle class="s" cx="9.867" cy="9.867" transform="rotate(-104.12 18.172 7.91)" r="9.867"/><circle class="s" cx="9.867" cy="9.867" transform="rotate(-104.12 2.784 27.647)" r="9.867"/><circle class="s" cx="9.867" cy="9.867" transform="rotate(-104.12 130.73 -94.764)" r="9.867"/><circle class="s" cx="9.867" cy="9.867" transform="rotate(-104.12 115.345 -75.023)" r="9.867"/><circle class="s" cx="9.867" cy="9.867" transform="rotate(-104.12 99.957 -55.28)" r="9.867"/><circle class="s" cx="9.867" cy="9.867" transform="rotate(-104.12 84.566 -35.545)" r="9.867"/><circle class="s" cx="9.867" cy="9.867" transform="rotate(-104.12 69.177 -15.802)" r="9.867"/><circle class="s" cx="9.867" cy="9.867" transform="rotate(-104.12 53.788 3.942)" r="9.867"/><circle class="s" cx="9.867" cy="9.867" transform="rotate(-104.12 38.397 23.676)" r="9.867"/><circle class="s" cx="9.867" cy="9.867" transform="rotate(-104.12 23.008 43.42)" r="9.867"/><circle class="s" cx="9.867" cy="9.867" transform="rotate(-104.12 150.704 -79.191)" r="9.867"/><circle class="s" cx="9.867" cy="9.867" transform="rotate(-104.12 135.316 -59.454)" r="9.867"/><circle class="s" cx="9.867" cy="9.867" transform="rotate(-104.12 119.927 -39.71)" r="9.867"/><circle class="s" cx="9.867" cy="9.867" transform="rotate(-104.12 104.54 -19.973)" r="9.867"/><circle class="s" cx="9.867" cy="9.867" transform="rotate(-104.12 89.147 -.232)" r="9.867"/><circle class="s" cx="9.867" cy="9.867" transform="rotate(-104.12 73.76 19.511)" r="9.867"/><circle class="s" cx="9.867" cy="9.867" transform="rotate(-104.12 58.371 39.249)" r="9.867"/><circle class="s" cx="9.867" cy="9.867" transform="rotate(-104.12 42.979 58.989)" r="9.867"/><circle class="s" cx="9.867" cy="9.867" transform="rotate(-104.12 170.933 -63.422)" r="9.867"/><circle class="s" cx="9.867" cy="9.867" transform="rotate(-104.12 155.54 -43.682)" r="9.867"/><circle class="s" cx="9.867" cy="9.867" transform="rotate(-104.12 140.153 -23.944)" r="9.867"/><circle class="s" cx="9.867" cy="9.867" transform="rotate(-104.12 124.764 -4.2)" r="9.867"/><circle class="s" cx="9.867" cy="9.867" transform="rotate(-104.12 109.376 15.537)" r="9.867"/><circle class="s" cx="9.867" cy="9.867" transform="rotate(-104.12 93.984 35.278)" r="9.867"/><circle class="s" cx="9.867" cy="9.867" transform="rotate(-104.12 78.595 55.021)" r="9.867"/><circle class="s" cx="9.867" cy="9.867" transform="rotate(-104.12 63.207 74.758)" r="9.867"/><circle class="s" cx="9.867" cy="9.867" transform="rotate(-104.12 190.916 -47.846)" r="9.867"/><circle class="s" cx="9.867" cy="9.867" transform="rotate(-104.12 175.527 -28.102)" r="9.867"/><circle class="s" cx="9.867" cy="9.867" transform="rotate(-104.12 160.138 -8.359)" r="9.867"/><circle class="s" cx="9.867" cy="9.867" transform="rotate(-104.12 144.747 11.375)" r="9.867"/><circle class="s" cx="9.867" cy="9.867" transform="rotate(-104.12 129.359 31.12)" r="9.867"/><circle class="s" cx="9.867" cy="9.867" transform="rotate(-104.12 113.973 50.86)" r="9.867"/><circle class="s" cx="9.867" cy="9.867" transform="rotate(-104.12 98.578 70.597)" r="9.867"/><circle class="s" cx="9.867" cy="9.867" transform="rotate(-104.12 83.19 90.34)" r="9.867"/><circle class="s" cx="9.867" cy="9.867" transform="rotate(-104.12 211.146 -32.074)" r="9.867"/><circle class="s" cx="9.867" cy="9.867" transform="rotate(-104.12 195.755 -12.34)" r="9.867"/><circle class="s" cx="9.867" cy="9.867" transform="rotate(-104.12 180.366 7.403)" r="9.867"/><circle class="s" cx="9.867" cy="9.867" transform="rotate(-104.12 164.978 27.147)" r="9.867"/><circle class="s" cx="9.867" cy="9.867" transform="rotate(-104.12 149.586 46.882)" r="9.867"/><circle class="s" cx="9.867" cy="9.867" transform="rotate(-104.12 134.197 66.625)" r="9.867"/><circle class="s" cx="9.867" cy="9.867" transform="rotate(-104.12 118.813 86.366)" r="9.867"/><circle class="s" cx="9.867" cy="9.867" transform="rotate(-104.12 103.417 106.103)" r="9.867"/></g><path d="M189.727 259.969s-22.553 16.438-9.127 26.431a27.31 27.31 0 007.283 3.854 38.616 38.616 0 0124.572 26.07c1.806 6.446 5.352 11.078 12.069 9.368 0 0-21.966 47.2 2.349 52s7.04 31.671 32.838 31.671 50.142-11.269 35.43-34.762c0 0 20.475-37.985-10.8-46.192 0 0 13.215-39.218-6.644-41.443 0 0 1.967-45.7-30.885-35.577 0 0-32.838-18.765-38.315 2.349.003-.031-18.77-9.149-18.77 6.231z" transform="translate(213.555 -116.399)" fill="url(#r)"/><path d="M390.25 185.378l12.216 8.949s-7.796-19.321-12.216-8.949z" fill="#5e3417"/></g><path class="u" d="M433.059 211.949l5.264-23s25.203 7.95-5.264 23z"/></svg>