<svg xmlns="http://www.w3.org/2000/svg" xmlns:xlink="http://www.w3.org/1999/xlink" width="652.857" height="450.907"><defs><linearGradient id="p" x1="0" y1=".5" x2="1" y2=".5" xlink:href="#i"/><linearGradient id="a" x1=".5" y1="-1.377" x2=".5" y2="1.309" gradientUnits="objectBoundingBox"><stop offset="0" stop-color="#1b6775"/><stop offset="1" stop-color="#d3e1ed"/></linearGradient><linearGradient id="o" x1=".5" y1=".18" x2=".5" y2="1.529" xlink:href="#d"/><linearGradient id="n" x1=".281" y1=".869" x2="1.144" y2="-.584" xlink:href="#a"/><linearGradient id="d" y1=".5" x2="1" y2=".5" gradientUnits="objectBoundingBox"><stop offset="0" stop-color="#1b6775"/><stop offset="1" stop-color="#adc2da"/></linearGradient><linearGradient id="e" x1="1.296" y1="1.393" x2=".206" y2=".169" xlink:href="#a"/><linearGradient id="m" x1=".88" y1="-.22" x2=".358" y2=".605" xlink:href="#i"/><linearGradient id="h" x1=".494" y1=".027" x2=".494" y2="1.025" gradientUnits="objectBoundingBox"><stop offset="0" stop-color="#d16720"/><stop offset="1" stop-color="#2a425e"/></linearGradient><linearGradient id="i" y1=".5" x2="1" y2=".5" gradientUnits="objectBoundingBox"><stop offset="0" stop-color="#ec7625"/><stop offset="1" stop-color="#fcb07c"/></linearGradient><linearGradient id="j" x1=".857" y1=".738" x2="-.297" y2="-.032" xlink:href="#a"/><linearGradient id="k" x1="27.427" y1="1.335" x2="27.786" y2="1.994" xlink:href="#i"/><linearGradient id="l" x1="-.738" y1="2.084" x2=".577" y2=".653" xlink:href="#i"/><clipPath id="g"><path class="c" d="M0 0h400.066v102.85H0z"/></clipPath><clipPath id="c"><path d="M325.12 276.611a196.184 196.184 0 0085.7-31.643c62.433-41.636 183.069-107.053 239.832-36.23 78.489 97.93 143.744 325.679-28.138 377.078-118.948 35.565-458.227 43.964-491.4-134.3C106.733 320.3 248.584 285.709 325.12 276.611z" transform="translate(-128.337 -177.357)" fill="none"/></clipPath><clipPath id="b"><path class="a" d="M282.816 216.7c-12.62 21.76 5.866 48.423 30.7 44.433 29.707-4.775 75.573-14.351 99.447-30.543 37.125-25.171 53.326-71.215-16.2-78.446-44.301-4.634-94.363 30.795-113.947 64.556z" transform="translate(-278.739 -151.738)"/></clipPath><style>.a{fill:#ffecb8}.e,.m{fill:none}.c{fill:url(#a)}.e{stroke:#f9d780}.e,.m{stroke-miterlimit:10}.g{fill:#2a425e}.h{fill:#adc2da}.j{fill:#fcb07c}.m{stroke:#2a425e}.n{fill:#ec7625}.p{fill:#fff}.t{fill:#5e3417}.y{fill:#f9d780}.z{fill:#d3e1ed}</style></defs><g transform="translate(-119.342 -151.738)"><path class="a" d="M323.795 272.837a196.184 196.184 0 0085.7-31.643c62.433-41.636 183.069-107.053 239.832-36.23 78.489 97.93 143.744 325.679-28.138 377.078-118.948 35.565-458.227 43.964-491.4-134.3-24.381-131.216 117.47-165.807 194.006-174.905z"/><path class="a" d="M259.333 216.7c-12.62 21.76 5.866 48.423 30.7 44.433 29.707-4.775 75.573-14.351 99.447-30.543 37.125-25.171 53.326-71.215-16.2-78.446-44.301-4.634-94.363 30.795-113.947 64.556z"/><g transform="translate(255.256 151.738)" clip-path="url(#b)"><path class="e" d="M402.471-50.408S285.118 29.385 80.287 26.111s-273.17 185.883-273.17 185.883"/><path class="e" d="M427.25-46.085S205.819 61.983 72.333 40.47s-269.079 128.515-254.984 202.092"/><path class="e" d="M454.348-16.83S213.664 72.701 55.3 55.451s-217.58 146.276-217.58 146.276"/><path class="e" d="M476.654 5.706s-371 139.472-508.373 149.593-175.702 189.226-175.702 189.226"/><path class="e" d="M-143.649 248.983s335.877 30.338 495.054-102.321c72.835-60.71 141.22-57.666 193.975-36.512"/><path class="e" d="M568.777 159.845S442.76 58.922 237.462 248.898s-384.164 71.48-384.164 71.48"/><path class="e" d="M551.975 187.351s-119.5-90.23-222.075 45.324-253.005 209.02-253.005 209.02"/><path class="e" d="M558.318 235.613s-124.963-73.066-168.56 40.924-164.95 237.312-164.95 237.312"/></g><g transform="translate(127.012 173.583)" clip-path="url(#c)"><path class="e" d="M530.715-72.253S413.362 7.54 208.531 4.266s-273.17 185.883-273.17 185.883"/><path class="e" d="M555.494-67.93S334.063 40.138 200.577 18.625-68.502 147.14-54.407 220.717"/><path class="e" d="M582.592-38.675S341.908 50.856 183.544 33.606s-217.58 146.276-217.58 146.276"/><path class="e" d="M604.898-16.139s-371 139.472-508.373 149.593S-79.177 322.68-79.177 322.68"/><path class="e" d="M-15.405 227.138s335.877 30.338 495.054-102.321c72.835-60.71 141.22-57.666 193.975-36.512"/><path class="e" d="M697.021 138S571.004 37.077 365.706 227.053s-384.164 71.48-384.164 71.48"/><path class="e" d="M680.219 165.506s-119.5-90.23-222.075 45.324-253.005 209.02-253.005 209.02"/><path class="e" d="M686.562 213.768s-124.963-73.066-168.56 40.924-164.95 237.312-164.95 237.312"/><path class="g" d="M59.195 314.324h51.766l-11.076-66.543H48.119z"/><path class="g" d="M53.755 269.754l-17.616 44.561h9.848l16.721-19.953zm364.22-160.814h73.645a9.814 9.814 0 019.32 6.719c8.876 26.774 38.26 128.43 4.144 212.06h-70.507z"/><path class="h" d="M409.968 108.94h73.33a9.823 9.823 0 019.465 7.18c7.674 27.465 31.788 128.447-2.123 211.6h-64.036z"/><path d="M609.14 305.12h73.33a9.823 9.823 0 019.465 7.18c7.674 27.465 31.788 128.447-2.123 211.6h-64.036z" transform="translate(-199.172 -196.18)" fill="url(#d)"/><path class="j" d="M306.794 230.515l-7.035 28.565-86.12 33.254s-26.185 17.053-26.185 19.091 47.75 0 47.75 0l14.5-14.5s66.97 1.28 84.879-25.576 14.214-43.094 14.214-43.094z"/><path class="g" d="M322.322 154.652l-22.562 84.415s22.894 24.25 49.8 9.328-27.238-93.743-27.238-93.743z"/><path class="g" d="M374.386 117.578l-36.273 17.224c-10.752 4.886-17.386 16.525-16.491 28.94l8.118 112.829-22.954 71.348h159.77l13.95-55.006a100.736 100.736 0 007.785-43.776l-4.127-88.985c-.716-15.476-11.162-28.479-25.4-31.634l-41.523-12.347z"/><path class="h" d="M228.383 307.204c0 3.411 1.705 6.242 3.829 6.242h49.677l-49.086-12.416c-2.322-.58-4.42 2.345-4.42 6.174z"/><path class="h" d="M231.435 300.962h73.739v12.483h-73.739z"/><path class="g" d="M301.474 307.204c0 3.411 1.705 6.242 3.828 6.242h49.677l-49.08-12.415c-2.325-.581-4.425 2.344-4.425 6.173zm69.732 22.86h157.557v102.85H371.206z"/><path class="g" d="M422.162 313.445h121.131v16.627H422.162z"/><path transform="translate(8.845 313.445)" fill="url(#e)" d="M0 0h415.559v16.627H0z"/><path class="c" d="M8.845 330.064h400.066v102.85H8.845z"/><g transform="translate(8.845 330.064)" clip-path="url(#g)"><path class="m" d="M17.25 111.265s94.775-18.759 246.321-9.985S484.2 57.487 484.2 57.487"/><path class="m" d="M-.699 109.048s174.7-23.022 271.568-11.665 211.992-27.2 208.726-49.225"/><path class="m" d="M-17.94 99.464s187.162-16.917 302.87-5.807 175.582-34.354 175.582-34.354"/><path class="m" d="M-32.282 92.029s288.639-26.484 391.505-24.2 148.7-48.517 148.7-48.517"/><path class="m" d="M451.312 44.808s-246.073-21.743-377 10.9c-59.917 14.913-110.328 11.4-147.393 3.2"/><path class="m" d="M-85.574 43.495s83.562 34.3 254.31-13.293 291.785-6.139 291.785-6.139"/><path class="m" d="M-70.439 36.102S9.38 67.029 98.629 31.387s207.932-51.331 207.932-51.331"/><path class="m" d="M-70.439 21.786s85.532 26.126 128.958-5.483 145.4-62.987 145.4-62.987"/></g><path class="g" d="M8.845 330.064h400.066v35.693L8.845 342.027z"/><path class="n" d="M439.642 224.222a.077.077 0 01-.077-.077v-9.379a.077.077 0 00-.077-.077h-25.87a.077.077 0 00-.077.077v9.383a.077.077 0 01-.077.077 5.014 5.014 0 00-5.014 5.014v79.2a5.014 5.014 0 005.014 5.014h26.169a5.014 5.014 0 005.014-5.014v-79.2a5.014 5.014 0 00-5.005-5.018z"/><path d="M619.8 445.14h.853v82.06h-2.038a5.781 5.781 0 01-5.781-5.781v-69.287a6.992 6.992 0 016.966-6.992z" transform="translate(-199.715 -216.809)" fill="url(#h)"/><circle class="p" cx="8.578" cy="8.578" r="8.578" transform="translate(417.975 236.219)"/><path class="p" d="M417.975 304.526h17.156v3.053h-17.156zm-1.45-99.558h20.046a4.263 4.263 0 014.265 4.26v5.517h-28.6v-5.517a4.263 4.263 0 014.289-4.263z"/></g><path class="j" d="M631.051 367.296l18.7 22.169 53.386-82.317 31.114-15.578s.639 4.707-5.116 10.462l-5.755 5.756 22.383-6.608s5.969-14.5 8.953-17.48a9.848 9.848 0 016.4-2.984l-6.4 21.317s7.248-14.572 12.364-14.572h5.116l-14.5 23.1-9.806 5.542 9.806-1.927s6.821-9.379 9.678-9.985a6.2 6.2 0 014.818.929l-11.541 15.671-43.486 8.348s-45.1 95.96-60.02 105.339-53.1-32.206-53.1-32.206z"/><path d="M744.842 448.976c-8.808 11.23-14.709 12.526-18.4 11.025a6.718 6.718 0 01-3.112-9.473 123.642 123.642 0 009.379-23.645L715.3 406.274l-.955-.094-26.555 34.465s38.174 41.585 53.1 32.206c7.452-4.681 22.434-30.961 35.565-56.1-9 3.865-19.999 17.414-31.613 32.225z" transform="translate(-83.747 -37.486)" fill="url(#i)"/><path class="g" d="M606.447 317.755l42.165 67.839s-24.156 30.253-55.142 32.751l-40.076-63.73z"/><path class="p" d="M488.028 353.559a8.731 8.731 0 00-5.713-.051 7.512 7.512 0 00-4.221 3.308 10.1 10.1 0 00-1.415 3.922c0 .136-.051.273-.06.409a6.787 6.787 0 001.151 5.278c1.654 2 4.076 2.319 6.762 1.867a7.674 7.674 0 005.909-4.715 10.377 10.377 0 00.853-5.841 4.9 4.9 0 00-3.266-4.178zm-.938 10.232a4.442 4.442 0 01-4.263 2.268 3.087 3.087 0 01-3.036-2.558 6.735 6.735 0 01-.051-2.746 7.818 7.818 0 01.938-2.746 4.528 4.528 0 013.888-2.481 3.117 3.117 0 013.462 2.217 7.282 7.282 0 01-.938 6.011zm73.433-10.7a1.415 1.415 0 00-1.492.955 3.59 3.59 0 00-.222.853c-.2 1.253-.392 2.507-.614 3.88-.3-.3-.5-.512-.725-.708-1.961-1.705-5.517-.946-7.035 1.595a7.35 7.35 0 00-.853 6.421c.955 2.66 4.221 3.163 6.7 1.091l.58-.478a7.792 7.792 0 000 .853 1.023 1.023 0 001.083.9 1.509 1.509 0 001.364-.9 2.6 2.6 0 00.2-.759l1.91-12.065a3.028 3.028 0 00.051-.605.955.955 0 00-.955-1.032zm-4.451 12.5a2.319 2.319 0 01-3.667-.384 3.982 3.982 0 01-.239-2.439 5.117 5.117 0 01.631-1.85 2.9 2.9 0 012.4-1.637 1.978 1.978 0 012.089 1.4 4.988 4.988 0 01-1.214 4.91zm-26.885-7.111c-.162.136-.315.307-.554.546v-.718a1.04 1.04 0 00-1.228-1.117c-.784 0-1.27.563-1.424 1.552q-.964 6.028-1.91 12.065a3.865 3.865 0 00-.043.81c0 .648.29.853.853.929a1.39 1.39 0 001.467-.776 3.786 3.786 0 00.375-1.253l1.2-7.563a5.226 5.226 0 011.156-2.557c1.245-1.5 3.317-1.484 4.059 0a3.769 3.769 0 01.23 2.243 4.588 4.588 0 01-1.458 2.967 2.7 2.7 0 01-2.507.563.972.972 0 00-1.049.605.853.853 0 00.162 1.083 1.518 1.518 0 00.452.264 4.622 4.622 0 004.715-.853c2.345-1.842 3.308-5.909 2.012-8.254s-4.249-2.408-6.508-.536zm16.618-1.101a9.848 9.848 0 00-3.956 0 5.653 5.653 0 00-2 .785 3.325 3.325 0 00-1.33 1.492c-.324.733-.213 1.27.3 1.526a1.228 1.228 0 001.629-.554 3.325 3.325 0 013.087-1.475c1.262.068 1.663.478 1.6 1.705a.373.373 0 01-.35.435c-.426.094-.853.222-1.288.315-1.253.273-2.558.477-3.769.853-2.243.631-3.411 2.959-2.387 4.69a2.882 2.882 0 002.5 1.322 6.592 6.592 0 004.1-1.262c.315-.213.5-.273.639.1a2.379 2.379 0 00.588.853 1.134 1.134 0 001.45.111 1.185 1.185 0 00.742-1.3 9.015 9.015 0 01.188-3.777c.162-1.091.324-1.927.367-2.754.098-1.777-.507-2.707-2.11-3.065zm-1.066 6.216a3.3 3.3 0 01-3.573 3.027 1.279 1.279 0 01-1.253-1.637 1.705 1.705 0 011.339-1.211c.853-.239 1.748-.4 2.626-.6l.307-.077c.682-.175.682-.175.556.498zm-35.096-6.326a5.636 5.636 0 00-3.411 1.757c-1.705 1.85-2.362 5.116-1.467 7.111 1.356 3.053 6.651 2.916 8.842.708a3.5 3.5 0 00.657-.853c.409-.853 0-1.4-.853-1.322a1.483 1.483 0 00-.8.426 9 9 0 01-1.705 1.194c-2 .972-3.931-.2-3.76-2.294 0-.367.154-.478.512-.46h3.624a20.574 20.574 0 002.157-.051 1.705 1.705 0 001.782-1.705 3.88 3.88 0 00-.853-3.163c-1.203-1.374-2.866-1.612-4.725-1.348zm2.822 4.374c-.051.29-.213.281-.409.281h-4.263c-.2 0-.375 0-.29-.29.52-1.765 1.859-2.874 3.6-2.413a2.115 2.115 0 011.362 2.422zm-15.185-4.188c-1.04-.085-1.04-.085-.767-1.177v-.153a1.236 1.236 0 011.467-1.015c.316 0 .631.077.946.1a.964.964 0 00.964-.563.853.853 0 00-.068-1.074 1.3 1.3 0 00-.725-.358 7.213 7.213 0 00-2.95 0 2.763 2.763 0 00-2.166 1.927 5.964 5.964 0 00-.256.912c-.29 1.705-.554 3.479-.853 5.21l-.853 5.167a3.216 3.216 0 000 1.108 1.066 1.066 0 001.143.9 1.62 1.62 0 001.424-.929 3.412 3.412 0 00.264-.964q.486-3.121.989-6.233c.136-.853.136-.853.981-.853a5.33 5.33 0 00.776-.1.955.955 0 00.784-.8c.179-.687-.179-1.046-1.1-1.105zm7.785 1.144c.188-.7-.128-1.04-.989-1.16-.349-.051-.853.188-1.023-.153s.068-.759.2-1.151c.264-.853.657-1.117 1.484-1.04.315 0 .631.094.946.1a1.032 1.032 0 001.057-.853c.1-.529-.153-.929-.793-1.074a6.711 6.711 0 00-3.351.077 2.618 2.618 0 00-1.705 1.475 6.619 6.619 0 00-.529 1.816l-.776 4.9q-.4 2.558-.853 5.116a2.679 2.679 0 000 .9 1.083 1.083 0 001.066.929 1.6 1.6 0 001.458-.853 2.414 2.414 0 00.264-.853c.358-2.285.733-4.562 1.074-6.821.051-.35.171-.486.529-.46a3.632 3.632 0 001.185-.094.981.981 0 00.756-.801zm19.611.681a1.091 1.091 0 00-.256-1.509c-1.271-.989-2.925-.716-4.17.682l-.29.333v-.58a.938.938 0 00-1.006-1.006 1.424 1.424 0 00-1.475.946 4.6 4.6 0 00-.3 1.168q-.58 3.632-1.151 7.256a4 4 0 00-.06.853 1.057 1.057 0 001.126 1.032 1.6 1.6 0 001.5-1.04 4.972 4.972 0 00.23-.912c.2-1.194.384-2.387.6-3.573a7.232 7.232 0 01.708-2.157 1.85 1.85 0 012.174-1.134 7.443 7.443 0 01.853.239 1.288 1.288 0 001.518-.6zm44.254 4.895c-.622-.75-1.245-1.509-1.893-2.243a.989.989 0 00-1.5 0c-.853.725-1.705 1.467-2.558 2.2a1.705 1.705 0 00-.614 1.1c-.094.682-.222 1.364-.324 2.046s.2 1.1.921 1.108h4.6a1.185 1.185 0 001.271-1.066c.128-.716.23-1.433.341-2.149a1.228 1.228 0 00-.244-.996z"/><ellipse cx="12.927" cy="20.473" rx="12.927" ry="20.473" transform="translate(464.793 216.227)" fill="url(#j)"/><path class="j" d="M546.71 230.603l-2.481 59.159s-27.183 21.88-42.821 1.407l5.909-44.126z"/><path d="M569 297.661s28.539-29.366 27.908-20.046c-.5 7.435.52 40.127-29.494 31.83z" transform="translate(-66.012 -18.276)" fill="url(#k)"/><path class="j" d="M474.223 208.929s-12.193 60.889 15.74 76.817c35.881 20.464 60.855-73.765 60.855-73.765l-31.977-10.232z"/><path class="t" d="M486.024 173.577s-38.507 22.349-11.8 35.352 57.189-9.439 52.141 17.318 15.147 18.963 15.147 18.963l2.277 7.2-1.705 12.56s16.5-21.675 19.415-42.062-10.718-51.433-50.308-41.943c-23.658 5.675-25.167-7.388-25.167-7.388z"/><path class="j" d="M539.896 230.687s7.529-13.83 13.822-1.236-7.4 28.5-20.575 22.434"/><path class="t" d="M483.628 229.645s-1.1-12.747 18.324 1.492m-26.168-3.142s-.682-9.908-8.348.7"/><ellipse class="g" cx="3.965" cy="2.081" rx="3.965" ry="2.081" transform="rotate(-87.72 366.321 -132.125)"/><ellipse class="g" cx="3.965" cy="2.081" rx="3.965" ry="2.081" transform="rotate(-87.72 359.766 -125.823)"/><path d="M539.5 254.83l-7.265 16.636a4.724 4.724 0 004.408 6.617l7.606-.128a3.206 3.206 0 003.061-3.965l-4.625-18.89a1.705 1.705 0 00-3.189-.273z" transform="translate(-60.771 -15.044)" fill="url(#l)"/><path class="p" d="M478.811 271.336s21.718 16.789 23.414-6.4"/><path d="M544.765 230.749s13.847-.537.469 15.169m1.91-14.922s-4.826 4.766 2.37 8.962" stroke="#ec7625" stroke-miterlimit="10" fill="none"/><path d="M566.47 276.72s13.549-6.821 6.728 10.42" transform="translate(-65.874 -18.217)" fill="url(#m)"/><path d="M633.883 247.843c0-7.043-2.243-13.251-5.662-16.934v-3.539h-7.265c-7.137 0-12.927 9.166-12.927 20.464s5.79 20.464 12.927 20.464h7.265v-3.538c3.411-3.667 5.662-9.874 5.662-16.917z" transform="translate(-71.996 -11.143)" fill="url(#n)"/><ellipse class="h" cx="12.927" cy="20.473" rx="12.927" ry="20.473" transform="translate(543.298 216.227)"/><ellipse class="p" cx="8.518" cy="13.489" rx="8.518" ry="13.489" transform="translate(547.707 223.211)"/><ellipse class="g" cx="6.455" cy="10.215" rx="6.455" ry="10.215" transform="translate(550.981 226.485)"/><path class="h" d="M558.288 219.323l-5.969-.068a106.842 106.842 0 00-1.961-19.611c-1.8-8.987-5.645-20.549-13.745-24.6-7.572-3.786-13.251-2.865-26.74 6.207a40.305 40.305 0 01-11.511 1.04c3.411-3.36 11.23-8.859 22.476-12.5 7.111-2.3 13.558-2.558 18.452-.085 19.254 9.652 19.015 47.971 18.998 49.617zm-49.805 56.276h-18.758a2.132 2.132 0 110-4.263h17.463l38.37-26.271a2.135 2.135 0 112.413 3.522z"/><path class="y" d="M269.8 272.452H131.184a7.367 7.367 0 01-7.154-6.472l-4.639-44.143a5.721 5.721 0 015.8-6.472h138.618a7.367 7.367 0 017.154 6.472l4.639 44.143a5.722 5.722 0 01-5.8 6.472z"/><path class="y" d="M274.783 258.179l2.737 26.049-25.708-11.775z"/><path class="z" d="M287.289 232.113h83.622a5.721 5.721 0 005.8-6.472l-3.257-31a7.367 7.367 0 00-7.154-6.472h-83.621a5.721 5.721 0 00-5.8 6.472l3.257 31a7.367 7.367 0 007.154 6.472z"/><path class="z" d="M279.319 217.847l2.737 26.058 23.235-11.784z"/><path class="p" d="M257.823 236.99H133.605l-1.134-10.82h124.218zm2.379 21.64h-60.335l-1.134-10.82h60.327zm43.137-48.687a6.156 6.156 0 005.969 5.406 4.784 4.784 0 004.843-5.406 6.156 6.156 0 00-5.969-5.406 4.783 4.783 0 00-4.843 5.406zm16.943 0a6.156 6.156 0 005.969 5.406 4.784 4.784 0 004.843-5.406 6.156 6.156 0 00-5.969-5.406 4.783 4.783 0 00-4.843 5.406zm16.303 0a6.156 6.156 0 005.969 5.406 4.784 4.784 0 004.843-5.406 6.156 6.156 0 00-5.969-5.406 4.783 4.783 0 00-4.843 5.406z"/><path class="n" d="M436.95 449.792s2.771 22.6 8.953 24.3l-28.778 4.391s-7.674-15.05-6.182-24.216z"/><path class="g" d="M268.328 483.021h114.156v4.008H268.328zm172.334-17.088h-204.2a12.125 12.125 0 01-11.775-10.658L208.846 304.53a9.379 9.379 0 019.533-10.658h204.224a12.125 12.125 0 0111.775 10.658l15.843 150.744a9.379 9.379 0 01-9.558 10.658z"/><path class="h" d="M434.804 465.933h-204.19a12.125 12.125 0 01-11.8-10.658L202.988 304.53a9.379 9.379 0 019.533-10.658h204.2a12.125 12.125 0 0111.775 10.658l15.843 150.744a9.379 9.379 0 01-9.533 10.658z"/><path class="g" d="M327.631 487.028h-59.3l67.481-119.57h4.391z"/><path class="h" d="M323.24 487.028h-59.3l12.56-119.57h59.312z"/><path d="M376.571 404.73l11.289 98.475h-21.64z" transform="translate(-36.372 -37.272)" fill="url(#o)"/><path class="p" d="M294.454 346.192a15.348 15.348 0 0014.888 13.472 11.937 11.937 0 0012.057-13.472 15.348 15.348 0 00-14.888-13.463 11.937 11.937 0 00-12.057 13.464z"/><path class="m" d="M340.2 367.458h-63.7l-12.563 119.57"/><path d="M826.461 333.648s3.5 6.028-7.231 9.507c0 0 24.293.043 29.613-16.116z" transform="translate(-103.112 -25.827)" fill="url(#p)"/></g></svg>