<svg xmlns="http://www.w3.org/2000/svg" xmlns:xlink="http://www.w3.org/1999/xlink" width="576.774" height="415.174"><defs><linearGradient id="n" x1=".7" y1="1.503" x2=".344" y2=".406" xlink:href="#h"/><linearGradient id="j" x1="0" y1=".5" x2="1" y2=".5" xlink:href="#d"/><linearGradient id="m" x1=".702" y1=".952" x2=".268" y2="-.576" xlink:href="#h"/><linearGradient id="l" x1="4.582" y1=".389" x2="3.325" y2=".818" xlink:href="#h"/><linearGradient id="d" x1="-.409" y1=".351" x2=".886" y2=".605" gradientUnits="objectBoundingBox"><stop offset="0" stop-color="#1b6775"/><stop offset="1" stop-color="#adc2da"/></linearGradient><linearGradient id="k" x1=".481" y1="1.117" x2=".577" y2="-1.129" xlink:href="#h"/><linearGradient id="f" x1="-31.812" y1=".343" x2="-31.365" y2=".911" gradientUnits="objectBoundingBox"><stop offset="0" stop-color="#2a425e"/><stop offset="1" stop-color="#895b3d"/></linearGradient><linearGradient id="g" x1=".766" y1="-.154" x2=".167" y2="1.32" xlink:href="#d"/><linearGradient id="h" x1="-14.214" y1="2.062" x2="-15.868" y2=".783" gradientUnits="objectBoundingBox"><stop offset="0" stop-color="#ec7625"/><stop offset="1" stop-color="#fcb07c"/></linearGradient><linearGradient id="i" x1="-11.417" y1=".997" x2="-11.689" y2="1.555" xlink:href="#h"/><clipPath id="a"><path class="a" d="M202.959 168.791c-11.179 50.992 19.759 95.753 57.817 83.822 47.876-15.013 111.385-38.658 146.776-67.213 61.913-49.959-113.992-79.582-163.206-67.248-29.752 7.459-36.501 28.334-41.387 50.639z" transform="translate(-200.644 -115.356)"/></clipPath><clipPath id="e"><path class="c" d="M483.776 370.738L430.7 393.293a23.756 23.756 0 00-14.371 23.953l14.661 165.806h159.239l11.924-171.079a27.161 27.161 0 00-19-27.814l-42.928-13.429z" transform="translate(-416.238 -370.73)"/></clipPath><clipPath id="c"><path d="M623.274 427.74c-11.11 48.378-13.451 98.231-85.79 81.634a319.117 319.117 0 00-108.254-5.654l-172.075 20.016c-119.54 0-172.782-148.57-63.577-217.292 10.312-6.49-.243-72.058 13.048-76.929 71.633-26.264 67.582-75.03 97.767-90.084 34.73-17.319 121.63 26.416 158.464 8.169 13.6-6.741 31.044 24.045 48.492 25.428 70.379 5.578 155.842 75.683 125.482 198.035-5.395 21.871-9.871 40.627-13.557 56.677z" transform="translate(-134.179 -135.287)" fill="none"/></clipPath><clipPath id="b"><path class="a" d="M623.275 439.544c-11.11 48.378-13.451 98.231-85.79 81.633a319.117 319.117 0 00-108.254-5.654l-172.076 20.018c-130.825 0-182.243-177.949-28.217-234.429s165.98-74.239 234.824-108.353c68.494-33.909 210.992 37.412 173.108 190.093-5.433 21.887-9.909 40.642-13.595 56.692z" transform="translate(-134.181 -184.461)"/></clipPath><style>.a{fill:#ffecb8}.e,.u{fill:none}.c{fill:#adc2da}.e{stroke:#f9d780}.e,.u{stroke-miterlimit:10}.g{fill:#d3e1ed}.h{fill:#fff}.i{fill:#ffc709}.j{fill:#2a425e}.l{fill:#5e3417}.p{fill:#fcb07c}.u{stroke:#ec7625}.x{fill:#1b6775}</style></defs><path class="a" d="M52.825 65.014c-11.179 50.992 19.759 95.753 57.817 83.822 47.876-15.013 111.385-38.658 146.776-67.213C319.331 31.664 143.426 2.041 94.212 14.375 64.46 21.834 57.711 42.709 52.825 65.014z"/><g transform="translate(50.51 11.578)" clip-path="url(#a)"><path class="e" d="M-42.537 68.08s66.556-20.26 125.589 36.956S238.028 57.79 238.028 57.79"/><path class="e" d="M-48.108 58.61S60.443 47.971 91.145 97.854s130.794-11.11 156.108-62.7"/><path class="e" d="M-44.354 32.309s106.8 6.574 146.518 60.37 122.739-36.477 122.739-36.477"/><path class="e" d="M-41.899 11.684s165.19 9.211 209.745 39.563 127.611-75.653 127.611-75.653"/></g><path class="a" d="M489.096 319.178c-11.11 48.378-13.451 98.231-85.79 81.633a319.117 319.117 0 00-108.254-5.654l-172.076 20.018c-130.825 0-182.243-177.949-28.217-234.429s165.98-74.239 234.824-108.353c68.494-33.909 210.992 37.412 173.108 190.093-5.433 21.887-9.909 40.642-13.595 56.692z"/><g transform="translate(.002 64.095)" clip-path="url(#b)"><path class="e" d="M51.06 328.973s101.97-49.032 265.016-26.051 237.37-114.22 237.37-114.22"/><path class="e" d="M31.78 323.205s187.95-60.15 292.185-30.4 228.105-70.962 224.564-128.429"/><path class="e" d="M13.199 298.195s201.386-44.123 325.858-15.138 188.907-89.621 188.907-89.621"/><path class="e" d="M-2.235 278.816s310.545-69.087 421.186-63.076S578.942 89.194 578.942 89.194"/><path class="e" d="M518.055 155.583s-264.743-56.707-405.614 28.422C47.985 222.96-6.215 213.803-46.115 192.41"/><path class="e" d="M-59.573 152.208s89.932 89.476 273.581-34.676 313.957-16.05 313.957-16.05"/><path class="e" d="M-43.288 132.936s85.874 80.676 181.9-12.311S362.357-13.27 362.357-13.27"/><path class="e" d="M-43.288 95.547s92.022 68.144 138.744-14.31S251.892-82.995 251.892-82.995"/></g><path class="g" d="M556.146 159.787H389.717a5.882 5.882 0 01-5.943-6.642L397.01 27.389a7.6 7.6 0 017.341-6.642h166.431a5.882 5.882 0 015.943 6.642l-13.253 125.756a7.6 7.6 0 01-7.326 6.642z"/><path class="h" d="M557.665 98.079h-82.12l5.57-52.945h82.112z"/><path class="i" d="M516.279 67.734h38.37l-2.721 25.861h-38.362z"/><path class="c" d="M483.958 77.857h31.257l-1.649 15.738h-31.265zm32.321-10.123l-.92 8.785h-31.264z"/><path class="i" d="M537.261 50.673l17.532 15.716h-38.37z"/><path class="h" d="M482.879 148.721h-88.124l3.313-31.492h88.124z"/><path class="j" d="M564.232 35.725a3.8 3.8 0 01-3.686 3.329 2.941 2.941 0 01-2.979-3.329 3.8 3.8 0 013.686-3.329 2.941 2.941 0 012.979 3.329zm-19.265 2.356a3.374 3.374 0 01.494-4.712 3.329 3.329 0 014.712 0 3.374 3.374 0 01-.494 4.712 3.329 3.329 0 01-4.712 0zm-13.026 0a3.374 3.374 0 01.494-4.712 3.329 3.329 0 014.712 0 3.374 3.374 0 01-.494 4.712 3.329 3.329 0 01-4.712 0z"/><path class="a" d="M414.643 67.901h60.013l.8-7.592h-60.013zm99.523 56.92h41.014l.8-7.592h-41.009zm-20.595 15.176h60.013l.8-7.584h-60.015zm-91.915-56.912h71.4l.8-7.592h-71.4zm34.129 14.994h35.7l.8-7.584h-35.7z"/><g transform="translate(0 26.725)" clip-path="url(#c)"><path class="l" d="M206.423 95.323s24.2 83.929-8.869 108.467-62.7-17.167-62.7-17.167l40.786-98.877z"/><path d="M649.4 412.19l28.954 93.945 36.614-71.481s16.134-.327 26.013 17.783c0 0-28 107.32-57.756 115.512S619 518.347 619 518.347z" transform="translate(-250.562 -201.758)" fill="url(#d)"/><path class="c" d="M281.888 178.932l-53.076 22.555a23.756 23.756 0 00-14.371 23.953l14.661 165.806h159.239l11.924-171.079a27.161 27.161 0 00-19-27.814l-42.928-13.429z"/><g transform="translate(214.35 178.924)" clip-path="url(#e)"><path d="M122.93-17.152v9.059c0 1.923 0 4.126-.053 6.581-.631 12.159.433 24.394 1.748 36.417q.129 2.569.16 5.13a211.681 211.681 0 01-2.128 30.618q-.083 2.546-.144 5.084c-.236 10.153-.122 20.253.327 30.747v39.244c4.218 16.384 5.282 32.86.114 49.457-.152 2.417-.16 4.3-.16 5.586v1.961m9.412-220.963v6.034c-1.52 17.015-4.142 34.015.448 51.122.061 1.74.106 3.473.129 5.213a109.127 109.127 0 01-1.353 20.876q-.342 2.493-.631 4.993c-1.52 13.329-1.93 26.834 1.3 39.95v37.678c1.3 15.5 2.9 31.439 0 46.881v7.09M146.93-19.941v9.454c-6.612 16.9-7.675 33.369-.144 50.6.106 1.573.114 3.139.122 4.719v9.119c-.213 2.933.319 5.593-.213 8.785-1.6 8.5-6.376 15.959-5.844 24.972 1.064 8.5 6.376 15.959 5.981 25.078v9.8c-1.216 14.029-.152 27.844-.076 41.9v3.359c0 4.453 0 8.861.068 13.58v18.528M161.125-21.59v12.341a91.535 91.535 0 00-.084 48.181c0 1.429.046 2.873.061 4.332v17.851c-2.166 15.435-3.8 30.307-.16 45.475.068 1.52.091 3.04.129 4.506s0 2.9 0 4.332c-2.66 16.909-5.32 33.384-.152 50.407.114 2.173.122 4.263.122 6.262v26.18m11.227-221.159v20.465c-.076 10.951-.608 22.107-.046 33.506v83.032a61.85 61.85 0 01-.144 4.271c-1.444 10.738-5.16 20.83-3.04 31.994 1.6 6.908 3.716 13.284 3.139 20.4v26.2M105.179-15.1v31.561c4.316 18.087 5.9 35.619 0 53.523-.053 1.436-.068 2.873-.084 4.324v52.163c.676 5.1 1.056 10.153 1.224 15.2.053 1.68.084 3.351.122 5.023 4.636 15.921 2.508 31.857-1.33 47.915-.076 1.619-.084 3.04-.091 4.317v5.829M83.102-12.539v21.78c-.205 8.359-.205 16.833-.38 25.078a35.624 35.624 0 00.175 6.08 190.409 190.409 0 011.809 21.028q.038 2.629 0 5.251a245.589 245.589 0 01-1.7 26.119v27.313a41.632 41.632 0 00.22 4.56c5.221 10.016 7.7 19.576 6.733 29.121a41.445 41.445 0 01-.76 4.773c-.98 5.122-4.164 9.37-5.943 14.439a52.316 52.316 0 00-.3 6.574v27.744M72.349-11.293v7.311c1.52 15.7-.076 31.637 1.11 47.436q.5 2.842.882 5.662a126.151 126.151 0 01-2.06 44.943v22.8c0 3.23-.517 6.422.547 9.074 5.95 13.6 5.441 25.838 2.28 38.59-.76 3.184-1.755 6.406-2.827 9.682v34.342M56.496-9.454v3.329c2.994 16.78 1.93 33.78.524 50.916.137 1.733.289 3.458.418 5.175a202.263 202.263 0 01.471 25.793q-.129 2.584-.334 5.183c-.213 3.6-.76 6.794-1.178 10.419v38.142a2274.36 2274.36 0 000 25.99c0 1.717 0 3.435.076 5.145 2.538 15.29.95 30.694-.122 46.357v3.42M47.019-8.352v2.576a224.183 224.183 0 01-.038 50.4v4.028q.175 6.429.22 12.919v4.347c.084 12.737.616 26.021-.274 38.651v48.386c0 1.33 0 2.652.068 3.974 6.718 17.365 3.526 34.9-.106 52.7v1.862M31.16-6.513V9.773c.205 5.669.205 12.045 0 18.064v30.329c2.371 18.406 3.427 36.477-.046 55.2v40c-.213 11.4 8.823 19.911 7.227 31.074-1.6 7.972-7.44 14.348-7.258 23v5.92" stroke="#2a425e" opacity=".4" stroke-miterlimit="10" fill="none"/></g><path class="j" d="M364.411 140.988l4.507-34.54-9.119 33.825z"/><path class="p" d="M292.177 89.357l-4.377 74.08s21.028 14.34 40.148 0l2.865-48.34z"/><path d="M561.572 328.623s-14.925-22.487-16.187-12.448c-1.011 8.048 3.268 24.007 15.419 25.359z" transform="translate(-232.856 -178.09)" fill="url(#f)"/><path class="c" d="M281.888 149.385h56.456v29.554h-56.456z"/><path d="M566.225 361.4h-23.939a57.757 57.757 0 01-10.426-29.55h34.357z" transform="translate(-229.644 -182.472)" fill="url(#g)"/><path class="p" d="M374.069 81.294s4.62 69.756-39.639 77.408-42.8-90.084-42.8-90.084l36.257-4.24z"/><path class="j" d="M374.072 81.294s1.155 10.4-17.8.608-23.11-14.173-31.477-13.5c-19.956 1.626-9.431 32.48-14.219 38.757s-21.651.965-21.651.965-5.981-31.621-3.04-50.833 75.47-49.354 88.187 24.003z"/><path class="p" d="M299.427 90.87s-5.16-16.331-14.5-4.195 1.968 31.971 17.3 28.232"/><path class="j" d="M359.714 101.467s3.8-13.375-19.873-2.219m28.597 2.078s2.789-10.442 8.762 2.477"/><ellipse class="j" cx="4.317" cy="2.257" rx="4.317" ry="2.257" transform="rotate(-81.25 241.283 -150.385)"/><ellipse class="j" cx="4.317" cy="2.257" rx="4.317" ry="2.257" transform="rotate(-81.25 249.274 -157.24)"/><path d="M613.008 273.663l4.294 19.272a5.145 5.145 0 01-6.08 6.148l-8.093-1.717a3.488 3.488 0 01-2.44-4.871l8.869-19.2a1.839 1.839 0 013.45.365z" transform="translate(-246.089 -168.165)" fill="url(#h)"/><path d="M554.36 277.887s21.62-13 21.924 20.519" transform="translate(-235.045 -168.923)" fill="url(#i)"/><path class="j" d="M364.41 140.988s-9.005-16.574-37.009-14.69c-14.606 1-15.4-26.651-15.4-26.651l-10.241 10.328s9.477 55.324 19.759 66.047 31.112 15.677 42.891-35.034z"/><path class="h" d="M360.144 147.607s-30.5 12.82-27.616-12.311"/><path class="u" d="M294.222 89.92s-14.667-3.45-3.663 16.1m1.071-16.336s4.157 6.08-4.4 9.074"/><path class="j" d="M310.12 131.041s-9.119-3.625-5.563 12.053m12.919 14.651s3.557 8.6-5.692 5.692m-2.15-25.018s-6.08 4.7-.2 9.6m3.604-.655s-7.683.251-4.788 6.46m5.928.881s-.851 5.966-5.927.889m53.712-17.859s4.02 3.336 4.02 11.741l-6.84-2.994z"/><path d="M456.806 479s18.375 38.2 4.081 69.155 70.288 9.043 70.288 60.955h-96.826l-4.149-46.957z" transform="translate(-205.24 -217.796)" fill="url(#j)"/><path class="c" d="M215.423 216.291L156.2 391.246h45.5l62.99-127.162"/><path class="p" d="M330.281 211.398l14.69-14.69 38.438-13.679s2.477 6.346-1.52 9.249-20.374 8.017-20.374 8.017 12.091 6.733 9.119 16.316-23.475 4.316-23.475 4.316z"/><path d="M577.742 401.67l-8.952 8.952 16.878 9.537a54.386 54.386 0 007.8 1.269 24.183 24.183 0 00-.661-9.309c-1.599-4.635-8.476-8.108-15.065-10.449z" transform="translate(-238.509 -199.233)" fill="url(#k)"/><path class="x" d="M187.092 198.827l88.359 59.952 57.634-51.532s16.81 3.7 16.81 16.81c0 0-51.9 65.021-71.731 73.768s-87.66-33.78-87.66-33.78z"/><path class="j" d="M245.493 270.445c-5.487-22.8-24.638-36.614-40.277-44.3l-14.72 37.937s67.825 42.557 87.66 33.78c11.521-5.084 33.848-29.136 50.552-48.424-19.052-19.06-73.502 61.44-83.215 21.007z"/><path class="x" d="M167.812 189.89l16.369 7.394c7.9 2.865 26.515 24.182 34.3 33.286 10.928 12.782 10.882 36.135-2.28 49.283-14.979 14.979 3.154 111.393 3.154 111.393H99.819L88.891 238.405a24.721 24.721 0 0110.77-22.213l36.409-24.736z"/><path class="x" d="M90.343 226.702L39.206 314.94a26.727 26.727 0 00.935 28.262l32.146 48.044h27.556l-24.562-61.45 44.4-56.434z"/><path class="p" d="M132.627 124.33l-1.292 67.719s19.705 12.311 36.614-1.467l.844-44.191z"/><path d="M348.6 373.8s-14.538-5.418-20.116-28.422 20.678-.828 20.678-.828z" transform="translate(-180.636 -183.214)" fill="url(#l)"/><path class="p" d="M199.418 102.451s14.827 77.849-22.9 76.223c-38.871-1.679-48.743-70.592-48.743-70.592l29.557-10.875z"/><path class="l" d="M206.425 95.322s-11.255 23.84-43.173 23.1-9.53 13.413-16.848 22.8-10.73.433-10.73.433 36.7 77.963-14.88 87.394-75.85-25.6-43.188-67.955 35.383-36.021 40.551-68.342c5.966-37.327 74.255-50.855 88.268 2.57z"/><path class="p" d="M139.291 125.439s-5.32-14.705-13.383-3.3 2.964 29.091 16.81 25.078"/><path class="u" d="M134.602 124.33s-16.719.676.251 17.646m41.319 15.708s-5.183 1.087-5.183 7.463"/><path class="l" d="M183.261 127.453s.578-12.866-22.038 3m29.889-3.836s4.089-11.4 15.1.175"/><ellipse class="j" cx="2.622" cy="4.582" rx="2.622" ry="4.582" transform="translate(176.293 132.271)"/><ellipse class="j" cx="2.622" cy="4.582" rx="2.622" ry="4.582" transform="translate(191.19 131.071)"/><path class="j" d="M447.762 261.204l-73.457 2.9a8.838 8.838 0 01-8.906-10.024l10.472-99.604a11.4 11.4 0 0111.05-10l72.583 1.976c5.525 0 10.358 2.485 9.781 8.01l-10.472 99.621c-.579 5.525-5.526 7.121-11.051 7.121z"/><path class="g" d="M451.736 264.084h-73.418a8.838 8.838 0 01-8.952-10l10.472-99.607a11.4 11.4 0 0111.019-10h73.456a8.838 8.838 0 018.952 10l-10.48 99.606a11.4 11.4 0 01-11.05 10z"/><path class="x" d="M431.894 204.276a12.06 12.06 0 01-11.711 10.571 9.363 9.363 0 01-9.484-10.594 12.06 12.06 0 0111.7-10.571 9.363 9.363 0 019.5 10.594z"/><path class="p" d="M488.7 247.806s1.33-21.628-2.561-37.374a36.364 36.364 0 00-16.415-22.388l-.973 8.838s-15.2-8.709-26.066-8.709-7.029 23.019-.289 29.752 23.558 9.271 23.558 9.271l-.6 5.738a38.613 38.613 0 0123.346 14.872z"/><path class="j" d="M119.677 273.363s-13 24.318-7.751 38.5 41.8 11.863 27.9 36.842 28.118 9.56 24.2 42.557H99.82l-6.08-84.939z"/><path d="M173.58 192.497s1.74 11.4-25.078 10.639" stroke="#2a425e" stroke-miterlimit="10" fill="none"/><path d="M138.501 143.085a13.284 13.284 0 0111.539 11.673c.578 6.2-3.579 12.752-9.978 13.679-5.928.889-11.361-3.382-13.162-8.648a13.322 13.322 0 013.952-14.158" stroke="#fff" stroke-miterlimit="10" fill="none"/><path d="M761.368 449.833a179.339 179.339 0 00-.122-19.911 7.387 7.387 0 01-4.484 2.675c-12.676 2.462-6.718-10.168-20.519-10.168-7.934 0-18.011-4.909-25.154-9.119a20.049 20.049 0 003.99 6.612c6.733 6.733 23.558 9.271 23.558 9.271l-.6 5.738a38.613 38.613 0 0123.331 14.902z" transform="translate(-272.668 -202.027)" fill="url(#m)"/><path class="u" d="M175.206 162.114s11.551 9.188 22.7.76"/></g><path class="i" d="M63.145 68.251h-16.21V52.034zm183.999 120.475h-16.21v-16.21zm60.643-172.098l-8.565-8.071L307.293 0zM526.31 304.07l-8.557-8.071 8.071-8.565zM34.597 200.55l-8.56-8.068 8.071-8.557z"/><path class="g" d="M142.779 56.601l3.807 15.761-15.754 3.807zm354.866 111.978l3.807 15.754-15.761 3.807z"/><path d="M142.475 22.78L132.368 10.1 145.052 0zm366.387 245.539l-10.1-12.676 12.676-10.107zM67.788 127.42l-8.952 16.544-16.544-8.952z" fill="#ec7625"/><path d="M242.402 43.857l-11.468-11.468 11.468-11.46zm114.249 6.261l-.638-14.211 14.211-.638zm-108.604 75.099l-.638-14.211 14.211-.638zm164.393 1.603a9.7 9.7 0 014.4-1.148 4.043 4.043 0 013.123 1.087 3.754 3.754 0 01.76 3.04 7.2 7.2 0 01-1.034 3.237 25.886 25.886 0 01-2.91 3.4h3.336l-.334 3.161h-8.139l.061-2.28q2.333-2.234 3.336-3.382a10.447 10.447 0 001.391-1.9 4.01 4.01 0 00.456-1.406 1.346 1.346 0 00-.213-1 .957.957 0 00-.76-.35 3.656 3.656 0 00-.988.129 14.19 14.19 0 00-2.12.76zm19.12 8.169q-.517 4.886-4.841 4.886a9.468 9.468 0 01-3.663-.684l.623-3.427a12.591 12.591 0 003 .684q1.125 0 1.254-1.223t-.76-1.224a.76.76 0 00-.684.441l-2.9-.441.851-8.063h7.425l-.35 3.291h-4l-.205 1.968a3.261 3.261 0 011.52-.312q3.163-.007 2.73 4.104zm10.775-5.258a20.387 20.387 0 01-.129 3.04 21.3 21.3 0 01-.509 3.04 7.737 7.737 0 01-.927 2.189 4.476 4.476 0 01-4.081 1.854q-2.888 0-3.648-1.854a6.65 6.65 0 01-.479-2.2 19.3 19.3 0 01.122-3.04 12.243 12.243 0 011.52-5.4q1.132-1.679 3.944-1.679 2.918 0 3.693 1.831a6.47 6.47 0 01.494 2.211zm-3.678 3.169v-.334a13.5 13.5 0 00.144-2.531 4.321 4.321 0 00-.19-.631.8.8 0 00-.813-.441.95.95 0 00-.889.441 3.291 3.291 0 00-.41 1.17q-.16 1.1-.251 1.991v.334a16.309 16.309 0 00-.175 2.8 4.077 4.077 0 00.182.654q.167.486.9.486a1.011 1.011 0 001-.828 18.356 18.356 0 00.502-3.111zm5.062 5.244a1.908 1.908 0 01.6-1.315 2.28 2.28 0 011.52-.433 1.953 1.953 0 011.436.433 1.634 1.634 0 01.319 1.36c-.121 1.132-2.113 4.294-3.4 4.294a24.571 24.571 0 01-.475-4.339zm15.609-8.413a20.379 20.379 0 01-.129 3.04 21.27 21.27 0 01-.509 3.04 7.735 7.735 0 01-.927 2.189 4.476 4.476 0 01-4.081 1.854q-2.888 0-3.648-1.854a6.648 6.648 0 01-.479-2.2 19.292 19.292 0 01.121-3.04 12.243 12.243 0 011.52-5.4q1.132-1.679 3.944-1.679 2.918 0 3.693 1.831a6.468 6.468 0 01.495 2.219zm-3.678 3.169v-.334a13.493 13.493 0 00.144-2.531 4.328 4.328 0 00-.19-.631.8.8 0 00-.813-.441.95.95 0 00-.889.441 3.29 3.29 0 00-.41 1.17q-.16 1.1-.251 1.991v.334a16.132 16.132 0 00-.175 2.8 4 4 0 00.182.654q.167.486.9.486a1.011 1.011 0 001-.828 18.488 18.488 0 00.509-3.108zm14.135-3.169a20.387 20.387 0 01-.129 3.04 21.268 21.268 0 01-.509 3.04 7.739 7.739 0 01-.927 2.189 4.476 4.476 0 01-4.081 1.854q-2.888 0-3.648-1.854a6.65 6.65 0 01-.479-2.2 19.307 19.307 0 01.122-3.04 12.242 12.242 0 011.52-5.4q1.132-1.679 3.944-1.679 2.918 0 3.693 1.831a6.465 6.465 0 01.494 2.211zm-3.678 3.169v-.334a13.493 13.493 0 00.144-2.531 4.314 4.314 0 00-.19-.631.8.8 0 00-.813-.441.95.95 0 00-.889.441 3.291 3.291 0 00-.41 1.17q-.16 1.1-.251 1.991v.334a16.3 16.3 0 00-.175 2.8 4.071 4.071 0 00.182.654q.167.486.9.486a1.011 1.011 0 001-.828 18.344 18.344 0 00.502-3.111zm14.127-3.169a20.379 20.379 0 01-.129 3.04 21.259 21.259 0 01-.509 3.04 7.737 7.737 0 01-.927 2.189 4.476 4.476 0 01-4.081 1.854q-2.888 0-3.648-1.854a6.65 6.65 0 01-.479-2.2 19.307 19.307 0 01.122-3.04 12.243 12.243 0 011.52-5.4q1.132-1.679 3.944-1.679 2.918 0 3.693 1.831a6.469 6.469 0 01.494 2.219zm-3.678 3.169v-.334a13.493 13.493 0 00.144-2.531 4.32 4.32 0 00-.19-.631.8.8 0 00-.813-.441.95.95 0 00-.889.441 3.293 3.293 0 00-.41 1.17q-.16 1.1-.251 1.991v.334a16.15 16.15 0 00-.175 2.8 4 4 0 00.182.654q.167.486.9.486a1.011 1.011 0 001-.828 18.5 18.5 0 00.509-3.108zm-73.383.608a3.216 3.216 0 01-1.072-1.368 4.423 4.423 0 01-.259-2.28 4.737 4.737 0 011.049-2.531 4.234 4.234 0 012.379-1.467l.22-2.075h2.918l-.201 1.991q1.094.091 2.439.334l-.813 3.534a15.327 15.327 0 00-2.949-.509q-1.041 0-1.125.836a.825.825 0 00.433.638 11.269 11.269 0 001.132.654 10.158 10.158 0 011.33.821 3.344 3.344 0 011.064 1.36 4.407 4.407 0 01.259 2.28 4.887 4.887 0 01-.98 2.5 3.929 3.929 0 01-2.242 1.444l-.182 1.725h-2.918l.167-1.588a11.271 11.271 0 01-2.569-.578l.593-3.291a13.385 13.385 0 003.222.684q.927 0 1.011-.821a.866.866 0 00-.418-.76 7.927 7.927 0 00-1.132-.707 13.091 13.091 0 01-1.356-.826z" fill="#2bb281"/><path d="M430.754 45.873a4.909 4.909 0 00-3.207 0 4.218 4.218 0 00-2.371 1.862 5.678 5.678 0 00-.76 2.2v.228a3.8 3.8 0 00.646 2.964 3.749 3.749 0 003.8 1.049 4.294 4.294 0 003.321-2.645 5.836 5.836 0 00.494-3.283 2.759 2.759 0 00-1.923-2.379zm-.524 5.73a2.5 2.5 0 01-2.386 1.277 1.733 1.733 0 01-1.71-1.436 3.8 3.8 0 010-1.52 4.393 4.393 0 01.524-1.52 2.546 2.546 0 012.181-1.391 1.748 1.748 0 011.945 1.246 4.1 4.1 0 01-.524 3.321zm41.303-5.984a.76.76 0 00-.821.547 2.012 2.012 0 00-.129.486c-.106.707-.22 1.413-.342 2.181-.167-.167-.281-.289-.41-.4a2.734 2.734 0 00-3.952.9 4.134 4.134 0 00-.464 3.61c.54 1.52 2.371 1.778 3.8.616l.327-.266a4.4 4.4 0 000 .471.57.57 0 00.608.509.851.851 0 00.76-.509 1.467 1.467 0 00.114-.426l1.071-6.779a1.712 1.712 0 000-.342.54.54 0 00-.562-.6zm-2.5 7.03a1.3 1.3 0 01-2.059-.213 2.28 2.28 0 01-.137-1.368 2.879 2.879 0 01.357-1.041 1.634 1.634 0 011.353-.92 1.11 1.11 0 011.178.76 2.8 2.8 0 01-.692 2.774zm-15.116-3.997c-.091.076-.175.175-.312.3v-.4a.585.585 0 00-.692-.623c-.441 0-.714.312-.805.874q-.54 3.389-1.072 6.779a2.165 2.165 0 000 .456c0 .365.16.5.5.524a.76.76 0 00.821-.441 2.129 2.129 0 00.213-.707l.676-4.256a2.942 2.942 0 01.646-1.436 1.342 1.342 0 012.28 0 2.113 2.113 0 01.129 1.262 2.576 2.576 0 01-.821 1.672 1.52 1.52 0 01-1.414.319.547.547 0 00-.585.342.456.456 0 00.091.608.851.851 0 00.251.152 2.6 2.6 0 002.645-.464 4.079 4.079 0 001.132-4.636c-.726-1.313-2.413-1.404-3.683-.325zm9.347-.623a5.533 5.533 0 00-2.219 0 3.176 3.176 0 00-1.125.441 1.869 1.869 0 00-.76.836c-.182.41-.114.714.167.859a.692.692 0 00.912-.312 1.869 1.869 0 011.74-.828c.707 0 .935.266.9.98a.221.221 0 01-.2.243l-.76.175c-.707.152-1.414.266-2.12.464a1.877 1.877 0 00-1.345 2.637 1.619 1.619 0 001.406.76 3.7 3.7 0 002.28-.714c.182-.122.281-.152.357.061a1.338 1.338 0 00.327.479.638.638 0 00.813.061.669.669 0 00.418-.76 5.058 5.058 0 01.106-2.128c.091-.616.182-1.079.205-1.52.137-1.013-.175-1.529-1.102-1.734zm-.6 3.5a1.862 1.862 0 01-2.006 1.7.714.714 0 01-.707-.92.935.935 0 01.76-.676c.486-.137.98-.228 1.474-.334l.175-.046c.372-.106.372-.106.312.274zm-19.751-3.561a3.169 3.169 0 00-1.915.988 4.058 4.058 0 00-.821 4c.76 1.717 3.739 1.641 4.97.4a1.959 1.959 0 00.365-.494c.236-.456 0-.76-.471-.76a.836.836 0 00-.448.243 5.051 5.051 0 01-.965.669 1.362 1.362 0 01-2.113-1.284c0-.205.084-.266.289-.258h2.014a11.562 11.562 0 001.208 0 .957.957 0 001-.965 2.181 2.181 0 00-.479-1.778 2.721 2.721 0 00-2.637-.76zm1.588 2.462c0 .167-.114.16-.228.16h-2.386c-.114 0-.213 0-.16-.167a1.657 1.657 0 012.021-1.353 1.186 1.186 0 01.775 1.36zm-8.511-2.36c-.585-.046-.585-.046-.433-.661v-.084a.691.691 0 01.821-.57l.532.061a.539.539 0 00.539-.312.486.486 0 00-.038-.6.76.76 0 00-.41-.2 4.058 4.058 0 00-1.657 0 1.52 1.52 0 00-1.216 1.079 3.351 3.351 0 00-.144.509c-.16.98-.312 1.953-.464 2.933l-.486 2.88a1.811 1.811 0 000 .623.6.6 0 00.646.509.912.912 0 00.8-.524 1.92 1.92 0 00.152-.54q.274-1.756.555-3.5c.076-.486.076-.486.555-.5a2.992 2.992 0 00.433-.053.54.54 0 00.441-.448c.088-.37-.11-.568-.626-.602zm4.378.642c.106-.4-.068-.585-.555-.654-.2 0-.494.106-.57-.084s.038-.426.114-.646c.152-.471.372-.631.836-.585.175 0 .35.053.532.053a.585.585 0 00.593-.494c.061-.3-.084-.517-.448-.608a3.8 3.8 0 00-1.885.046 1.474 1.474 0 00-.973.828 3.719 3.719 0 00-.3 1.018l-.433 2.759-.456 2.873a1.523 1.523 0 000 .509.608.608 0 00.6.524.9.9 0 00.821-.479 1.353 1.353 0 00.152-.479c.205-1.284.41-2.569.608-3.845 0-.2.1-.274.3-.258a2.043 2.043 0 00.661-.053.547.547 0 00.403-.425zm11.018.38a.608.608 0 00-.144-.851 1.657 1.657 0 00-2.348.388l-.167.19v-.327a.532.532 0 00-.57-.562.806.806 0 00-.828.532 2.584 2.584 0 00-.167.654q-.327 2.037-.646 4.081a2.285 2.285 0 000 .486.593.593 0 00.631.578.9.9 0 00.844-.585 2.79 2.79 0 00.129-.509c.114-.669.22-1.337.334-2.014a4.065 4.065 0 01.4-1.208 1.041 1.041 0 011.223-.638 1.793 1.793 0 01.479.129.76.76 0 00.83-.344z" fill="#ee7723"/><path d="M476.26 51.851c-.35-.426-.7-.844-1.064-1.262a.555.555 0 00-.844 0c-.486.41-.958.828-1.436 1.239a.965.965 0 00-.35.623c-.053.38-.122.76-.182 1.148s.114.623.517.623h2.584a.669.669 0 00.714-.6c.068-.4.129-.806.19-1.208a.692.692 0 00-.129-.563z" fill="#186774"/><path d="M389.748 326.83a67.428 67.428 0 01-9.986-22.92s-2 12.547-.988 20.329c-1.983 2.9-4.833 8.838 6.779 7.189a11.173 11.173 0 003.177-.646 2.64 2.64 0 001.018-3.952z" transform="translate(-192.457 -149.04)" fill="url(#n)"/></svg>