<svg class="c-logo-offerpad c-logo-offerpad--default c-siteheader__logo" xmlns="http://www.w3.org/2000/svg" viewBox="0 0 234 60" role="img" aria-labelledby="header-logo"><title id="header-logo">Offerpad</title><path class="logo__icon" d="M222 30.9c-.5-.5-1.1-.7-1.7-.7s-1.2.2-1.7.7l-5.4 5.4c-.6.6-1 1.5-1 2.4V44c0 1.3 1.1 2.4 2.4 2.4H226c1.3 0 2.4-1.1 2.4-2.4v-5.3c0-.9-.4-1.7-1-2.4l-5.4-5.4z"></path><path class="c-logo-offerpad__logotype" d="M33 28c0-2.6-.4-4.9-1.3-6.8-.8-1.9-2-3.4-3.6-4.3s-3.4-1.5-5.4-1.5c-1.4 0-2.8.3-4 .8-1.2.5-2.3 1.3-3.2 2.4-.9 1-1.6 2.4-2.1 4-.4 1.6-.7 3.4-.7 5.4 0 2 .3 3.9.8 5.5s1.2 3 2.2 4.1c.9 1.1 2 1.9 3.2 2.4 1.2.5 2.5.8 4 .8 1.8 0 3.5-.5 5.1-1.4 1.5-.9 2.8-2.3 3.7-4.3.8-1.9 1.3-4.3 1.3-7.1M22.8 9.7c3.7 0 6.9.7 9.5 2.2 2.6 1.5 4.7 3.6 6 6.4 1.4 2.8 2 6 2 9.7 0 2.8-.4 5.3-1.1 7.5-.7 2.3-1.9 4.2-3.4 5.9-1.5 1.7-3.3 2.9-5.5 3.8-2.2.9-4.7 1.3-7.5 1.3s-5.3-.4-7.5-1.3-4-2.2-5.5-3.8c-1.5-1.6-2.6-3.6-3.3-5.9-.8-2.3-1.1-4.8-1.1-7.5s.4-5.2 1.2-7.5c.8-2.3 1.9-4.2 3.4-5.8 1.5-1.6 3.3-2.8 5.4-3.7 2.2-.9 4.6-1.3 7.4-1.3M79.5 30.9h12c-.2-2.3-.8-4-1.8-5.1-1.1-1.1-2.5-1.7-4.2-1.7-1.7 0-3 .6-4.1 1.7-1.1 1.2-1.7 2.9-1.9 5.1m12.9 3.8h-13c0 1.5.3 2.8.9 4 .6 1.1 1.4 2 2.4 2.6 1 .6 2.1.9 3.2.9.8 0 1.5-.1 2.2-.3.7-.2 1.3-.5 1.9-.9.6-.4 1.2-.8 1.7-1.3s1.2-1.1 2-1.8c.3-.3.8-.4 1.5-.4s1.2.2 1.7.6c.4.4.6.9.6 1.6 0 .6-.2 1.3-.7 2.1-.5.8-1.2 1.6-2.1 2.3s-2.1 1.3-3.6 1.8c-1.4.5-3.1.7-4.9.7-4.3 0-7.6-1.2-9.9-3.6-2.4-2.4-3.5-5.7-3.5-9.9 0-2 .3-3.8.9-5.5.6-1.7 1.4-3.1 2.6-4.3 1.1-1.2 2.5-2.1 4.1-2.8 1.6-.6 3.4-1 5.4-1 2.6 0 4.8.5 6.7 1.6 1.9 1.1 3.2 2.5 4.2 4.2.9 1.7 1.4 3.5 1.4 5.3 0 1.7-.5 2.7-1.4 3.2-1.2.6-2.5.9-4.3.9M108.4 37v5.5c0 1.3-.3 2.4-.9 3-.6.7-1.4 1-2.4 1s-1.7-.3-2.4-1c-.6-.7-.9-1.7-.9-3V24c0-3 1.1-4.5 3.2-4.5 1.1 0 1.9.3 2.4 1s.8 1.7.8 3.1c.8-1.4 1.6-2.4 2.4-3.1.8-.7 1.9-1 3.3-1s2.7.3 4.1 1c1.3.7 2 1.6 2 2.8 0 .8-.3 1.5-.8 2-.6.5-1.2.8-1.8.8-.2 0-.8-.1-1.8-.4-.9-.3-1.8-.4-2.5-.4-1 0-1.8.3-2.4.8-.6.5-1.1 1.3-1.4 2.3-.3 1-.6 2.2-.7 3.6-.2 1.3-.2 3-.2 5M169.4 33.2c-1 .4-2.4.7-4.2 1.1-1.9.4-3.1.7-3.9.9-.7.2-1.4.6-2 1.1-.6.5-1 1.3-1 2.3 0 1 .4 1.9 1.1 2.6.8.7 1.8 1.1 3 1.1 1.3 0 2.5-.3 3.6-.9 1.1-.6 1.9-1.3 2.4-2.2.6-1 .9-2.7.9-5v-1zm.4 9.6c-1.6 1.2-3.2 2.2-4.7 2.8-1.5.6-3.2.9-5 .9-1.7 0-3.2-.3-4.5-1-1.3-.7-2.3-1.6-3-2.7-.7-1.1-1-2.4-1-3.7 0-1.8.6-3.4 1.7-4.6 1.1-1.3 2.7-2.1 4.7-2.6.4-.1 1.5-.3 3.1-.7 1.7-.3 3.1-.7 4.3-.9 1.2-.3 2.5-.6 3.9-1-.1-1.7-.4-3-1.1-3.9-.6-.8-1.9-1.2-3.9-1.2-1.7 0-3 .2-3.8.7-.9.5-1.6 1.2-2.2 2.1-.6.9-1 1.6-1.3 1.9-.3.3-.8.4-1.6.4-.7 0-1.4-.2-1.9-.7s-.8-1.1-.8-1.8c0-1.2.4-2.3 1.2-3.4.8-1.1 2.1-2 3.9-2.7 1.7-.7 3.9-1.1 6.5-1.1 2.9 0 5.2.3 6.9 1 1.7.7 2.8 1.8 3.5 3.3.7 1.5 1 3.5 1 5.9v7.6c0 1.2.2 2.5.6 3.9.4 1.4.6 2.2.6 2.6 0 .7-.3 1.3-1 1.9-.6.6-1.4.8-2.2.8-.7 0-1.4-.3-2-1-.4-.7-1.1-1.6-1.9-2.8M186.8 33c0 1.8.3 3.3.8 4.6.6 1.3 1.3 2.2 2.3 2.9 1 .6 2 1 3.2 1 1.2 0 2.2-.3 3.2-.9 1-.6 1.7-1.5 2.3-2.8.6-1.3.9-2.8.9-4.7 0-1.8-.3-3.3-.9-4.6-.6-1.3-1.4-2.2-2.3-2.9-1-.7-2.1-1-3.2-1-1.2 0-2.3.3-3.3 1s-1.7 1.7-2.2 3c-.5 1.2-.8 2.7-.8 4.4m13.1 9.7V42c-.9 1-1.8 1.9-2.6 2.5-.9.6-1.8 1.1-2.8 1.5-1 .3-2.1.5-3.3.5-1.6 0-3.1-.3-4.4-1-1.4-.7-2.5-1.6-3.5-2.9-1-1.2-1.7-2.7-2.2-4.4-.5-1.7-.8-3.5-.8-5.5 0-4.1 1-7.4 3-9.7 2-2.3 4.7-3.5 8-3.5 1.9 0 3.5.3 4.8 1 1.3.7 2.6 1.7 3.8 3v-9.8c0-1.4.3-2.4.8-3.1.5-.7 1.3-1 2.3-1 1 0 1.8.3 2.3 1 .5.6.8 1.6.8 2.8v29.2c0 1.3-.3 2.2-.9 2.8-.6.6-1.3.9-2.3.9-.9 0-1.7-.3-2.2-1-.5-.4-.8-1.3-.8-2.6M53.1 9.7c-2.2 0-3.9.3-5.2.8-1.3.6-2.1 1.4-2.7 2.7-.5 1.2-.8 2.9-.8 4.9V42.4c0 1.3.3 2.3.9 3 .6.7 1.4 1 2.3 1 1 0 1.8-.3 2.4-1 .6-.7.9-1.7.9-3V24.9h1.6c1.2 0 2.1-.1 2.8-.4.7-.3 1-1 1-2.1 0-1.5-1.3-2.3-3.8-2.3h-1.6v-1.6c0-1.3.2-2.3.5-3 .3-.7 1.1-1.1 2.3-1.1.4 0 1 0 1.6.1.6.1 1.1.1 1.3.1.6 0 1-.2 1.4-.7.4-.4.6-1 .6-1.6.3-1.6-1.6-2.6-5.5-2.6M69.1 9.7c-2.2 0-3.9.3-5.2.8-1.3.6-2.1 1.4-2.7 2.7-.5 1.2-.8 2.9-.8 4.9V42.4c0 1.3.3 2.3.9 3 .6.7 1.4 1 2.3 1 1 0 1.8-.3 2.4-1 .6-.7.9-1.7.9-3V24.9h1.6c1.2 0 2.1-.1 2.8-.4.7-.3 1-1 1-2.1 0-1.5-1.3-2.3-3.8-2.3h-1.6v-1.6c0-1.3.2-2.3.5-3 .3-.7 1.1-1.1 2.3-1.1.4 0 1 0 1.6.1.6.1 1.1.1 1.3.1.6 0 1-.2 1.4-.7.4-.4.6-1 .6-1.6.3-1.6-1.6-2.6-5.5-2.6M147.1 25.8c-1-2-2.4-3.6-4.1-4.6-1.7-1.1-3.6-1.6-5.6-1.6-1.7 0-3.2.4-4.6 1.1-1.3.7-2.6 1.9-3.9 3.4v-.8c0-1.2-.3-2.1-.9-2.8-.6-.6-1.4-1-2.3-1-1 0-1.7.3-2.3.9-.6.6-.8 1.6-.8 2.8V52c0 1.4.2 2.5.6 3.3.4.8 1.2 1.1 2.5 1.1 2.1 0 3.2-1.5 3.2-4.4V33s0-2.7 1.4-5.1c0 0 0-.1.1-.1.1-.1.1-.2.2-.3l.6-.9c1.3-1.4 2.8-2.2 4.6-2.2 1.1 0 2.2.3 3.1 1 .9.7 1.7 1.6 2.2 2.9.5 1.3.8 2.8.8 4.5 0 1.8-.3 3.4-.9 4.6-.6 1.3-1.3 2.2-2.3 2.9-.9.6-2 1-3.1 1-.6 0-1.1-.1-1.6-.2-.2 0-.3-.1-.5-.1-1.2 0-2.2 1-2.2 2.2 0 .7.3 1.4.9 1.8.1.1.2.1.2.2l.1.1c1.3.8 2.9 1.1 4.8 1.1 1.6 0 3-.3 4.4-.9 1.4-.6 2.6-1.5 3.6-2.7 1-1.2 1.8-2.6 2.4-4.3.6-1.7.9-3.6.9-5.6 0-2.7-.5-5.1-1.5-7.1"></path></svg>
