<svg xmlns="http://www.w3.org/2000/svg" viewBox="0 0 103.2 103.4"><path fill="#FFF" d="M18.2 83.9l-.2-.7L.2 25.4l-.2-.7.7-.2L84.9 0l.2.6c.2.6 17.8 57.7 17.8 57.9l.2.6-.7.2-84.2 24.6z"/><path fill="#1C6775" d="M78.3 102.5c.9.2 1.7.5 2.5.9h.1c-1.1-6.4-4.6-12.8-10-18.3-5.1-5.2-11.3-8.8-16.2-9.6-.6-.1-1.2.3-1.3 1-.1.6.3 1.2 1 1.3 8.2 1.4 21.1 12 23.9 24.7zm2.1-16.2c-.5 0-1-.4-1.1-.9-.7-3-3.1-10.2-6.3-12.4-.5-.4-.7-1.1-.3-1.6.4-.5 1.1-.7 1.6-.3 4.1 2.8 6.7 11.1 7.3 13.8.1.6-.3 1.3-.9 1.4h-.3zm-62.2-2.4l-.2-.7L.2 25.4l-.2-.7.7-.2L84.9 0l.2.6c.2.6 17.8 57.7 17.8 57.9l.2.6-.7.2-84.2 24.6zM1.7 25.6C3.5 31.5 17.2 76 19.1 82.2l82.3-24L84 1.7 1.7 25.6z"/><path d="M43.7 30.9c-.1-.4-.2-.9-.1-1.4.1-.4.3-.8.5-1.1.3-.3.7-.6 1.1-.7.6-.2 1.2-.1 1.8.1.6.3 1 .8 1.2 1.4l.1.3c.2.6.2 1.4-.1 2-.7 1.2-2.2 1.6-3.4 1-.5-.3-1-.9-1.1-1.6zm1.3-.3c.1.4.3.7.6 1 .4.3 1.1.2 1.4-.2 0-.1.1-.1.1-.2.1-.4.1-.8-.1-1.2-.1-.4-.3-.7-.6-1-.2-.2-.6-.3-.9-.2-.3.1-.5.3-.6.6-.1.4 0 .8.1 1.2zm5.1 1.1l-1.2-3.9-.7.2-.3-1 .7-.2-.1-.4c-.2-.5-.1-1 .1-1.4.3-.4.7-.7 1.2-.8.2-.1.5-.1.7-.1l.3 1c-.1 0-.3 0-.4.1-.5.1-.7.4-.5.9l.1.4 1-.3.3 1-1 .3 1.1 3.9-1.3.3zm3.2-.9l-1.1-3.9-.7.2-.3-1 .7-.2-.1-.4c-.2-.5-.1-1 .1-1.4.3-.4.7-.7 1.2-.8.2-.1.5-.1.7-.1l.3 1c-.1 0-.3 0-.4.1-.5.1-.7.4-.5.9l.1.4 1-.3.3 1-1 .3 1.1 3.9-1.4.3zm5-1.4c-.6.2-1.3.2-1.9-.1-.6-.3-1-.9-1.2-1.6v-.1c-.1-.5-.2-.9-.1-1.4.1-.4.3-.8.5-1.1.3-.3.7-.5 1.1-.7.6-.2 1.2-.1 1.8.2.5.3.9.9 1.1 1.6l.2.5-3.1.9c.1.3.3.5.6.6.3.1.6.2.9.1.5-.1.8-.4 1-.9l.8.6c-.1.3-.3.6-.6.9-.3.2-.7.4-1.1.5zm-1.3-4c-.2.1-.4.2-.6.4-.1.3-.1.6-.1.8l1.8-.5V26c-.1-.2-.2-.5-.4-.6H57zm5.7-1.3c-.2 0-.3.1-.5.1-.5.1-.8.4-.8.8l.9 3.2-1.3.3-1.4-4.9 1.2-.4.2.6c.1-.5.4-.9.9-1 .1 0 .3-.1.4-.1l.4 1.4zM45.2 42.7c-.6.2-1.3.2-1.9-.2-.6-.3-1-.9-1.2-1.6v-.1c-.1-.5-.2-.9-.1-1.4.1-.4.2-.8.5-1.1.3-.3.7-.5 1.1-.7.6-.2 1.2-.1 1.8.2.5.3.9.9 1.1 1.6l.2.5-3.1.9c.1.3.3.5.6.7.3.1.6.2.9.1.5-.1.8-.4 1-.9l.9.5c-.1.3-.3.6-.6.9-.5.3-.8.5-1.2.6zm-1.3-4c-.2.1-.4.2-.6.4-.1.3-.1.6-.1.8l1.8-.5v-.1c-.1-.2-.2-.5-.4-.6-.2 0-.5-.1-.7 0zm-19-3.6l.5-3.4 1.5-.4-.9 4.8.7 2.4-1.4.4-.7-2.4-3.5-3.5 1.5-.4 2.3 2.5zm3.1.4c-.1-.4-.2-.9-.1-1.4.1-.4.3-.8.6-1.1.3-.3.7-.6 1.1-.7.6-.2 1.2-.1 1.8.1.6.3 1 .8 1.2 1.4l.1.3c.2.7.2 1.4-.1 2-.7 1.2-2.2 1.6-3.4 1-.7-.3-1.1-.9-1.2-1.6zm1.3-.3c.1.4.3.7.6 1 .2.2.6.3.9.2.3-.1.5-.3.6-.6.1-.4.1-.8-.1-1.2-.1-.4-.3-.7-.6-1-.2-.2-.6-.3-.9-.2-.3.1-.5.3-.6.6-.1.3-.1.8.1 1.2zm7.5-.2c-.2.5-.6.9-1.2 1-.4.2-.9.1-1.3-.1-.4-.3-.7-.7-.8-1.2l-.9-3.2 1.3-.4.9 3.2c.1.5.5.7.9.6.4-.1.7-.4.8-.7l-1-3.4 1.3-.4 1.4 4.9-1.2.2-.2-.5zm4-4.6c-.2 0-.3.1-.5.1-.5.1-.8.4-.8.8l.9 3.2-1.3.4-1.4-4.9 1.2-.4.2.6c.1-.5.4-.9.9-1 .1 0 .3-.1.4-.1l.4 1.3zm23.9-9.6c-.1-.2 0-.4.1-.5.1-.2.3-.3.5-.3.2-.1.4-.1.6 0 .2.1.3.2.3.4.1.2 0 .4-.1.5-.1.2-.3.3-.5.3-.2.1-.4.1-.6 0-.2-.1-.3-.2-.3-.4zm3.1 5.7l-1.3.4-1.4-4.9 1.3-.4 1.4 4.9zm3.3-2.4c0-.2-.2-.3-.3-.3-.3 0-.6-.1-.8 0-1.2.1-2-.2-2.2-1-.1-.4 0-.9.2-1.2.3-.4.8-.7 1.3-.8.5-.2 1.1-.2 1.6 0 .4.2.8.5.9 1l-1.3.4c0-.2-.2-.3-.3-.4-.2-.1-.4-.1-.6 0-.2 0-.4.1-.5.3-.1.1-.1.3-.1.4 0 .1.2.3.3.3.2.1.5.1.8 0h.9c.8.1 1.2.4 1.4 1 .1.4 0 .9-.3 1.2-.4.4-.8.7-1.4.8-.4.1-.8.1-1.2.1-.3 0-.7-.2-.9-.4-.2-.2-.4-.4-.5-.7l1.2-.4c.1.2.2.4.4.5.2.1.5.1.7 0 .2 0 .4-.1.5-.3.2-.1.2-.3.2-.5zM41.4 39.7c-.2 0-.3.1-.5.1-.5.1-.8.4-.8.8l.9 3.2-1.3.4-1.4-4.9 1.2-.4.2.6c.1-.5.4-.9.9-1 .1 0 .3-.1.4-.1l.4 1.3zm9.3 1.3c-.1-.1-.2-.3-.3-.4-.2.4-.6.8-1.1.9-.4.1-.9.1-1.3-.1s-.7-.5-.8-.9c-.2-.5-.1-1 .2-1.4.4-.5.9-.8 1.5-.9l.6-.2-.1-.3c0-.2-.2-.4-.3-.5-.2-.1-.4-.1-.6 0-.2 0-.4.1-.5.3-.1.1-.1.3-.1.5l-1.3.4c-.1-.3-.1-.6 0-.9.1-.3.3-.6.6-.8.3-.2.7-.4 1-.5.5-.2 1.1-.2 1.6 0s.8.6.9 1.1l.6 2.1c.1.4.3.7.5 1v.1l-1.1.5zm-1.4-.6c.2-.1.4-.1.5-.3.1-.1.2-.3.3-.4l-.2-.8-.5.1c-.7.2-.9.5-.8 1v.1c0 .2.1.3.3.4.1 0 .3 0 .4-.1zm2.5-2.4c-.2-.6-.2-1.3 0-2 .2-.5.6-.9 1.2-1.1.5-.1.9-.1 1.3.2l-.7-2.5 1.3-.4 2 6.9-1.2.3-.2-.4c-.2.5-.6.8-1.1 1-.5.2-1.1.1-1.6-.3-.4-.3-.8-.9-1-1.7zm1.3-.3c.1.4.3.7.5 1 .2.2.5.3.8.2.4-.1.7-.4.7-.8l-.6-1.9c-.2-.3-.6-.4-1-.3-.5.2-.7.8-.4 1.8zm6-1.1v-3.3l1.4-.4-.3 6.2v.3c-.1.7-.5 1.2-1.2 1.4-.2.1-.4.1-.6.1l-.3-1 .2-.1c.2 0 .4-.1.5-.3.1-.1.2-.3.2-.5v-.4l-3.1-4.4 1.4-.4 1.8 2.8zm-43 19.9c-.1 0-.3-.1-.2-.3 0-.1.1-.2.2-.2l72.2-21c.1 0 .3.1.3.2s0 .2-.2.3l-72.3 21c.1 0 .1 0 0 0zm48.1-40.4l.8-2.9-2.2-2 17.1-4.9 1.4 4.9-17.1 4.9zm.6-4.3l1.3 1.2-.5 1.7L80 10.5l-.9-2.9-14.3 4.2z" fill="#1C6775"/><path fill="#1C6775" d="M45.8 21.5l.8-2.9-2.2-2 17.4-5.1 2.2 2-.8 2.9-17.4 5.1zm.6-4.4l1.3 1.2-.5 1.7 15.1-4.4.5-1.7-1.3-1.2-15.1 4.4z"/><path fill="#1C6775" d="M27.9 26.7l.8-2.9-2.2-2L43.2 17l2.2 2-.8 2.9-16.7 4.8zm.6-4.4l1.3 1.2-.5 1.7L43.8 21l.5-1.7-1.3-1.2-14.5 4.2z"/><path fill="#EA7626" d="M26.4 26.7L9.2 31.6l-1.1-3.9 17.1-5 1.8 1.7z"/><path fill="#EA7626" d="M9 32l-1.3-4.5 17.6-5.1 2.1 1.9-.7 2.7L9 32zm-.5-4l.9 3.3L26 26.5l.5-1.9-1.5-1.3L8.5 28z"/><path fill="#1C6775" stroke="#1B6775" stroke-width=".046" stroke-miterlimit="10" d="M29.8 73.7l-3.6 1.1c-.4.1-.8-.1-.9-.5l-1.1-3.6c-.1-.4.1-.8.5-.9l3.6-1.1c.4-.1.8.1.9.5l1.1 3.6c.1.4-.1.7-.5.9zm-5-3.6c-.2.1-.3.3-.3.5l1.1 3.6c.1.2.3.3.5.3l3.6-1.1c.2-.1.3-.3.3-.5l-1.1-3.6c-.1-.2-.3-.3-.5-.3l-3.6 1.1z"/><path fill="#F26C38" d="M27.9 73.8s-2.5-2.1-3.7-2.7c1.3.4 2.3.8 3.3 1.2l3.5-6.2-3.1 7.7z"/><path fill="none" stroke="#1B6775" stroke-width=".046" stroke-miterlimit="10" d="M33.3 67.4l9.4-2.9"/><path fill="#1C6775" stroke="#1B6775" stroke-width=".046" stroke-miterlimit="10" d="M42.8 64.7l-9.4 2.8c-.1 0-.1 0-.2-.1s0-.1.1-.2c0 0 0 0 0 0l9.4-2.8c.1 0 .1 0 .2.1 0 .1-.1.1-.1.2 0 0 0 0 0 0z"/><path fill="none" stroke="#1B6775" stroke-width=".046" stroke-miterlimit="10" d="M33.8 68.9l5.6-1.7"/><path fill="#1C6775" stroke="#1B6775" stroke-width=".046" stroke-miterlimit="10" d="M39.4 67.3L33.8 69c-.1 0-.1 0-.2-.1 0-.1 0-.1.1-.2 0 0 0 0 0 0l5.6-1.7c.1 0 .1 0 .2.1 0 .1 0 .2-.1.2 0 0 0 0 0 0z"/><path fill="none" stroke="#1B6775" stroke-width=".046" stroke-miterlimit="10" d="M34.2 70.4l7.9-2.4"/><path fill="#1C6775" stroke="#1B6775" stroke-width=".046" stroke-miterlimit="10" d="M42.1 68.2l-7.9 2.4c-.1 0-.1 0-.2-.1s0-.1.1-.2c0 0 0 0 0 0l7.9-2.4c.1 0 .1 0 .2.1s0 .1-.1.2c.1 0 .1 0 0 0z"/><path fill="none" stroke="#1B6775" stroke-width=".046" stroke-miterlimit="10" d="M34.7 71.9l9.4-2.8"/><path fill="#1C6775" stroke="#1B6775" stroke-width=".046" stroke-miterlimit="10" d="M44.1 69.2L34.7 72c-.1 0-.1 0-.2-.1 0-.1 0-.1.1-.2 0 0 0 0 0 0l9.4-2.8c.1 0 .1 0 .2.1 0 .1 0 .2-.1.2 0 0 0 0 0 0z"/><g stroke="#1B6775" stroke-width=".046" stroke-miterlimit="10"><path fill="#1C6775" d="M53 66.6l-3.6 1.1c-.4.1-.8-.1-.9-.5l-1.1-3.6c-.1-.4.1-.8.5-.9l3.6-1.1c.4-.1.8.1.9.5l1.1 3.6c.1.4-.1.8-.5.9zm-5-3.5c-.2.1-.3.3-.3.5l1.1 3.6c.1.2.3.3.5.3l3.6-1.1c.2-.1.3-.3.3-.5l-1.1-3.6c-.1-.3-.3-.4-.5-.3L48 63.1z"/><path fill="none" d="M56.5 60.4l9.4-2.9"/><path fill="#1C6775" d="M65.9 57.7l-9.4 2.8c-.1 0-.1 0-.2-.1 0-.1 0-.1.1-.2 0 0 0 0 0 0l9.4-2.8c.1 0 .1 0 .2.1s0 .1-.1.2c0 0 0 0 0 0z"/><path fill="none" d="M56.9 61.9l5.7-1.7"/><path fill="#1C6775" d="M62.6 60.3L57 62c-.1 0-.1 0-.2-.1 0-.1 0-.1.1-.2 0 0 0 0 0 0l5.6-1.7c.1 0 .1 0 .2.1 0 .1 0 .2-.1.2 0 0 0 0 0 0z"/><path fill="none" d="M57.4 63.4l7.9-2.4"/><path fill="#1C6775" d="M65.3 61.2l-7.9 2.4c-.1 0-.1 0-.2-.1 0-.1 0-.1.1-.2 0 0 0 0 0 0l7.9-2.4c.1 0 .1 0 .2.1 0 .1 0 .1-.1.2 0 0 0 0 0 0z"/><path fill="none" d="M57.9 64.9l9.4-2.8"/><path fill="#1C6775" d="M67.3 62.2L57.9 65c-.1 0-.1 0-.2-.1s0-.1.1-.2c0 0 0 0 0 0l9.4-2.8c.1 0 .1 0 .2.1s0 .2-.1.2c0 0 0 0 0 0z"/></g><g stroke="#1B6775" stroke-width=".046" stroke-miterlimit="10"><path fill="#1C6775" d="M76.2 59.7l-3.6 1.1c-.4.1-.8-.1-.9-.5l-1.1-3.6c-.1-.4.1-.8.5-.9l3.6-1.1c.4-.1.8.1.9.5l1.1 3.6c.1.4-.2.8-.5.9zm-5-3.6c-.2.1-.3.3-.3.5l1.1 3.6c.1.2.3.3.5.3l3.6-1.1c.2-.1.3-.3.3-.5l-1.1-3.6c-.1-.2-.3-.3-.5-.3l-3.6 1.1z"/><path fill="none" d="M79.7 53.4l9.4-2.8"/><path fill="#1C6775" d="M89.1 50.7l-9.4 2.8c-.1 0-.1 0-.2-.1s0-.1.1-.2c0 0 0 0 0 0l9.4-2.8c.1 0 .1 0 .2.1 0 .1 0 .2-.1.2 0 0 0 0 0 0z"/><path fill="none" d="M80.1 54.9l5.6-1.7"/><path fill="#1C6775" d="M85.8 53.4L80.2 55c-.1 0-.1 0-.2-.1 0-.1 0-.1.1-.2 0 0 0 0 0 0l5.6-1.7c.1 0 .1 0 .2.1 0 .2 0 .2-.1.3 0 0 0 0 0 0z"/><path fill="none" d="M80.6 56.4l7.9-2.3"/><path fill="#1C6775" d="M88.5 54.2l-7.9 2.4c-.1 0-.1 0-.2-.1s0-.1.1-.2c0 0 0 0 0 0l7.9-2.4c.1 0 .1 0 .2.1 0 .1 0 .2-.1.2 0 0 0 0 0 0z"/><path fill="none" d="M81 58l9.5-2.9"/><path fill="#1C6775" d="M90.5 55.3l-9.4 2.8c-.1 0-.1 0-.2-.1 0-.1 0-.1.1-.2 0 0 0 0 0 0l9.4-2.8c.1 0 .1 0 .2.1 0 .1 0 .1-.1.2 0 0 0 0 0 0z"/></g><path d="M40.8 54.9c1.4-.4 2.7.3 3.1 1.6.4 1.4-.4 2.6-1.8 3-1.4.4-2.7-.2-3.1-1.6-.3-1.3.5-2.6 1.8-3zm1.1 3.7c.7-.2 1.1-.9.9-1.8-.2-.8-1-1.2-1.7-1-.7.2-1.2.9-.9 1.8.2.8 1 1.2 1.7 1zm2-4.5l1.1-.3.2.8c0 .2.1.3.1.3 0-.7.4-1.3 1.1-1.5h.2l.3 1.1s-.1 0-.3.1c-.5.1-.9.6-.9 1.3 0 .2 0 .5.1.7l.5 1.7-1.1.3-1.3-4.5zm4.8-3.2l1.1-.3 1.5 5.2L54 55l.3 1-3.8 1-1.8-6.1zm4.3-1.3l1.1-.3.3 1-1.1.3-.3-1zm.5 1.8l1.1-.3 1.3 4.4-1.1.3-1.3-4.4zm3.1 2.4s.6.3 1.3.1c.3-.1.5-.3.5-.6-.2-.7-2.3.1-2.7-1.4-.2-.8.4-1.5 1.3-1.8 1-.3 1.6.1 1.6.1l-.2.9s-.5-.3-1.2-.1c-.3.1-.5.3-.4.6.2.6 2.3-.1 2.7 1.3.2.7-.3 1.5-1.3 1.8-1.1.3-1.9-.2-1.9-.2l.3-.7zm3.1-3.2l-.6.2-.3-.9.6-.2-.4-1.3 1.1-.3.4 1.3 1-.3.3.9-1 .3.5 1.7c.2.7.8.7 1.1.6.1 0 .2-.1.2-.1l.3 1s-.1.1-.3.1c-.6.2-1.9.4-2.3-1.1l-.6-1.9zm4-4.1l1.1-.3.3 1-1.1.3-.3-1zm.5 1.8l1.1-.3 1.3 4.4-1.1.3-1.3-4.4zm2.5.2l-.6.2-.3-.9.6-.2-.4-1.3 1.1-.3.4 1.3 1-.3.3.9-1 .3.5 1.7c.2.7.8.7 1.1.6.1 0 .2-.1.2-.1l.3 1s-.1.1-.3.1c-.6.2-1.9.4-2.3-1.1l-.6-1.9z" fill="#EE7623"/></svg>