<svg xmlns="http://www.w3.org/2000/svg" xmlns:xlink="http://www.w3.org/1999/xlink" viewBox="0 0 107.5 107.6"><defs><path id="a" d="M105.6 49.4l-2.4-3c-1.1-1.3-1.4-3.1-.9-4.7l1.1-3.7c.9-3.2-.5-6.5-3.4-8.1L96.6 28c-1.5-.8-2.5-2.3-2.7-4l-.4-3.8c-.3-3.2-2.9-5.9-6.2-6.2l-3.8-.4c-1.7-.2-3.2-1.2-4-2.7l-1.9-3.4c-1.6-2.9-5-4.3-8.1-3.4l-3.7 1.1c-1.6.5-3.4.1-4.7-.9l-3-2.4c-2.5-2.1-6.2-2.1-8.8 0l-3 2.4c-1.3 1.1-3.1 1.4-4.7.9l-3.6-1c-3.2-.9-6.5.5-8.1 3.4L28 10.9c-.8 1.5-2.3 2.5-4 2.7l-3.8.4c-3.2.4-5.9 3-6.2 6.2l-.4 3.8c-.2 1.7-1.2 3.2-2.7 4l-3.4 1.9c-2.9 1.6-4.3 5-3.4 8.1l1.1 3.7c.5 1.6.1 3.4-.9 4.7l-2.4 3c-2.1 2.5-2.1 6.2 0 8.8l2.4 3c1.1 1.3 1.4 3.1.9 4.7l-1.1 3.7c-.9 3.2.5 6.5 3.4 8.1l3.4 1.9c1.5.8 2.5 2.3 2.7 4l.4 3.8c.3 3.2 2.9 5.9 6.2 6.2l3.8.4c1.7.2 3.2 1.2 4 2.7l1.9 3.4c1.6 2.9 5 4.3 8.1 3.4l3.7-1.1c.5-.1 1-.2 1.4-.2 1.2 0 2.3.4 3.3 1.1l3 2.4c2.5 2.1 6.2 2.1 8.8 0l3-2.4c1.3-1.1 3.1-1.4 4.7-.9l3.7 1.1c3.1.9 6.5-.5 8.1-3.4l1.9-3.4c.8-1.5 2.3-2.5 4-2.7l3.8-.4c3.2-.3 5.9-2.9 6.2-6.2l.4-3.8c.2-1.7 1.2-3.2 2.7-4l3.4-1.9c2.9-1.6 4.3-5 3.4-8.1l-1.1-3.7c-.5-1.6-.1-3.4.9-4.7l2.4-3c2-2.6 2-6.3-.1-8.8z"/></defs><clipPath id="b"><use xlink:href="#a" overflow="visible"/></clipPath><g clip-path="url(#b)"><path d="M55.8 53.1c-.2.6-.4 1.2-.6 1.9-.2.7-.6 1.4-.8 2.1-.3.7-.6 1.4-1 2.1-.4.7-.7 1.4-1.2 2-.4.6-.8 1.3-1.3 1.8-.5.6-.9 1.1-1.4 1.6-.5.5-.9 1-1.3 1.3-.5.4-.9.7-1.2 1-.4.3-.7.5-1 .7l-.9.6 1-.5c.3-.2.7-.3 1.1-.6.4-.3.9-.6 1.4-.9.5-.3 1-.8 1.5-1.2.3-.2.5-.5.8-.7.2-.3.5-.6.7-.8.5-.6 1-1.2 1.4-1.8.5-.6.8-1.4 1.2-2 .4-.7.7-1.4 1-2.2.3-.7.6-1.5.8-2.2l.6-2.1h-.8zm1.4-5.2v-.7s0 .2-.1.7h.1z" fill="#1B6775" stroke="#1B6775" stroke-width=".25" stroke-miterlimit="10"/><path fill="#1B6775" stroke="#1B6775" stroke-width=".25" stroke-miterlimit="10" d="M25.9 108.4c-.1 0-.3-.1-.3-.2L3.4 83.5c-.1-.1-.1-.2-.1-.4 0-.1.1-.3.2-.3.2-.1 17.6-12.6 22-18.5 1.9-2.5 3.1-4.5 4.1-6.2 1.5-2.4 2.7-4.4 5.1-7 3.8-4.1 8.4-9.4 11-14.3 2.3-4.4 5.6-13.2 4.9-18-.2-1.3-.1-1.4.4-1.9.3-.3.7-.5 1.2-.5 1.8 0 4.3 1.5 5.5 3.2l.1.1c1.7 2.4 4.2 6.1.9 13.9-1.8 4.2-2.3 6.9-1.5 8.1.5.7 1.6.9 3.2.5.5-.1 1-.2 1.6-.4 1.8-.4 3.6-.8 5.1-.8 2.7 0 4.3 1.3 5.2 4.1 1.6 5.3-3.3 30.1-7.6 34.7-2.5 2.7-6.5 2.9-10 2.9H51c-1.2 0-2.6 0-3.9.3-5.8 1.1-14.2 8.2-20.6 25.1-.2.2-.3.3-.6.3.1 0 .1 0 0 0zM4.4 83.3l21.4 23.8c8.2-21 18.1-24.4 21-25 1.3-.2 2.8-.3 4-.3h3.7c4.2 0 7.3-.4 9.4-2.6 4-4.3 8.8-28.8 7.4-33.8-.7-2.4-2-3.4-4.3-3.4-1.4 0-3.1.4-4.9.8-.5.1-1 .2-1.6.4-2.1.5-3.5.1-4.2-.9-1-1.5-.5-4.3 1.4-9 3.1-7.3.8-10.7-.8-13l-.1-.1c-1.3-1.9-3.6-2.8-4.7-2.8-.3 0-.4.1-.5.2-.2.2-.4-.2-.2 1.1.8 5.6-3.3 15.3-5 18.5-2.6 5.1-7.3 10.4-11.1 14.5-2.4 2.5-3.5 4.4-5 6.9-1.1 1.7-2.3 3.7-4.2 6.3C22 70.5 7.2 81.3 4.4 83.3z"/><radialGradient id="c" cx="31.727" cy="90.002" r=".024" gradientTransform="translate(-64.947 -302.058) scale(3.7037)" gradientUnits="userSpaceOnUse"><stop offset="0" stop-color="#fabc9a"/><stop offset=".559" stop-color="#f9b28a"/><stop offset="1" stop-color="#f8a47b"/></radialGradient><path fill="url(#c)" d="M52.6 31.3h-.1.1z"/><path fill="#FFF" d="M69.4 40.9c2.3-.6 5.1 2.1 5.8 5.5.7 3.5.6 4.8-7.6 5.2-8.2.5-10.5.2-10.6-2.7-.1-3-1.7-4.5 4.4-6 6-1.4 5.6-1.4 8-2z"/><path fill="#1B6775" stroke="#1B6775" stroke-width=".25" stroke-miterlimit="10" d="M62.5 52.3c-3.8 0-5.9-.5-6-3.4 0-.5-.1-1-.1-1.4-.3-2.4-.3-3.8 4.9-5 3.9-.9 5.1-1.3 6.1-1.6.6-.2 1.1-.3 1.9-.5.3-.1.5-.1.8-.1 2.4 0 4.9 2.6 5.6 6 .3 1.6.5 2.8-.2 3.8-.9 1.2-3 1.7-7.8 2-2.5.1-4 .2-5.2.2zm7.5-11c-.2 0-.4 0-.5.1-.8.2-1.3.3-1.9.5-1 .3-2.3.6-6.2 1.6-4.6 1.1-4.5 2.1-4.2 4 .1.4.1.9.2 1.5.1 1.7.8 2.5 5.1 2.5 1.2 0 2.7-.1 5-.2 4.3-.2 6.4-.7 7.1-1.6.5-.6.4-1.5.1-3-.6-3.1-2.7-5.4-4.7-5.4z"/><path fill="#FFF" d="M72.2 50.9s1.9 2.7 1.9 5.8c0 3.1.4 5.1-5.5 4.8-5.8-.4-12.1 1.1-13.6-2.3-1.4-3.3 0-6.9 2-7.5 2.1-.5 15.2-.8 15.2-.8z"/><path fill="#1B6775" stroke="#1B6775" stroke-width=".25" stroke-miterlimit="10" d="M69.8 62h-1.3c-1.4-.1-3.1-.1-4.8 0h-2.3c-2.8 0-5.9-.2-6.9-2.6-.8-1.9-.8-4.1 0-5.9.5-1.1 1.4-2 2.3-2.2 2.1-.6 14.7-.8 15.2-.9.2 0 .3.1.4.2.1.1 2 2.9 2 6.1v.5c0 1.5 0 2.8-.9 3.7-.6.8-1.8 1.1-3.7 1.1zm-3.5-1c.9 0 1.6 0 2.3.1 2.3.1 3.7-.1 4.4-.7.6-.6.6-1.7.6-3v-.5c0-2.4-1.3-4.7-1.7-5.4-4.6.1-13.2.4-14.7.8-.7.2-1.3.8-1.7 1.7-.7 1.5-.7 3.5 0 5.1.7 1.6 2.9 2 6 2h2.3c.8-.1 1.6-.1 2.5-.1z"/><path fill="#FFF" d="M70.5 70.2c-.9.6-4.9 0-10.1-1.3-5.2-1.3-5.7-1.1-6.2-3.8-.5-2.7-.2-4.2 3.7-4.4 3.9-.2 12.6-.8 14.4 2 1.8 2.9.1 6.2-1.8 7.5z"/><path fill="#1B6775" stroke="#1B6775" stroke-width=".25" stroke-miterlimit="10" d="M69.2 70.9c-2.2 0-6.1-.8-8.9-1.6-.6-.2-1.2-.3-1.7-.4-3.7-.9-4.4-1.1-4.9-3.8-.3-1.6-.3-2.8.4-3.6.6-.8 1.8-1.2 3.8-1.3h.3c1.4-.1 3.3-.2 5.3-.2 5.2 0 8.2.8 9.2 2.5 1.9 3.1.1 6.7-1.9 8.1-.4.2-.9.3-1.6.3zm-5.8-10c-2 0-3.9.1-5.3.2h-.3c-1.7.1-2.6.4-3.1 1s-.4 1.5-.2 2.9c.4 2.1.5 2.1 4.2 3 .5.1 1 .3 1.7.4 3.9 1 7 1.5 8.7 1.5.8 0 1-.1 1.1-.2 1.7-1.2 3.3-4.3 1.7-6.9-.6-.8-2.5-1.9-8.5-1.9z"/><path fill="#FFF" d="M55.5 67.6s-2.4-.1-3.3 2.4c-1 2.5-1.4 4.3 3.5 6 4.9 1.7 10.4 4.2 12.4 2 2-2.1 4-6.3 1.5-7.4-2.6-1.1-14.1-3-14.1-3z"/><path fill="#1B6775" stroke="#1B6775" stroke-width=".25" stroke-miterlimit="10" d="M65.6 79.2h0c-2.1 0-5.1-1.1-7.9-2.1-.8-.3-1.5-.6-2.3-.8-2.3-.8-3.6-1.7-4.1-2.8-.5-1.2-.2-2.4.4-3.8 1-2.6 3.3-2.7 3.7-2.7h.1c.5.1 11.6 1.9 14.2 3 .7.3 1.2.9 1.4 1.7.4 1.9-1.1 4.7-2.8 6.5-.6.7-1.5 1-2.7 1zM55.4 68c-.3 0-2.1.1-2.8 2.1-.5 1.3-.8 2.2-.4 3.1.4.8 1.6 1.6 3.6 2.3.8.3 1.5.5 2.3.8 2.7 1 5.6 2 7.6 2h0c.9 0 1.6-.2 2-.7 1.5-1.5 2.8-4.1 2.5-5.6-.1-.5-.4-.8-.8-1-2.5-1-13.9-2.9-14-3z"/><path fill="#1B6775" stroke="#1B6775" stroke-width=".125" stroke-linecap="round" stroke-linejoin="round" stroke-miterlimit="10" d="M40.3 82.6s-.2 0-.5-.2c-.2-.1-.3-.2-.5-.3-.2-.1-.4-.2-.6-.4-.2-.2-.5-.3-.7-.5-.2-.2-.5-.4-.7-.7-.3-.2-.5-.5-.8-.8-.2-.3-.5-.5-.7-.8-.5-.6-.9-1.2-1.3-1.7-.2-.3-.4-.6-.5-.8-.2-.3-.3-.5-.4-.8-.5-1-.8-1.7-.8-1.7s.5.5 1.2 1.4c.2.2.3.4.5.7.2.3.4.5.6.8.2.3.4.5.6.8.2.3.4.6.7.8.5.5.9 1.1 1.4 1.6.2.2.4.5.6.7l.6.6.5.5c.2.1.3.3.4.4l.4.4z"/><path fill="#FFF" d="M18.5 112.5C8.6 104.2 1.1 95.2-2 84.6l20.9-16.8c.7 5.4 17.8 22.5 24.2 22.1l-24.6 22.6z"/><path fill="#1C6775" d="M15.2 71.1c.2 0 .3.1.3.2.2.5.4 1 .6 1.4.2.5.5 1 .8 1.4.5.9 1.1 1.9 1.6 2.8 1.1 1.8 2.4 3.6 3.7 5.3 1.3 1.7 2.7 3.3 4.3 4.8 1.5 1.5 3.2 2.9 5 4.1.1.1.1.1.1.2s-.1.1-.2.1c-1-.5-1.9-1.1-2.8-1.7-.4-.3-.9-.7-1.3-1-.4-.4-.8-.7-1.2-1.1-1.6-1.5-3-3.1-4.4-4.9-.7-.9-1.3-1.7-2-2.6l-1.8-2.7c-.6-.9-1.1-1.9-1.6-2.8-.3-.5-.5-1-.8-1.5-.2-.5-.5-1-.6-1.6v-.2l.3-.2z"/><path fill="#1B6775" stroke="#1B6775" stroke-width=".25" stroke-miterlimit="10" d="M35.9 86.6l-.9-.7c.1.1.2.2.3.2-.3-.2-.5-.3-.8-.5l-.8-.6c-.3-.2-.5-.4-.8-.6l-.4-.3-.4-.3c-.3-.2-.5-.4-.8-.6-1-.9-2-1.8-2.9-2.7-1.9-1.9-3.6-3.9-5.2-6.1-.8-1.1-1.5-2.2-2.2-3.3-.5-.8-.9-1.6-1.3-2.4l1.2-1.6c-.1-.1-.1-.3-.2-.4-.6.1-1.8.4-2 .6h-.1s-.1 0-.1.1c-1.8 1.5-3.6 2.9-5.5 4.4-1.8 1.5-3.7 2.9-5.5 4.4L2 80.7c-.9.7-1.8 1.5-2.7 2.3L-2 84.1c-.4.4-.9.8-1.3 1.2-.1.1-.1.2 0 .2 0 0 0 0 0 0 .1.1.2.1.2 0 .5-.3.9-.7 1.4-1l1.4-1.1c.9-.7 1.9-1.4 2.8-2.2L8 76.8c1.8-1.5 3.6-3 5.5-4.4.4-.3.8-.7 1.2-1l.4-.3c1.2-1 2.3-1.9 3.5-2.9.5 1.1 1.1 2.1 1.7 3.2.7 1.2 1.4 2.3 2.2 3.4 1.6 2.2 3.3 4.3 5.3 6.2 1 1 2 1.9 3 2.7.3.2.5.4.8.6l.4.3.4.3c.3.2.5.4.8.6l.8.6.9.6c.3.2.6.4.9.5.6.3 1.2.7 1.8 1 .3.1.6.3.9.5l.9.4c.3.1.6.3.9.4.3.1.6.2 1 .4h.1c.3.1.5.2.8.3-1.4 1.3-2.9 2.6-4.3 3.9-2.3 2.1-4.5 4.1-6.8 6.2l-6.7 6.2c-1.1 1-2.2 2.1-3.3 3.1l-1.7 1.6-1.6 1.6c-.1.1-.1.2 0 .2.1.1.2.1.2 0 .6-.5 1.2-1 1.7-1.5l1.7-1.5c1.2-1 2.3-2 3.4-3.1l6.8-6.2c2.3-2 4.5-4.1 6.8-6.2 1.9-1.7 3.7-3.4 5.6-5.1-2.2-.1-4.7-.9-8.1-2.8z"/><path fill="#1B6775" d="M20.7 66.7c.1-.3 2 13.9 24 22.7l-2.4.9-6-3.2-7.6-5.1-4.2-5-4.2-5.5-.9-3.8 1.3-1z"/></g><path fill="#EC7625" stroke="#EC7625" stroke-width=".75" stroke-miterlimit="10" d="M105.6 49.4l-2.4-3c-1.1-1.3-1.4-3.1-.9-4.7l1.1-3.7c.9-3.2-.5-6.5-3.4-8.1L96.6 28c-1.5-.8-2.5-2.3-2.7-4l-.4-3.8c-.3-3.2-2.9-5.9-6.2-6.2l-3.8-.4c-1.7-.2-3.2-1.2-4-2.7l-1.9-3.4c-1.6-2.9-5-4.3-8.1-3.4l-3.7 1.1c-1.6.5-3.4.1-4.7-.9l-3-2.4c-2.5-2.1-6.2-2.1-8.8 0l-3 2.4c-1.3 1.1-3.1 1.4-4.7.9l-3.6-1c-3.2-.9-6.5.5-8.1 3.4L28 10.9c-.8 1.5-2.3 2.5-4 2.7l-3.8.4c-3.2.4-5.9 3-6.2 6.2l-.4 3.8c-.2 1.7-1.2 3.2-2.7 4l-3.4 1.9c-2.9 1.6-4.3 5-3.4 8.1l1.1 3.7c.5 1.6.1 3.4-.9 4.7l-2.4 3c-2.1 2.5-2.1 6.2 0 8.8l2.4 3c1.1 1.3 1.4 3.1.9 4.7l-1.1 3.7c-.9 3.2.5 6.5 3.4 8.1l3.4 1.9c1.5.8 2.5 2.3 2.7 4l.4 3.8c.3 3.2 2.9 5.9 6.2 6.2l3.8.4c1.7.2 3.2 1.2 4 2.7l1.9 3.4c1.6 2.9 5 4.3 8.1 3.4l3.7-1.1c.5-.1 1-.2 1.4-.2 1.2 0 2.3.4 3.3 1.1l3 2.4c2.5 2.1 6.2 2.1 8.8 0l3-2.4c1.3-1.1 3.1-1.4 4.7-.9l3.7 1.1c3.1.9 6.5-.5 8.1-3.4l1.9-3.4c.8-1.5 2.3-2.5 4-2.7l3.8-.4c3.2-.3 5.9-2.9 6.2-6.2l.4-3.8c.2-1.7 1.2-3.2 2.7-4l3.4-1.9c2.9-1.6 4.3-5 3.4-8.1l-1.1-3.7c-.5-1.6-.1-3.4.9-4.7l2.4-3c2-2.6 2-6.3-.1-8.8zm-1.4 7.6l-2.4 3c-1.4 1.8-1.9 4.2-1.3 6.3l1.1 3.7c.7 2.3-.4 4.8-2.5 6l-3.4 1.9c-2 1.1-3.3 3.1-3.6 5.4l-.4 3.8c-.3 2.4-2.2 4.3-4.6 4.6l-3.8.4c-2.3.3-4.3 1.6-5.4 3.6L76 99.1c-1.2 2.1-3.7 3.2-6 2.5l-3.7-1.1c-2.2-.6-4.6-.2-6.3 1.3l-3 2.4c-.9.8-2.1 1.1-3.2 1.1s-2.3-.4-3.2-1.1l-3-2.4c-1.8-1.4-4.2-1.9-6.3-1.3l-3.7 1.1c-2.3.7-4.8-.4-6-2.5l-1.9-3.4c-1.1-2-3.1-3.3-5.4-3.6l-3.8-.4c-2.4-.3-4.3-2.2-4.6-4.6l-.4-3.8c-.3-2.3-1.6-4.3-3.6-5.4L8.5 76c-2.1-1.2-3.2-3.6-2.5-6l1-3.6c.6-2.2.2-4.6-1.3-6.3l-2.4-3c-1.5-1.9-1.5-4.6 0-6.5l2.4-3c1.4-1.8 1.9-4.2 1.3-6.3l-1.1-3.7c-.7-2.3.4-4.8 2.5-6l3.4-1.9c2-1.1 3.3-3.1 3.6-5.4l.4-3.8c.3-2.4 2.2-4.3 4.6-4.6l3.8-.4c2.3-.3 4.3-1.6 5.4-3.6l1.9-3.4c1.2-2.1 3.6-3.2 6-2.5l3.7 1c2.2.6 4.6.2 6.3-1.3l3-2.4c1.9-1.5 4.6-1.5 6.5 0l3 2.4c1.8 1.4 4.2 1.9 6.3 1.3L70 5.9c2.3-.7 4.8.4 6 2.5l1.9 3.4c1.1 2 3.1 3.3 5.4 3.6l3.8.4c2.4.3 4.3 2.2 4.6 4.6l.4 3.8c.3 2.3 1.6 4.3 3.6 5.4l3.4 1.9c2.1 1.2 3.2 3.7 2.5 6l-1.1 3.7c-.6 2.2-.2 4.6 1.3 6.3l2.4 3c1.5 1.9 1.5 4.6 0 6.5z"/><path fill="#1B6775" d="M20.9 66.4l2.3 1-2.5 1.9s-.8-1.5-.6-1.6c.1-.1.8-1.3.8-1.3zm23.8 23l-2.1-5.2-3.9 3 1.9 1.7z"/></svg>