<svg xmlns="http://www.w3.org/2000/svg" xmlns:xlink="http://www.w3.org/1999/xlink" viewBox="0 0 187.6 108.9"><path d="M55.3 13.7S50 15 49.6 15s-6.3 5.2-6.3 5.2l-2 5.6 14.2-.8-.2-11.3zm1.3 60.5l-1.3-9.9-.4-21.2.9-3.8 5.1-9.1-1.6-4.7-21.1 1.1-9 4.7-13.4 21.8-9.4 15-2.3 6.7-.3-.2-.6 2.7-.6 1.7.2.1-2 9.1 31.1 20.7-.2-7 2 .2.1.1h.7l5.4.6-1.1-.8 5.7-.2 11-4.4 5.4-5.7 4.8-7.3 4-6.5z" fill="#FFF"/><path fill="#FFF" d="M187.6 12.3l-.4 55.6c-.1 6.2-5.1 11.3-11.4 11.2L65 78.2c-6.2-.1-11.3-5.1-11.2-11.4l.4-55.6C54.3 5 59.4 0 65.6.1l110.7.8c6.3 0 11.3 5.1 11.3 11.4z"/><path fill="#1C6775" d="M187.6 12.3l-.4 55.6c-.1 6.2-5.1 11.3-11.4 11.2L65 78.2c-6.2-.1-11.3-5.1-11.2-11.4l.4-55.6C54.3 5 59.4 0 65.6.1l110.7.8c6.3 0 11.3 5.1 11.3 11.4zM55.9 66.9c0 5.1 4.1 9.3 9.2 9.3l110.7.8c5.1 0 9.3-4.1 9.3-9.2l.4-55.6c0-5.1-4.1-9.3-9.2-9.3L65.6 2.1c-5.1 0-9.3 4.1-9.3 9.2l-.4 55.6z"/><path fill="#1C6775" stroke="#1C6775" stroke-width=".125" stroke-miterlimit="10" d="M187.6 12.3l-.4 55.6c-.1 6.2-5.1 11.3-11.4 11.2L65 78.2c-6.2-.1-11.3-5.1-11.2-11.4l.4-55.6C54.3 5 59.4 0 65.6.1l110.7.8c6.3 0 11.3 5.1 11.3 11.4zM55.9 66.9c0 5.1 4.1 9.3 9.2 9.3l110.7.8c5.1 0 9.3-4.1 9.3-9.2l.4-55.6c0-5.1-4.1-9.3-9.2-9.3L65.6 2.1c-5.1 0-9.3 4.1-9.3 9.2l-.4 55.6z"/><path fill="#1C6775" d="M183.2 40.7c0 1.4-.9 2.5-2.2 2.9-1.6.5-3.4-.4-3.9-2.1-.5-1.6.4-3.4 2.1-3.9s3.4.4 3.9 2.1c.1.3.1.6.1 1zm-5.9-.1c0 1.6 1.2 2.8 2.8 2.8 1.6 0 2.8-1.2 2.8-2.8 0-1.1-.6-2-1.5-2.5-1.4-.7-3.1-.2-3.8 1.2-.2.4-.3.9-.3 1.3z"/><path fill="#1E6875" d="M181.7 37.5c1.6.9 2.2 3 1.3 4.7-.4.7-1.1 1.3-2 1.6-1.7.5-3.6-.4-4.2-2.1-.6-1.8.3-3.7 2.1-4.4h.1c.9-.4 1.9-.2 2.7.2zm-.5 1c-.6-.3-1.2-.3-1.8-.1-1.3.4-2.1 1.7-1.7 3 .2.7.6 1.2 1.2 1.6.3.2.6.3 1 .3.3 0 .7 0 1-.1 1.3-.4 2.1-1.8 1.7-3.2-.3-.7-.7-1.2-1.4-1.5z"/><path fill="#1C6775" d="M183.6 40.5c0 .6-.2 1.2-.5 1.7-.5.8-1.2 1.4-2 1.6-1.8.6-3.8-.4-4.4-2.2-.6-1.9.4-3.9 2.2-4.5h.1c.9-.3 1.9-.2 2.8.3.8.5 1.4 1.3 1.7 2.2.1.3.1.6.1.9zm-6.8 0c0 .4.1.7.2 1.1.6 1.7 2.3 2.6 4 2.1.8-.3 1.5-.8 1.9-1.5.9-1.6.4-3.5-1.2-4.4-.8-.4-1.7-.6-2.6-.3-1.4.3-2.3 1.6-2.3 3zm6 .3c0 1.2-.8 2.2-1.9 2.5-.7.2-1.5.1-2.1-.2-.6-.4-1.1-1-1.3-1.7-.3-1.4.5-2.8 1.8-3.2.6-.2 1.3-.1 1.9.1.6.3 1.1.8 1.3 1.5.3.3.3.7.3 1zm-5.1-.1c0 .2 0 .4.1.6.2.6.6 1.2 1.1 1.5.3.2.6.3.9.3.3 0 .7 0 1-.1.6-.2 1.2-.6 1.5-1.2.3-.6.3-1.3.1-1.9-.2-.6-.6-1.1-1.2-1.3-.5-.3-1.2-.3-1.7-.1-1.1.3-1.8 1.2-1.8 2.2zM60.5 32.5L60.4 47c0 .3-.3.6-.6.6s-.6-.3-.6-.6l.1-14.5c0-.3.3-.6.6-.6.4 0 .6.3.6.6z"/><defs><path id="a" d="M176 9.2l-.5 61.6-111.6-.9.5-61.6 111.6.9z"/></defs><clipPath id="b"><use xlink:href="#a" overflow="visible"/></clipPath><g clip-path="url(#b)"><path fill="#FFF" d="M116.2-22.9l-62.5 35-.8 60.4 61.6 36.7 62.5-35 .8-60.4z"/><path fill="#EC7625" d="M114.5 107.1L54.7 71.5l.2-.1 60.6-33.9h.1L175.3 73l-.2.1"/><path fill="#EC7625" stroke="#EC7625" stroke-width=".108" stroke-linecap="round" stroke-linejoin="round" stroke-miterlimit="10" d="M54.8 71.7l.8-58.4h.1l60.7-34-.8 58.4h-.1l-60.7 34zm1-58.4l-.8 58 60.3-33.8.8-57.9-60.3 33.7z"/><path fill="#EC7625" stroke="#EC7625" stroke-width=".108" stroke-linecap="round" stroke-linejoin="round" stroke-miterlimit="10" d="M175.2 73.2l-.2-.1-59.7-35.5.8-58.4.2.1 60.4 29.2-1.5 64.7zm-59.7-35.7l59.4 35.3L176.1 7l-59.8-27.4-.8 57.9z"/><path fill="#FFF" d="M94.4 37.1l.3-23.1 16.5-9.3-.3 23.1z"/><path fill="#EC7625" stroke="#EC7625" stroke-width=".054" stroke-linecap="round" stroke-linejoin="round" stroke-miterlimit="10" d="M94.8 14.1l-.3 22.8 16.3-9.1.3-22.8-16.3 9.1z"/><path fill="#FFF" d="M95.4 35.3l.3-20.7 14.4-8.1-.2 20.7z"/><path fill="#EC7625" stroke="#EC7625" stroke-width=".054" stroke-linecap="round" stroke-linejoin="round" stroke-miterlimit="10" d="M95.3 35.5l.3-20.9 14.7-8.2-.3 20.9-14.7 8.2zm.5-20.8l-.3 20.4 14.2-7.9.3-20.5-14.2 8z"/><path fill="#FFF" d="M109.9 27.2l-1.8-1.1-12.6 7.1-.1 2.1z"/><path fill="#EC7625" stroke="#EC7625" stroke-width=".005" stroke-linecap="round" stroke-linejoin="round" stroke-miterlimit="10" d="M95.3 35.5v-2.3l12.7-7.1 2 1.2-14.7 8.2z"/><path fill="#FFF" d="M108.1 26.1l.2-18.6 1.8-1-.2 20.7z"/><path fill="#EC7625" stroke="#EC7625" stroke-width=".005" stroke-linecap="round" stroke-linejoin="round" stroke-miterlimit="10" d="M110 27.4l-2-1.2.2-18.7 2-1.1-.2 21z"/><path fill="#FFF" d="M102.7 29.2l.2-18.6-1.3.7-.3 18.6z"/><path fill="#EC7625" stroke="#EC7625" stroke-width=".054" stroke-linecap="round" stroke-linejoin="round" stroke-miterlimit="10" d="M101.2 30.1l.2-18.9 1.6-.9-.2 18.9-1.6.9z"/><path fill="#FFF" d="M135.8 37.6l.3-23.1-16.3-9.6-.3 23z"/><path fill="#EC7625" stroke="#EC7625" stroke-width=".054" stroke-linecap="round" stroke-linejoin="round" stroke-miterlimit="10" d="M119.4 28l.3-23.3 16.5 9.8-.3 23.3-16.5-9.8z"/><path fill="#FFF" d="M134.8 35.8l.2-20.7-14.2-8.4-.3 20.6z"/><path fill="#EC7625" stroke="#EC7625" stroke-width=".054" stroke-linecap="round" stroke-linejoin="round" stroke-miterlimit="10" d="M120.4 27.4l.3-20.9 14.4 8.6-.2 20.9-14.5-8.6zm.5-20.5l-.3 20.4 14 8.3.3-20.4-14-8.3z"/><path fill="#FFF" d="M120.5 27.3l1.8-1 12.5 7.4v2.1z"/><path fill="#EC7625" stroke="#EC7625" stroke-width=".005" stroke-linecap="round" stroke-linejoin="round" stroke-miterlimit="10" d="M120.3 27.3l2-1.1 12.6 7.5V36l-14.6-8.7z"/><path fill="#FFF" d="M122.3 26.3l.3-18.6-1.8-1-.3 20.6z"/><path fill="#EC7625" stroke="#EC7625" stroke-width=".005" stroke-linecap="round" stroke-linejoin="round" stroke-miterlimit="10" d="M120.7 6.5l2 1.2-.2 18.7-2 1.1.2-21z"/><path fill="#EC7625" d="M127.7 29.5l.2-18.6 1.4.8-.3 18.6z"/><path fill="#FFF" d="M144.8 17.6l-.5 37.4.9.5h.1l.1.1 14.1 8.4.1.1.9.5.5-37.4-16.2-9.6zm14.7 44.2l-12.2-7.3.4-33.9 12.2 7.3-.4 33.9z"/><path fill="#EC7625" stroke="#EC7625" stroke-width=".054" stroke-linecap="round" stroke-linejoin="round" stroke-miterlimit="10" d="M144.7 17.4l-.5 37.7 1 .6h.1l.2.1 14.3 8.5 1 .6.5-37.7-16.6-9.8zm16.3 9.9l-.5 37.1-.8-.5-.1-.1-.1-.1-13.8-8.2-.1-.1h0-.1 0l-.1-.1-.8-.5.5-37.1"/><path fill="#EC7625" d="M145.8 19.4l-.5 36.3.1.1 14.1 8.4.5-36.3-12.3-7.3-.1-.1-1.8-1.1zm13.7 42.4l-12.2-7.3.4-33.9 12.2 7.3-.4 33.9z"/><path fill="#EC7625" stroke="#EC7625" stroke-width=".054" stroke-linecap="round" stroke-linejoin="round" stroke-miterlimit="10" d="M145.7 19.2l-.5 36.5.1.1h0l14.3 8.5.5-36.5-12.4-7.4-2-1.2zm13.8 44.7l-13.9-8.2-.1-.1.5-36 1.5.9.1.1.1.1 12.2 7.3-.4 35.9z"/><path fill="#EC7625" stroke="#EC7625" stroke-width=".054" stroke-linecap="round" stroke-linejoin="round" stroke-miterlimit="10" d="M145.1 55.6l.1.1.1.1h0l14.3 8.5V62l-.2-.1-12.2-7.3-.1-.1-.1.1-1.6.9h-.1 0-.1 0l-.1.1h0zm14.4 6.5v1.8l-13.9-8.2h0l1.5-.9"/><path fill="#FFF" d="M147.2 54.6l.4-34.2-1.8-1-.4 36.2z"/><path fill="#EC7625" stroke="#EC7625" stroke-width=".054" stroke-linecap="round" stroke-linejoin="round" stroke-miterlimit="10" d="M145.3 18.8l.2 35.1-.1 1.9h.2l1.5-.9.1-.1.4-34.3-2.3-1.7z"/><g stroke="#FFF" stroke-width=".121" stroke-linecap="round" stroke-linejoin="round" stroke-miterlimit="10"><path fill="#EC7625" d="M115.4 46.9l46.3 28.5m-47-20.4L161 83.5m-47.1-20.4l46.3 28.4m-47-20.3l46.3 28.4m-47.1-20.3l46.3 28.4"/><path fill="none" d="M132.7 57.5l-7.2 4.1m20 21l-7.2 4.1m-13.3.4l-7.2 4.2"/><path fill="#EC7625" d="M95 59.7l46.4 28.4"/></g></g><path fill="#1C6775" d="M32.6 108l-.1-1.9c0-.7.2-1.4.7-1.8.4-.5 1-.7 1.7-.7h1.7c4.5-.2 11.1-1.2 17.6-4.5l-.2-1.8c-6.2 3.4-12.6 4.4-17.1 4.6-2.7.1-4.6 0-5.3-.1h-.1c-.2 0-.4.1-.5.2-.2.2-.3.4-.3.6l.3 5.4c0 .4.4.8.8.8.5.1.9-.3.8-.8zm26.2-81.6l-15.4.6 11-1.4z"/><path fill="#1C6775" d="M54 97.3s9.4-7.5 13.9-19.5h1.8s-6.4 17.4-16.8 21.6l1.1-2.1zM176 9.2l-.5 61.6-111.6-.9.5-61.6 111.6.9zm-1.6 60.4l.4-59.3-109.3-.8-.4 59.3 109.3.8z"/><path fill="#FFF" d="M50.8 26.9L45.7 40l29.7-.4 4.3-4.7L81 29s-3.2-3.7-3.8-3.9c-.6-.1-9.1-.4-9.1-.4l-17.3 2.2z"/><path fill="#1C6775" d="M69.9 30.4c.5.6 1.1 1.1 1.8 1.4.7.3 1.5.5 2.3.4.8-.1 1.5-.4 2.1-.9-.7 0-1.4 0-2.1-.1-.6-.1-1.2-.3-1.8-.5-.6-.3-1.2-.6-1.7-1-.6-.4-1.1-.8-1.7-1.3.2.7.6 1.4 1.1 2z"/><path fill="#1C6775" d="M82.1 31.3c-.2-4.1-3.4-7.4-7.5-7.7l-19.8.7-4.1.2v-.1l-6 .3c-.9 0-1.6-.3-1.9-.9-.3-.6-.3-1.3.2-2 .8-1.1 2.2-2.9 4.4-4.3.2-.1.5-.3.7-.4.1-.1.3-.1.4-.2.3-.1.6-.3.9-.4.1 0 .3-.1.4-.1 2.4-.9 4.4-.9 4.4-.9l.5-3.6c-4.4 1.8-6.2 2.6-7 3-4.5 2.1-6.8 5.9-7.8 8.1-.6 1.3-2 2.6-3.3 3.1-4.5 1.7-8.5 4.8-10.6 8.2L8.3 63.2c-3 4.8-6.1 12.3-7 16.8L0 86.6c-.2.8.2 1.6.8 1.7.3.1.6-.1.8-.2.3-.2.5-.6.6-1l1.2-6.5c.8-4.3 3.8-11.5 6.7-16.1l17.9-29c2.8-4.4 9.3-8.2 14.5-8.5l12.4-.6 19-.7c3.3-.2 6.1 2.4 6.2 5.7l.1 1.1c.2 3.3-4.1 6.1-7.4 6.2l-17.9.7-9.1.5c-.6 0-1 .5-1 1.1 0 .6.5 1 1.1 1l4.6-.2c1.6-.1 3 1.2 3 2.8v.5c.1 1.3-.1 3.3-.5 4.6-5.8 17.7-26.3 21.2-27.2 21.4-.3 0-.5.2-.7.4-.2.2-.2.5-.2.8.1.5.5.9 1.1.9h.2c.1 0 16.8-2.8 25.5-15.8.5-.8 1.1-1.1 1.6-1 .4.1.7.4.8.9h.8V46.7l19.2-6c3.9-.8 8.3-4.3 8.2-8.3l-.2-1.1z"/><path fill="#EC7625" stroke="#EC7625" stroke-width=".2" stroke-miterlimit="10" d="M145.1 18l-.4 37.8m16-28.3l-.5 37.4"/><path fill="#EC7625" stroke="#EC7625" stroke-width=".2" stroke-linecap="round" stroke-linejoin="round" stroke-miterlimit="10" d="M145.1 18.3l15.7 9.4"/></svg>